SplineFontDB: 3.0
FontName: LenMusBasic
FullName: LenMus Basic
FamilyName: LenMus Basic
Weight: Book
Copyright: This font is distributed under the GNU General Public License. As a special exception, if you create a document which uses this font, and embed this font or unaltered portions of this font into the document, this font does not by itself cause the resulting document to be covered by the GNU General Public License.\n\nMany symbols of this font are taken from the GNU GPL project Lilypond, Emmertaler font.
Version: 1.0,  July 2006
ItalicAngle: 0
UnderlinePosition: -103
UnderlineWidth: 102
Ascent: 1638
Descent: 410
LayerCount: 2
Layer: 0 1 "Back"  1
Layer: 1 1 "Fore"  0
NeedsXUIDChange: 1
XUID: [1021 315 1911437747 207487]
FSType: 8
OS2Version: 1
OS2_WeightWidthSlopeOnly: 0
OS2_UseTypoMetrics: 1
CreationTime: 1053188930
ModificationTime: 1299698353
PfmFamily: 81
TTFWeight: 400
TTFWidth: 5
LineGap: 0
VLineGap: 0
Panose: 5 1 1 1 1 1 1 1 1 1
OS2TypoAscent: 1434
OS2TypoAOffset: 1
OS2TypoDescent: -614
OS2TypoDOffset: 1
OS2TypoLinegap: 0
OS2WinAscent: -258
OS2WinAOffset: 1
OS2WinDescent: -2108
OS2WinDOffset: 1
HheadAscent: -258
HheadAOffset: 1
HheadDescent: 2108
HheadDOffset: 1
OS2SubXSize: 1434
OS2SubYSize: 1331
OS2SubXOff: 0
OS2SubYOff: 283
OS2SupXSize: 1434
OS2SupYSize: 1331
OS2SupXOff: 0
OS2SupYOff: 977
OS2StrikeYSize: 102
OS2StrikeYPos: 530
OS2FamilyClass: 3072
OS2Vendor: '    '
OS2CodePages: 80000000.00000000
OS2UnicodeRanges: 00000000.10000000.00000000.00000000
DEI: 91125
ShortTable: maxp 16
  1
  0
  222
  244
  7
  0
  0
  2
  16
  47
  52
  0
  203
  0
  0
  0
EndShort
LangName: 1033 "" "" "Regular" "LenMus Basic: Version 1.0" "" "Version 1.0,  July 2006" "" "lenmus.org" 
GaspTable: 3 9 2 40 3 65535 3
Encoding: UnicodeBmp
UnicodeInterp: none
NameList: Adobe Glyph List
DisplaySize: -96
AntiAlias: 1
FitToEm: 1
WinInfo: 72 8 2
BeginChars: 65648 232

StartChar: .notdef
Encoding: 65536 -1 0
Width: 1658
Flags: W
LayerCount: 2
Fore
SplineSet
0 0 m 1,0,-1
 0 1280 l 1,1,-1
 1024 1280 l 1,2,-1
 1024 0 l 1,3,-1
 0 0 l 1,0,-1
32 32 m 1,4,-1
 992 32 l 1,5,-1
 992 1248 l 1,6,-1
 32 1248 l 1,7,-1
 32 32 l 1,4,-1
EndSplineSet
Validated: 1
EndChar

StartChar: numbersign
Encoding: 35 35 6
Width: 612
Flags: W
LayerCount: 2
Fore
SplineSet
366 714 m 1,0,-1
 390 714 l 1,1,2
 414 704 414 704 414 672 c 2,3,-1
 414 456 l 1,4,-1
 420 426 l 1,5,-1
 426 426 l 1,6,-1
 498 444 l 1,7,8
 528 431 528 431 528 384 c 2,9,-1
 528 312 l 2,10,11
 528 248 528 248 420 222 c 1,12,-1
 414 216 l 1,13,-1
 414 -48 l 1,14,15
 416 -78 416 -78 426 -78 c 1,16,-1
 486 -60 l 1,17,-1
 498 -60 l 1,18,19
 528 -73 528 -73 528 -120 c 2,20,-1
 528 -186 l 2,21,22
 528 -253 528 -253 420 -282 c 1,23,-1
 414 -288 l 1,24,-1
 414 -576 l 2,25,26
 414 -621 414 -621 390 -630 c 1,27,-1
 366 -630 l 1,28,29
 342 -618 342 -618 342 -594 c 0,30,31
 338 -324 338 -324 330 -324 c 1,32,33
 186 -373 186 -373 186 -390 c 2,34,-1
 186 -660 l 2,35,36
 186 -705 186 -705 162 -714 c 1,37,-1
 138 -714 l 1,38,39
 108 -704 108 -704 108 -636 c 2,40,-1
 108 -420 l 1,41,-1
 36 -444 l 1,42,43
 0 -431 0 -431 0 -396 c 2,44,-1
 0 -300 l 2,45,46
 0 -253 0 -253 108 -216 c 1,47,-1
 108 78 l 1,48,-1
 36 60 l 1,49,50
 0 72 0 72 0 108 c 2,51,-1
 0 204 l 2,52,53
 0 252 0 252 102 282 c 1,54,-1
 108 288 l 1,55,-1
 108 552 l 2,56,57
 108 621 108 621 138 630 c 1,58,-1
 162 630 l 1,59,60
 186 622 186 622 186 576 c 2,61,-1
 186 324 l 1,62,-1
 192 324 l 1,63,64
 313 363 313 363 336 390 c 1,65,-1
 336 420 l 1,66,-1
 342 684 l 1,67,68
 354 711 354 711 366 714 c 1,0,-1
186 114 m 1,69,-1
 186 -180 l 1,70,71
 226 -176 226 -176 336 -114 c 1,72,-1
 336 180 l 1,73,74
 200 136 200 136 186 114 c 1,69,-1
EndSplineSet
Validated: 1
EndChar

StartChar: dollar
Encoding: 36 36 7
Width: 496
Flags: W
LayerCount: 2
Fore
SplineSet
23 248 m 1,0,1
 196 238 196 238 196 208 c 0,2,3
 196 58 196 58 254 58 c 1,4,5
 300 109 300 109 300 219 c 0,6,7
 300 233 300 233 473 248 c 1,8,-1
 490 231 l 1,9,-1
 496 231 l 1,10,11
 484 52 484 52 456 52 c 1,12,13
 317 39 317 39 300 0 c 1,14,15
 300 -32 300 -32 473 -57 c 1,16,-1
 496 -224 l 1,17,18
 490 -243 490 -243 473 -248 c 1,19,20
 294 -248 294 -248 294 -190 c 0,21,22
 294 -111 294 -111 260 -57 c 1,23,-1
 242 -57 l 2,24,25
 215 -57 215 -57 190 -213 c 1,26,27
 190 -238 190 -238 23 -248 c 1,28,29
 6 -243 6 -243 0 -224 c 1,30,31
 0 -51 0 -51 46 -51 c 1,32,33
 190 -35 190 -35 190 0 c 0,34,35
 190 33 190 33 23 58 c 1,36,37
 12 73 12 73 0 225 c 1,38,39
 4 242 4 242 23 248 c 1,0,1
EndSplineSet
Validated: 1
EndChar

StartChar: percent
Encoding: 37 37 8
Width: 438
Flags: W
LayerCount: 2
Fore
SplineSet
54 850 m 1,0,1
 108 845 108 845 108 820 c 2,2,-1
 96 184 l 1,3,-1
 102 184 l 1,4,5
 190 238 190 238 264 244 c 1,6,7
 401 244 401 244 438 46 c 1,8,9
 438 -89 438 -89 156 -272 c 1,10,11
 97 -350 97 -350 72 -350 c 0,12,13
 34 -350 34 -350 24 -290 c 1,14,-1
 0 820 l 1,15,16
 10 850 10 850 54 850 c 1,0,1
108 -74 m 1,17,-1
 108 -134 l 1,18,-1
 114 -224 l 1,19,-1
 120 -224 l 1,20,21
 288 -102 288 -102 288 28 c 2,22,-1
 288 58 l 2,23,24
 288 126 288 126 228 160 c 1,25,-1
 198 160 l 1,26,27
 114 143 114 143 114 46 c 1,28,-1
 108 -74 l 1,17,-1
EndSplineSet
Validated: 1
EndChar

StartChar: ampersand
Encoding: 38 38 9
Width: 744
Flags: W
LayerCount: 2
Fore
SplineSet
54 850 m 1,0,1
 108 845 108 845 108 820 c 2,2,-1
 96 190 l 1,3,-1
 108 190 l 1,4,5
 178 244 178 244 228 244 c 1,6,-1
 324 214 l 1,7,-1
 312 820 l 1,8,9
 322 850 322 850 366 850 c 1,10,11
 401 847 401 847 420 826 c 1,12,-1
 408 190 l 1,13,-1
 414 190 l 1,14,15
 515 243 515 243 576 244 c 1,16,17
 700 244 700 244 744 70 c 1,18,-1
 744 46 l 2,19,20
 744 -98 744 -98 456 -278 c 1,21,22
 438 -323 438 -323 384 -350 c 1,23,24
 330 -350 330 -350 330 -194 c 2,25,-1
 330 -116 l 1,26,-1
 318 -116 l 1,27,28
 180 -236 180 -236 84 -344 c 1,29,-1
 78 -350 l 1,30,-1
 72 -350 l 2,31,32
 34 -350 34 -350 24 -290 c 1,33,-1
 0 820 l 1,34,35
 10 850 10 850 54 850 c 1,0,1
90 -62 m 1,36,-1
 96 -224 l 1,37,-1
 108 -224 l 1,38,39
 228 -98 228 -98 228 16 c 2,40,-1
 228 76 l 2,41,42
 228 134 228 134 186 160 c 1,43,-1
 168 160 l 2,44,45
 96 160 96 160 96 10 c 1,46,-1
 90 -62 l 1,36,-1
420 22 m 2,47,-1
 420 -188 l 1,48,-1
 426 -218 l 1,49,-1
 438 -218 l 1,50,51
 588 -93 588 -93 588 10 c 2,52,-1
 588 64 l 2,53,54
 588 149 588 149 516 160 c 1,55,-1
 510 160 l 2,56,57
 420 160 420 160 420 22 c 2,47,-1
EndSplineSet
Validated: 1
EndChar

StartChar: quotesingle
Encoding: 39 39 10
Width: 348
Flags: W
LayerCount: 2
Fore
SplineSet
48 732 m 0,0,1
 96 732 96 732 96 690 c 2,2,-1
 96 612 l 1,3,-1
 90 372 l 1,4,-1
 96 372 l 1,5,-1
 306 402 l 1,6,7
 332 402 332 402 336 330 c 1,8,-1
 348 -702 l 2,9,10
 348 -721 348 -721 300 -732 c 1,11,12
 246 -732 246 -732 246 -690 c 2,13,-1
 252 -372 l 1,14,-1
 246 -372 l 1,15,-1
 36 -402 l 1,16,-1
 12 -378 l 1,17,-1
 0 702 l 1,18,19
 7 732 7 732 48 732 c 0,0,1
90 174 m 2,20,-1
 84 -210 l 1,21,-1
 90 -210 l 2,22,23
 132 -210 132 -210 252 -180 c 1,24,-1
 258 0 l 1,25,-1
 258 210 l 1,26,27
 90 192 90 192 90 174 c 2,20,-1
EndSplineSet
Validated: 1
EndChar

StartChar: period
Encoding: 46 46 17
Width: 227
Flags: W
LayerCount: 2
Fore
SplineSet
92 115 m 0,0,1
 101 117 101 117 111 117 c 0,2,3
 129 117 129 117 152 111 c 1,4,5
 203 90 203 90 223 39 c 0,6,7
 227 27 227 27 227 2 c 0,8,9
 227 -24 227 -24 223 -36 c 0,10,11
 203 -90 203 -90 150 -108 c 0,12,13
 139 -112 139 -112 115 -112 c 0,14,15
 88 -112 88 -112 78 -108 c 0,16,17
 25 -90 25 -90 4 -36 c 0,18,19
 0 -26 0 -26 0 1 c 0,20,21
 0 27 0 27 4 37 c 0,22,23
 10 57 10 57 29 82 c 1,24,25
 55 109 55 109 92 115 c 0,0,1
EndSplineSet
Validated: 1
EndChar

StartChar: zero
Encoding: 48 48 19
Width: 702
Flags: W
LayerCount: 2
Fore
SplineSet
336 987 m 5,0,1
 649 987 649 987 702 536 c 5,2,-1
 702 500 l 6,3,4
 702 179 702 179 438 49 c 5,5,-1
 348 37 l 5,6,7
 116 37 116 37 18 370 c 5,8,9
 0 452 0 452 0 518 c 4,10,11
 0 838 0 838 258 969 c 5,12,-1
 336 987 l 5,0,1
222 530 m 6,13,14
 222 114 222 114 294 114 c 5,15,16
 298 96 298 96 342 96 c 6,17,-1
 372 96 l 6,18,19
 480 96 480 96 480 429 c 6,20,-1
 480 619 l 6,21,22
 480 928 480 928 360 928 c 6,23,-1
 348 928 l 6,24,25
 222 928 222 928 222 595 c 6,26,-1
 222 530 l 6,13,14
EndSplineSet
Validated: 1
EndChar

StartChar: one
Encoding: 49 49 20
Width: 612
Flags: W
LayerCount: 2
Fore
SplineSet
240 987 m 1,0,-1
 336 957 l 1,1,-1
 354 957 l 1,2,-1
 432 981 l 1,3,-1
 450 963 l 1,4,-1
 450 326 l 2,5,6
 450 129 450 129 540 96 c 1,7,8
 612 81 612 81 612 67 c 2,9,-1
 612 55 l 2,10,11
 612 37 612 37 588 37 c 1,12,-1
 342 61 l 1,13,-1
 78 37 l 1,14,-1
 66 55 l 1,15,-1
 66 67 l 2,16,17
 66 84 66 84 138 90 c 1,18,19
 228 147 228 147 228 273 c 2,20,-1
 228 710 l 2,21,22
 228 741 228 741 204 751 c 1,23,-1
 192 751 l 1,24,25
 175 737 175 737 48 474 c 1,26,-1
 42 468 l 1,27,-1
 36 468 l 2,28,29
 0 468 0 468 0 491 c 1,30,31
 151 844 151 844 240 987 c 1,0,-1
EndSplineSet
Validated: 1
EndChar

StartChar: two
Encoding: 50 50 21
Width: 702
Flags: W
LayerCount: 2
Fore
SplineSet
312 987 m 6,0,1
 590 987 590 987 672 761 c 5,2,-1
 672 660 l 6,3,4
 672 467 672 467 282 340 c 5,5,-1
 216 298 l 5,6,-1
 270 298 l 6,7,8
 349 298 349 298 516 197 c 5,9,-1
 570 191 l 5,10,-1
 594 191 l 6,11,12
 640 191 640 191 672 263 c 5,13,-1
 684 263 l 5,14,-1
 702 245 l 5,15,-1
 702 239 l 6,16,17
 702 139 702 139 540 55 c 5,18,19
 484 37 484 37 438 37 c 6,20,-1
 432 37 l 6,21,22
 329 37 329 37 240 132 c 5,23,24
 207 162 207 162 168 162 c 6,25,-1
 162 162 l 6,26,27
 68 162 68 162 36 37 c 5,28,-1
 18 37 l 5,29,-1
 0 55 l 5,30,31
 0 239 0 239 312 441 c 5,32,33
 450 553 450 553 450 702 c 6,34,-1
 450 720 l 6,35,36
 450 907 450 907 336 940 c 5,37,-1
 312 940 l 5,38,39
 222 929 222 929 222 874 c 4,40,41
 222 849 222 849 288 755 c 5,42,-1
 288 750 l 5,43,44
 271 613 271 613 162 613 c 5,45,-1
 156 607 l 5,46,47
 24 635 24 635 24 738 c 6,48,-1
 24 744 l 6,49,50
 24 938 24 938 294 987 c 5,51,-1
 312 987 l 6,0,1
EndSplineSet
Validated: 1
EndChar

StartChar: three
Encoding: 51 51 22
Width: 636
Flags: W
LayerCount: 2
Fore
SplineSet
330 987 m 2,0,1
 535 987 535 987 600 826 c 1,2,-1
 606 778 l 1,3,-1
 606 736 l 2,4,5
 606 633 606 633 504 557 c 1,6,-1
 504 539 l 2,7,8
 504 508 504 508 588 455 c 1,9,10
 636 394 636 394 636 318 c 2,11,-1
 636 294 l 2,12,13
 636 75 636 75 318 37 c 1,14,-1
 288 37 l 1,15,16
 0 71 0 71 0 252 c 0,17,18
 0 361 0 361 138 378 c 1,19,20
 219 378 219 378 252 252 c 1,21,-1
 174 162 l 1,22,-1
 174 151 l 2,23,24
 174 79 174 79 294 79 c 256,25,26
 414 79 414 79 414 330 c 0,27,28
 414 509 414 509 342 509 c 2,29,-1
 252 509 l 2,30,31
 144 509 144 509 144 533 c 2,32,-1
 144 551 l 1,33,34
 150 569 150 569 180 569 c 2,35,-1
 324 569 l 2,36,37
 414 569 414 569 414 742 c 2,38,-1
 414 760 l 2,39,40
 414 945 414 945 300 945 c 2,41,-1
 282 945 l 2,42,43
 202 945 202 945 180 903 c 1,44,-1
 180 879 l 2,45,46
 180 856 180 856 240 802 c 1,47,-1
 240 784 l 2,48,49
 240 706 240 706 132 682 c 1,50,51
 24 705 24 705 24 790 c 2,52,-1
 24 802 l 2,53,54
 24 940 24 940 252 987 c 1,55,-1
 330 987 l 2,0,1
EndSplineSet
Validated: 1
EndChar

StartChar: four
Encoding: 52 52 23
Width: 762
Flags: W
LayerCount: 2
Fore
SplineSet
294 987 m 1,0,-1
 390 969 l 1,1,-1
 474 969 l 1,2,-1
 576 987 l 1,3,-1
 582 987 l 1,4,-1
 600 969 l 1,5,-1
 66 336 l 1,6,-1
 66 330 l 1,7,-1
 372 330 l 1,8,-1
 372 437 l 2,9,10
 372 634 372 634 414 634 c 1,11,12
 490 670 490 670 570 820 c 1,13,-1
 582 820 l 1,14,15
 600 814 600 814 600 784 c 2,16,-1
 600 330 l 1,17,-1
 714 330 l 2,18,19
 758 330 758 330 762 312 c 1,20,-1
 762 294 l 2,21,22
 762 270 762 270 690 270 c 2,23,-1
 600 270 l 1,24,-1
 600 252 l 1,25,26
 622 85 622 85 714 85 c 1,27,28
 714 77 714 77 756 73 c 1,29,-1
 756 43 l 1,30,-1
 726 37 l 1,31,-1
 486 61 l 1,32,-1
 240 37 l 1,33,34
 216 46 216 46 216 55 c 2,35,-1
 216 61 l 1,36,37
 218 70 218 70 312 103 c 1,38,39
 372 171 372 171 372 228 c 2,40,-1
 372 270 l 1,41,-1
 126 270 l 2,42,43
 0 270 0 270 0 306 c 2,44,-1
 0 324 l 1,45,46
 270 648 270 648 270 975 c 1,47,-1
 294 987 l 1,0,-1
EndSplineSet
Validated: 1
EndChar

StartChar: five
Encoding: 53 53 24
Width: 666
Flags: W
LayerCount: 2
Fore
SplineSet
90 987 m 5,0,-1
 348 963 l 5,1,-1
 618 987 l 5,2,3
 642 978 642 978 642 969 c 6,4,-1
 642 963 l 5,5,6
 470 778 470 778 126 778 c 5,7,-1
 114 760 l 5,8,-1
 114 581 l 5,9,-1
 126 581 l 5,10,11
 218 646 218 646 306 646 c 6,12,-1
 348 646 l 6,13,14
 592 646 592 646 660 419 c 5,15,-1
 666 348 l 5,16,-1
 666 342 l 6,17,18
 666 134 666 134 396 43 c 5,19,-1
 324 37 l 5,20,-1
 288 37 l 5,21,22
 0 71 0 71 0 252 c 4,23,24
 0 352 0 352 126 378 c 5,25,26
 211 378 211 378 252 264 c 5,27,-1
 252 258 l 6,28,29
 252 241 252 241 174 162 c 5,30,-1
 174 133 l 6,31,32
 174 89 174 89 312 79 c 5,33,34
 444 79 444 79 444 336 c 260,35,36
 444 593 444 593 312 593 c 4,37,38
 163 593 163 593 90 497 c 5,39,-1
 84 497 l 5,40,41
 54 505 54 505 54 539 c 6,42,-1
 54 933 l 6,43,44
 54 987 54 987 90 987 c 5,0,-1
EndSplineSet
Validated: 1
EndChar

StartChar: six
Encoding: 54 54 25
Width: 654
Flags: W
LayerCount: 2
Fore
SplineSet
378 987 m 1,0,1
 630 947 630 947 630 791 c 1,2,3
 602 666 602 666 504 666 c 1,4,5
 378 688 378 688 378 791 c 0,6,7
 378 803 378 803 450 868 c 1,8,-1
 450 886 l 2,9,10
 450 940 450 940 378 940 c 2,11,-1
 342 940 l 2,12,13
 222 940 222 940 222 690 c 2,14,-1
 222 548 l 1,15,-1
 324 565 l 1,16,-1
 342 565 l 2,17,18
 546 565 546 565 624 423 c 1,19,20
 642 397 642 397 654 304 c 1,21,22
 654 132 654 132 474 61 c 1,23,-1
 336 37 l 1,24,25
 124 37 124 37 30 310 c 1,26,27
 0 421 0 421 0 506 c 0,28,29
 0 866 0 866 300 981 c 1,30,-1
 378 987 l 1,0,1
228 399 m 2,31,-1
 228 203 l 2,32,33
 228 85 228 85 318 85 c 2,34,-1
 336 85 l 2,35,36
 438 85 438 85 438 215 c 2,37,-1
 438 405 l 1,38,39
 425 524 425 524 336 524 c 2,40,-1
 318 524 l 2,41,42
 228 524 228 524 228 399 c 2,31,-1
EndSplineSet
Validated: 1
EndChar

StartChar: seven
Encoding: 55 55 26
Width: 696
Flags: W
LayerCount: 2
Fore
SplineSet
240 987 m 1,0,1
 323 980 323 980 438 886 c 1,2,-1
 474 880 l 1,3,-1
 504 880 l 2,4,5
 567 880 567 880 666 981 c 1,6,-1
 684 981 l 1,7,-1
 696 969 l 1,8,-1
 696 945 l 1,9,10
 384 509 384 509 384 257 c 2,11,-1
 384 144 l 2,12,13
 384 93 384 93 396 67 c 1,14,15
 386 37 386 37 366 37 c 1,16,-1
 246 61 l 1,17,-1
 198 61 l 1,18,-1
 60 37 l 1,19,-1
 54 43 l 1,20,-1
 54 61 l 1,21,22
 111 248 111 248 456 714 c 1,23,-1
 456 726 l 1,24,-1
 366 708 l 1,25,26
 291 708 291 708 186 803 c 1,27,-1
 138 815 l 1,28,-1
 108 815 l 1,29,30
 54 793 54 793 54 660 c 2,31,-1
 54 554 l 2,32,33
 54 528 54 528 30 512 c 1,34,35
 0 520 0 520 0 554 c 2,36,-1
 0 945 l 1,37,38
 4 981 4 981 18 981 c 2,39,-1
 36 981 l 2,40,41
 52 981 52 981 60 910 c 1,42,-1
 78 904 l 1,43,44
 170 987 170 987 240 987 c 1,0,1
EndSplineSet
Validated: 1
EndChar

StartChar: eight
Encoding: 56 56 27
Width: 714
Flags: W
LayerCount: 2
Fore
SplineSet
324 987 m 1,0,-1
 402 987 l 1,1,2
 672 950 672 950 672 778 c 0,3,4
 672 682 672 682 558 557 c 1,5,-1
 558 551 l 1,6,7
 714 444 714 444 714 312 c 0,8,9
 714 135 714 135 480 55 c 1,10,11
 416 37 416 37 372 37 c 2,12,-1
 336 37 l 1,13,14
 0 81 0 81 0 306 c 0,15,16
 0 396 0 396 138 521 c 1,17,-1
 138 533 l 1,18,19
 30 633 30 633 30 736 c 0,20,21
 30 941 30 941 324 987 c 1,0,-1
222 820 m 2,22,-1
 222 802 l 2,23,24
 222 717 222 717 426 629 c 1,25,-1
 480 593 l 1,26,-1
 498 593 l 1,27,28
 588 680 588 680 588 754 c 2,29,-1
 588 796 l 2,30,31
 588 897 588 897 432 939 c 1,32,-1
 354 945 l 1,33,-1
 348 945 l 1,34,35
 222 915 222 915 222 820 c 2,22,-1
84 300 m 2,36,37
 84 157 84 157 252 97 c 1,38,-1
 300 85 l 1,39,-1
 378 85 l 2,40,41
 490 85 490 85 516 228 c 1,42,-1
 516 246 l 2,43,44
 516 347 516 347 282 449 c 1,45,46
 230 491 230 491 204 491 c 0,47,48
 157 491 157 491 84 336 c 1,49,-1
 84 300 l 2,36,37
EndSplineSet
Validated: 1
EndChar

StartChar: nine
Encoding: 57 57 28
Width: 648
Flags: W
LayerCount: 2
Fore
SplineSet
294 987 m 2,0,-1
 336 987 l 2,1,2
 584 987 584 987 648 569 c 1,3,-1
 648 497 l 2,4,5
 648 214 648 214 414 67 c 1,6,7
 353 37 353 37 282 37 c 0,8,9
 74 37 74 37 24 216 c 1,10,-1
 24 240 l 2,11,12
 24 338 24 338 150 360 c 1,13,14
 252 360 252 360 270 228 c 1,15,16
 270 212 270 212 204 162 c 1,17,-1
 204 133 l 1,18,19
 210 85 210 85 258 85 c 2,20,-1
 318 85 l 2,21,22
 410 85 410 85 426 264 c 1,23,-1
 426 479 l 1,24,-1
 420 479 l 1,25,-1
 330 461 l 1,26,-1
 288 461 l 2,27,28
 63 461 63 461 6 664 c 1,29,-1
 0 712 l 1,30,-1
 0 736 l 2,31,32
 0 907 0 907 186 969 c 1,33,34
 250 987 250 987 294 987 c 2,0,-1
210 790 m 2,35,-1
 210 670 l 2,36,37
 210 503 210 503 312 503 c 2,38,-1
 330 503 l 2,39,40
 426 503 426 503 426 688 c 2,41,-1
 426 742 l 2,42,43
 426 945 426 945 342 945 c 2,44,-1
 318 945 l 2,45,46
 210 945 210 945 210 790 c 2,35,-1
EndSplineSet
Validated: 1
EndChar

StartChar: colon
Encoding: 58 58 29
Width: 469
Flags: W
LayerCount: 2
Fore
SplineSet
469 854 m 1,0,-1
 238 0 l 1,1,-1
 0 854 l 1,2,-1
 61 854 l 1,3,-1
 236 178 l 1,4,-1
 240 178 l 1,5,-1
 412 854 l 1,6,-1
 469 854 l 1,0,-1
EndSplineSet
Validated: 1
EndChar

StartChar: semicolon
Encoding: 59 59 30
Width: 1364
Flags: W
LayerCount: 2
Fore
SplineSet
641 786 m 1,0,-1
 760 784 l 1,1,2
 948 754 948 754 1092 612 c 1,3,4
 1264 436 1264 436 1339 156 c 0,5,6
 1364 63 1364 63 1364 35 c 1,7,8
 1358 8 1358 8 1327 8 c 0,9,10
 1319 8 1319 8 1311 12 c 1,11,12
 1292 18 1292 18 1284 61 c 1,13,14
 1233 303 1233 303 1051 450 c 1,15,16
 954 526 954 526 840 559 c 0,17,18
 659 610 659 610 483 545 c 1,19,20
 428 526 428 526 367 485 c 0,21,22
 147 340 147 340 84 61 c 1,23,24
 76 20 76 20 57 12 c 0,25,26
 47 8 47 8 38 8 c 0,27,28
 23 8 23 8 10 20 c 1,29,30
 5 27 5 27 5 42 c 256,31,32
 5 57 5 57 10 80 c 0,33,34
 66 334 66 334 195 514 c 1,35,36
 375 762 375 762 641 786 c 1,0,-1
651 276 m 0,37,38
 733 295 733 295 786 235 c 1,39,40
 797 221 797 221 805 207 c 1,41,42
 836 143 836 143 805 80 c 1,43,44
 770 6 770 6 686 6 c 0,45,46
 627 6 627 6 586 47 c 0,47,48
 535 98 535 98 551 172 c 1,49,50
 563 244 563 244 633 270 c 0,51,52
 643 274 643 274 651 276 c 0,37,38
EndSplineSet
Validated: 33
EndChar

StartChar: less
Encoding: 60 60 31
Width: 1364
Flags: W
LayerCount: 2
Fore
SplineSet
647 -18 m 0,0,1
 666 -13 666 -13 684 -13 c 0,2,3
 741 -13 741 -13 782 -59 c 1,4,5
 793 -73 793 -73 801 -87 c 1,6,7
 831 -151 831 -151 801 -214 c 0,8,9
 766 -288 766 -288 682 -288 c 0,10,11
 623 -288 623 -288 582 -247 c 0,12,13
 530 -196 530 -196 547 -122 c 1,14,15
 559 -50 559 -50 629 -24 c 0,16,17
 639 -20 639 -20 647 -18 c 0,0,1
18 -20 m 0,18,19
 29 -16 29 -16 37 -16 c 0,20,21
 46 -16 46 -16 53 -20 c 1,22,23
 72 -26 72 -26 80 -69 c 1,24,25
 143 -347 143 -347 362 -493 c 0,26,27
 424 -534 424 -534 479 -552 c 1,28,29
 625 -608 625 -608 782 -579 c 1,30,31
 866 -562 866 -562 936 -530 c 1,32,33
 1180 -409 1180 -409 1264 -132 c 0,34,35
 1274 -102 1274 -102 1280 -69 c 0,36,37
 1288 -28 1288 -28 1307 -20 c 0,38,39
 1317 -15 1317 -15 1326 -15 c 0,40,41
 1341 -15 1341 -15 1354 -28 c 0,42,43
 1359 -34 1359 -34 1359 -48 c 0,44,45
 1359 -63 1359 -63 1354 -87 c 0,46,47
 1298 -341 1298 -341 1169 -521 c 0,48,49
 1004 -751 1004 -751 754 -792 c 1,50,51
 721 -796 721 -796 681 -796 c 0,52,53
 650 -796 650 -796 616 -794 c 1,54,55
 610 -792 610 -792 606 -792 c 0,56,57
 418 -761 418 -761 272 -620 c 1,58,59
 100 -444 100 -444 25 -163 c 0,60,61
 0 -71 0 -71 0 -42 c 1,62,63
 4 -26 4 -26 18 -20 c 0,18,19
EndSplineSet
Validated: 33
EndChar

StartChar: equal
Encoding: 61 61 32
Width: 714
Flags: W
LayerCount: 2
Fore
SplineSet
139 80 m 1,0,-1
 139 143 l 1,1,-1
 569 143 l 1,2,-1
 569 80 l 1,3,-1
 139 80 l 1,0,-1
139 -49 m 1,4,-1
 569 -49 l 1,5,-1
 569 -113 l 1,6,-1
 139 -113 l 1,7,-1
 139 -49 l 1,4,-1
EndSplineSet
Validated: 1
EndChar

StartChar: greater
Encoding: 62 62 33
Width: 891
Flags: W
LayerCount: 2
Fore
SplineSet
459 1561 m 0,0,1
 486 1563 486 1563 510 1563 c 256,2,3
 534 1563 534 1563 555 1561 c 0,4,5
 727 1542 727 1542 819 1395 c 0,6,7
 852 1343 852 1343 868 1282 c 0,8,9
 889 1204 889 1204 854 1147 c 1,10,11
 838 1118 838 1118 805 1098 c 1,12,13
 743 1063 743 1063 674 1094 c 1,14,15
 614 1124 614 1124 594 1184 c 0,16,17
 588 1202 588 1202 588 1231 c 0,18,19
 588 1266 588 1266 598 1296 c 1,20,21
 621 1352 621 1352 670 1374 c 1,22,23
 702 1391 702 1391 741 1391 c 1,24,25
 760 1393 760 1393 735 1417 c 0,26,27
 668 1485 668 1485 575 1503 c 0,28,29
 526 1513 526 1513 477 1507 c 0,30,31
 346 1493 346 1493 309 1378 c 0,32,33
 301 1352 301 1352 295 1315 c 0,34,35
 256 1038 256 1038 295 733 c 1,36,37
 317 578 317 578 434 547 c 0,38,39
 453 543 453 543 473 541 c 0,40,41
 618 526 618 526 725 629 c 1,42,43
 801 707 801 707 834 827 c 0,44,45
 844 860 844 860 855 864 c 0,46,47
 890 874 890 874 891 838 c 1,48,49
 887 803 887 803 866 760 c 1,50,51
 795 569 795 569 633 508 c 0,52,53
 606 498 606 498 578 492 c 0,54,55
 541 484 541 484 501 484 c 0,56,57
 421 484 421 484 328 514 c 1,58,59
 317 516 317 516 307 520 c 0,60,61
 49 616 49 616 8 934 c 1,62,63
 5 998 5 998 5 1037 c 0,64,65
 5 1057 5 1057 6 1070 c 0,66,67
 8 1110 8 1110 8 1114 c 0,68,69
 51 1458 51 1458 350 1542 c 1,70,71
 426 1559 426 1559 459 1561 c 0,0,1
EndSplineSet
Validated: 33
EndChar

StartChar: question
Encoding: 63 63 34
Width: 891
Flags: W
LayerCount: 2
Fore
SplineSet
420 1735 m 1,0,-1
 426 1741 l 1,1,-1
 455 1741 l 2,2,3
 481 1741 481 1741 487 1735 c 1,4,-1
 494 1731 l 1,5,-1
 494 1563 l 1,6,-1
 514 1563 l 2,7,8
 694 1563 694 1563 801 1421 c 0,9,10
 848 1360 848 1360 868 1282 c 0,11,12
 889 1204 889 1204 854 1147 c 1,13,14
 838 1118 838 1118 805 1098 c 1,15,16
 743 1063 743 1063 674 1094 c 1,17,18
 614 1124 614 1124 594 1184 c 0,19,20
 588 1202 588 1202 588 1231 c 0,21,22
 588 1266 588 1266 598 1296 c 1,23,24
 621 1352 621 1352 670 1374 c 1,25,26
 702 1391 702 1391 741 1391 c 1,27,28
 760 1393 760 1393 735 1417 c 0,29,30
 649 1503 649 1503 524 1509 c 1,31,-1
 494 1509 l 1,32,-1
 494 539 l 1,33,-1
 514 539 l 2,34,35
 631 539 631 539 725 629 c 1,36,37
 801 707 801 707 834 827 c 0,38,39
 844 860 844 860 852 862 c 1,40,41
 874 874 874 874 889 852 c 1,42,43
 891 846 891 846 891 838 c 1,44,-1
 883 807 l 1,45,-1
 883 805 l 1,46,47
 823 606 823 606 674 524 c 0,48,49
 647 510 647 510 618 502 c 1,50,51
 578 487 578 487 526 485 c 1,52,-1
 494 485 l 1,53,-1
 494 319 l 1,54,-1
 487 313 l 1,55,-1
 481 307 l 1,56,-1
 453 307 l 2,57,58
 426 307 426 307 420 313 c 2,59,-1
 416 317 l 1,60,-1
 414 406 l 1,61,-1
 414 494 l 1,62,-1
 395 496 l 1,63,64
 324 508 324 508 264 539 c 1,65,66
 45 643 45 643 8 934 c 1,67,68
 3 986 3 986 3 1025 c 0,69,70
 3 1045 3 1045 4 1061 c 0,71,72
 8 1110 8 1110 8 1114 c 0,73,74
 49 1430 49 1430 303 1526 c 0,75,76
 350 1544 350 1544 393 1550 c 1,77,-1
 414 1554 l 1,78,-1
 414 1729 l 1,79,-1
 420 1735 l 1,0,-1
414 1024 m 256,80,81
 414 1493 414 1493 412 1493 c 128,-1,82
 410 1493 410 1493 393 1485 c 1,83,84
 313 1442 313 1442 295 1311 c 0,85,86
 291 1286 291 1286 289 1255 c 0,87,88
 283 1180 283 1180 287 860 c 0,89,90
 287 807 287 807 289 793 c 0,91,92
 301 629 301 629 371 578 c 0,93,94
 383 569 383 569 397 561 c 0,95,96
 406 555 406 555 412 555 c 0,97,98
 414 555 414 555 414 1024 c 256,80,81
EndSplineSet
Validated: 33
EndChar

StartChar: A
Encoding: 65 65 36
Width: 1243
Flags: W
LayerCount: 2
Fore
SplineSet
773 791 m 5,0,-1
 860 76 l 5,1,2
 982 134 982 134 1037 230 c 132,-1,3
 1092 326 1092 326 1085 433 c 5,4,5
 1083 598 1083 598 1051.5 652 c 132,-1,6
 1020 706 1020 706 988 735.5 c 132,-1,7
 956 765 956 765 885 784 c 5,8,9
 826 792 826 792 773 791 c 5,0,-1
632 1659 m 5,10,11
 765 1786 765 1786 833 1866 c 5,12,13
 966 2064 966 2064 974 2159.5 c 132,-1,14
 982 2255 982 2255 970 2349 c 5,15,16
 947 2460 947 2460 922 2471 c 5,17,18
 742 2379 742 2379 667 2209 c 4,19,20
 604 2066 604 2066 604 1929 c 4,21,22
 604 1862 604 1862 610 1798.5 c 132,-1,23
 616 1735 616 1735 632 1659 c 5,10,11
695 1355 m 5,24,25
 731 1090 731 1090 739 1013 c 5,26,27
 804 1005 804 1005 817 1003 c 4,28,29
 1003 987 1003 987 1128 841 c 5,30,31
 1243 693 1243 693 1243 487 c 4,32,33
 1243 330 1243 330 1146 206 c 4,34,35
 1057 93 1057 93 875 14 c 5,36,-1
 924 -436 l 5,37,38
 927 -578 927 -578 903 -639 c 132,-1,39
 879 -700 879 -700 850 -732.5 c 132,-1,40
 821 -765 821 -765 756.5 -803.5 c 132,-1,41
 692 -842 692 -842 608 -852 c 4,42,43
 592 -853 592 -853 576 -853 c 4,44,45
 458 -853 458 -853 360 -775 c 5,46,47
 246 -677 246 -677 237 -569 c 4,48,49
 228 -448 228 -448 288.5 -383.5 c 132,-1,50
 349 -319 349 -319 436 -311 c 5,51,52
 547 -307 547 -307 602 -374 c 132,-1,53
 657 -441 657 -441 648 -525 c 5,54,55
 648 -598 648 -598 571 -658 c 5,56,57
 476 -698 476 -698 411 -670 c 5,58,59
 378 -689 378 -689 402 -719 c 132,-1,60
 426 -749 426 -749 494 -777 c 4,61,62
 547 -799 547 -799 610 -787 c 5,63,64
 706 -766 706 -766 747.5 -731.5 c 132,-1,65
 789 -697 789 -697 809.5 -672.5 c 132,-1,66
 830 -648 830 -648 844 -596 c 132,-1,67
 858 -544 858 -544 857 -436 c 5,68,-1
 809 -6 l 5,69,70
 792 -14 792 -14 742 -18.5 c 132,-1,71
 692 -23 692 -23 643 -23 c 4,72,73
 378 -23 378 -23 189 185 c 132,-1,74
 0 393 0 393 0 686 c 5,75,76
 14 879 14 879 89 1024 c 5,77,78
 149 1172 149 1172 303 1336 c 5,79,80
 407 1464 407 1464 567 1609 c 5,81,82
 547 1728 547 1728 536.5 1838.5 c 132,-1,83
 526 1949 526 1949 528 2040 c 5,84,85
 528 2192 528 2192 545 2289 c 132,-1,86
 562 2386 562 2386 627 2508.5 c 132,-1,87
 692 2631 692 2631 808 2753 c 5,88,89
 924 2624 924 2624 984 2453 c 132,-1,90
 1044 2282 1044 2282 1044 2087 c 4,91,92
 1044 1882 1044 1882 966 1688 c 5,93,94
 896 1539 896 1539 695 1355 c 5,24,25
796 60 m 5,95,-1
 710 804 l 5,96,97
 623 784 623 784 560 752.5 c 132,-1,98
 497 721 497 721 442 650 c 5,99,100
 399 580 399 580 412.5 471 c 132,-1,101
 426 362 426 362 507 285 c 5,102,103
 565 244 565 244 655 225 c 5,104,-1
 659 198 l 5,105,106
 423 243 423 243 340 389.5 c 132,-1,107
 257 536 257 536 295 681 c 5,108,109
 318 797 318 797 421.5 891.5 c 132,-1,110
 525 986 525 986 679 1004 c 5,111,112
 673 1070 673 1070 635 1307 c 5,113,114
 459 1148 459 1148 366 1043 c 5,115,116
 252 934 252 934 203 822 c 5,117,118
 141 715 141 715 141 567 c 4,119,120
 141 333 141 333 303 186 c 4,121,122
 458 45 458 45 686 45 c 4,123,124
 728 45 728 45 796 60 c 5,95,-1
EndSplineSet
Validated: 33
EndChar

StartChar: B
Encoding: 66 66 37
Width: 1454
Flags: W
LayerCount: 2
Fore
SplineSet
0 369 m 1,0,1
 324 613 324 613 447.5 738 c 128,-1,2
 571 863 571 863 662 980.5 c 128,-1,3
 753 1098 753 1098 788.5 1199 c 128,-1,4
 824 1300 824 1300 842.5 1443 c 128,-1,5
 861 1586 861 1586 840 1676 c 128,-1,6
 819 1766 819 1766 779.5 1834.5 c 128,-1,7
 740 1903 740 1903 682.5 1936 c 128,-1,8
 625 1969 625 1969 506 1982 c 1,9,10
 410 1977 410 1977 340 1949 c 128,-1,11
 270 1921 270 1921 237 1884 c 0,12,13
 218 1862 218 1862 204 1837.5 c 128,-1,14
 190 1813 190 1813 183.5 1797.5 c 128,-1,15
 177 1782 177 1782 181 1752 c 1,16,17
 194 1711 194 1711 225 1711 c 1,18,19
 239 1726 239 1726 261 1736 c 1,20,21
 312 1753 312 1753 348 1750 c 0,22,23
 414 1746 414 1746 463 1697 c 128,-1,24
 512 1648 512 1648 510 1549 c 1,25,26
 504 1481 504 1481 452.5 1428.5 c 128,-1,27
 401 1376 401 1376 291 1361 c 1,28,29
 162 1363 162 1363 108 1437 c 128,-1,30
 54 1511 54 1511 53 1600 c 0,31,32
 51 1704 51 1704 93.5 1791 c 128,-1,33
 136 1878 136 1878 208 1939 c 1,34,35
 316 2011 316 2011 393 2031 c 128,-1,36
 470 2051 470 2051 560 2052 c 1,37,-1
 566 2052 l 2,38,39
 654 2052 654 2052 777 2022 c 0,40,41
 903 1991 903 1991 983.5 1892 c 128,-1,42
 1064 1793 1064 1793 1083.5 1715.5 c 128,-1,43
 1103 1638 1103 1638 1101.5 1490.5 c 128,-1,44
 1100 1343 1100 1343 983.5 1146 c 128,-1,45
 867 949 867 949 692.5 796 c 128,-1,46
 518 643 518 643 353.5 543 c 128,-1,47
 189 443 189 443 0 324 c 1,48,-1
 0 369 l 1,0,1
1228 1755 m 0,49,50
 1228 1799 1228 1799 1260 1830 c 128,-1,51
 1292 1861 1292 1861 1345 1861 c 0,52,53
 1393 1861 1393 1861 1422 1826.5 c 128,-1,54
 1451 1792 1451 1792 1451 1747 c 0,55,56
 1451 1703 1451 1703 1418.5 1670.5 c 128,-1,57
 1386 1638 1386 1638 1337 1638 c 0,58,59
 1287 1638 1287 1638 1257.5 1673.5 c 128,-1,60
 1228 1709 1228 1709 1228 1755 c 0,49,50
1228 1337 m 0,61,62
 1228 1381 1228 1381 1260.5 1412.5 c 128,-1,63
 1293 1444 1293 1444 1344 1444 c 0,64,65
 1392 1444 1392 1444 1423 1407 c 0,66,67
 1451 1374 1451 1374 1451 1329 c 0,68,69
 1451 1286 1451 1286 1418.5 1253.5 c 128,-1,70
 1386 1221 1386 1221 1336 1221 c 0,71,72
 1285 1221 1285 1221 1256.5 1255 c 128,-1,73
 1228 1289 1228 1289 1228 1337 c 0,61,62
EndSplineSet
Validated: 33
EndChar

StartChar: C
Encoding: 67 67 38
Width: 1394
Flags: W
LayerCount: 2
Fore
SplineSet
751 44.5 m 128,-1,1
 691 89 691 89 673 113 c 128,-1,2
 655 137 655 137 640 191 c 1,3,4
 630 246 630 246 637.5 291 c 128,-1,5
 645 336 645 336 678.5 378 c 128,-1,6
 712 420 712 420 819 418 c 1,7,8
 874 404 874 404 908.5 367 c 128,-1,9
 943 330 943 330 949 257 c 1,10,11
 933 181 933 181 892 159.5 c 128,-1,12
 851 138 851 138 777 134 c 1,13,14
 788 87 788 87 855 79.5 c 128,-1,15
 922 72 922 72 983.5 95 c 128,-1,16
 1045 118 1045 118 1098 208 c 1,17,18
 1129 320 1129 320 1126.5 454 c 128,-1,19
 1124 588 1124 588 1116 636 c 1,20,21
 1096 734 1096 734 1035 774 c 128,-1,22
 974 814 974 814 896 800 c 1,23,24
 788 760 788 760 732 653 c 1,25,26
 640 879 640 879 463 995 c 1,27,-1
 463 10 l 1,28,-1
 358 10 l 1,29,-1
 359 2045 l 1,30,-1
 462 2045 l 1,31,-1
 463 1047 l 1,32,33
 635 1136 635 1136 733 1407 c 1,34,35
 786 1273 786 1273 881 1240 c 1,36,37
 988 1210 988 1210 1043.5 1255 c 128,-1,38
 1099 1300 1099 1300 1110 1407 c 1,39,40
 1120 1566 1120 1566 1118 1638.5 c 128,-1,41
 1116 1711 1116 1711 1099 1809 c 1,42,43
 1085 1869 1085 1869 1050 1912 c 128,-1,44
 1015 1955 1015 1955 944 1970 c 128,-1,45
 873 1985 873 1985 827 1964 c 128,-1,46
 781 1943 781 1943 779 1917 c 1,47,48
 853 1912 853 1912 887.5 1889.5 c 128,-1,49
 922 1867 922 1867 945 1792 c 1,50,51
 946 1718 946 1718 909.5 1679 c 128,-1,52
 873 1640 873 1640 828 1636 c 1,53,54
 700 1615 700 1615 644 1725 c 1,55,56
 598 1839 598 1839 692 1942 c 1,57,58
 728 1994 728 1994 789 2017 c 0,59,60
 879 2050 879 2050 974 2048 c 1,61,62
 1340 2009 1340 2009 1393 1635 c 1,63,-1
 1393 1631 l 2,64,65
 1393 1343 1393 1343 1241 1226 c 0,66,67
 1088 1108 1088 1108 962 1116 c 0,68,69
 866 1123 866 1123 775 1203 c 1,70,71
 732 1075 732 1075 680 1023 c 1,72,73
 727 969 727 969 771 846 c 1,74,75
 869 923 869 923 964 921 c 1,76,77
 1088 940 1088 940 1241 827 c 1,78,79
 1392 714 1392 714 1392 424 c 2,80,-1
 1392 416 l 1,81,82
 1348 31 1348 31 978 1 c 1,83,0
 811 0 811 0 751 44.5 c 128,-1,1
0 0 m 1,84,-1
 0 2050 l 1,85,-1
 257 2050 l 1,86,-1
 257 0 l 1,87,-1
 0 0 l 1,84,-1
EndSplineSet
Validated: 33
EndChar

StartChar: D
Encoding: 68 68 39
Width: 1454
Flags: W
LayerCount: 2
Fore
SplineSet
710.75 2655.71 m 1,0,-1
 748.97 2655.71 l 1,1,2
 881.27 2637.14 881.27 2637.14 881.27 2550.83 c 0,3,4
 881.27 2502.66 881.27 2502.66 825.41 2439.94 c 1,5,-1
 825.41 2436.92 l 1,6,7
 901.85 2383.23 901.85 2383.23 901.85 2316.99 c 0,8,9
 901.85 2228.18 901.85 2228.18 787.189 2188.03 c 1,10,11
 755.83 2179 755.83 2179 734.27 2179 c 2,12,-1
 716.63 2179 l 1,13,14
 551.99 2201.08 551.99 2201.08 551.99 2313.98 c 0,15,16
 551.99 2359.15 551.99 2359.15 619.61 2421.87 c 1,17,-1
 619.61 2427.89 l 1,18,19
 566.689 2478.07 566.689 2478.07 566.689 2529.76 c 0,20,21
 566.689 2632.63 566.689 2632.63 710.75 2655.71 c 1,0,-1
  Spiro
    710.75 2655.71 v
    748.97 2655.71 v
    848.195 2620.21 o
    881.27 2550.83 o
    867.305 2499.02 o
    825.41 2439.94 v
    825.41 2436.92 v
    882.74 2380.1 o
    901.85 2316.99 o
    873.185 2240.34 o
    787.19 2188.03 v
    758.28 2181.26 o
    734.27 2179 [
    716.63 2179 v
    593.15 2223.78 o
    551.99 2313.98 o
    568.895 2363.54 o
    619.61 2421.87 v
    619.61 2427.89 v
    579.92 2478.45 o
    566.69 2529.76 o
    602.705 2612.68 o
    0 0 z
  EndSpiro
660.77 2571.91 m 2,22,-1
 660.77 2562.88 l 2,23,24
 660.77 2520.22 660.77 2520.22 760.73 2476.06 c 1,25,-1
 787.189 2458 l 1,26,-1
 796.01 2458 l 1,27,28
 840.11 2501.66 840.11 2501.66 840.11 2538.79 c 2,29,-1
 840.11 2559.87 l 2,30,31
 840.11 2610.55 840.11 2610.55 763.67 2631.62 c 1,32,-1
 725.45 2634.63 l 1,33,-1
 722.51 2634.63 l 1,34,35
 660.77 2619.58 660.77 2619.58 660.77 2571.91 c 2,22,-1
  Spiro
    660.77 2571.91 [
    660.77 2562.88 ]
    685.76 2519.85 o
    760.73 2476.06 v
    787.19 2458 v
    796.01 2458 v
    829.085 2500.03 o
    840.11 2538.79 [
    840.11 2559.87 ]
    821 2603.15 o
    763.67 2631.62 v
    725.45 2634.63 v
    722.51 2634.63 v
    676.205 2611.43 o
    0 0 z
  EndSpiro
593.15 2310.97 m 2,36,37
 593.15 2239.21 593.15 2239.21 675.47 2209.11 c 1,38,-1
 698.99 2203.08 l 1,39,-1
 737.21 2203.08 l 2,40,41
 792.09 2203.08 792.09 2203.08 804.83 2274.84 c 1,42,-1
 804.83 2283.88 l 2,43,44
 804.83 2334.56 804.83 2334.56 690.17 2385.74 c 1,45,46
 664.689 2406.82 664.689 2406.82 651.95 2406.82 c 0,47,48
 628.92 2406.82 628.92 2406.82 593.15 2329.04 c 1,49,-1
 593.15 2310.97 l 2,36,37
  Spiro
    593.15 2310.97 ]
    613.73 2249.63 o
    675.47 2209.11 v
    698.99 2203.09 v
    737.21 2203.09 ]
    781.555 2221.02 o
    804.83 2274.84 v
    804.83 2283.88 ]
    776.165 2334.68 o
    690.17 2385.74 v
    667.875 2401.55 o
    651.95 2406.82 o
    625.735 2387.37 o
    593.15 2329.04 v
    0 0 z
  EndSpiro
0 369 m 1,50,51
 324 613 324 613 447.5 738 c 128,-1,52
 571 863 571 863 662 980.5 c 128,-1,53
 753 1098 753 1098 788.5 1199 c 128,-1,54
 824 1300 824 1300 842.5 1443 c 128,-1,55
 861 1586 861 1586 840 1676 c 128,-1,56
 819 1766 819 1766 779.5 1834.5 c 128,-1,57
 740 1903 740 1903 682.5 1936 c 128,-1,58
 625 1969 625 1969 506 1982 c 1,59,60
 410 1977 410 1977 340 1949 c 128,-1,61
 270 1921 270 1921 244 1891.5 c 128,-1,62
 218 1862 218 1862 204 1837.5 c 128,-1,63
 190 1813 190 1813 183.5 1797.5 c 128,-1,64
 177 1782 177 1782 181 1752 c 1,65,66
 194 1711 194 1711 225 1711 c 1,67,68
 239 1726 239 1726 261 1736 c 1,69,70
 312 1753 312 1753 363 1749.5 c 128,-1,71
 414 1746 414 1746 463 1697 c 128,-1,72
 512 1648 512 1648 510 1549 c 1,73,74
 504 1481 504 1481 452.5 1428.5 c 128,-1,75
 401 1376 401 1376 291 1361 c 1,76,77
 162 1363 162 1363 108 1437 c 128,-1,78
 54 1511 54 1511 52.5 1607.5 c 128,-1,79
 51 1704 51 1704 93.5 1791 c 128,-1,80
 136 1878 136 1878 208 1939 c 1,81,82
 316 2011 316 2011 393 2031 c 128,-1,83
 470 2051 470 2051 560 2052 c 1,84,-1
 566 2052 l 2,85,86
 654 2052 654 2052 778.5 2021.5 c 128,-1,87
 903 1991 903 1991 983.5 1892 c 128,-1,88
 1064 1793 1064 1793 1083.5 1715.5 c 128,-1,89
 1103 1638 1103 1638 1101.5 1490.5 c 128,-1,90
 1100 1343 1100 1343 983.5 1146 c 128,-1,91
 867 949 867 949 692.5 796 c 128,-1,92
 518 643 518 643 353.5 543 c 1,93,-1
 0 324 l 1,94,-1
 0 369 l 1,50,51
1228 1755 m 0,95,96
 1228 1799 1228 1799 1260 1830 c 128,-1,97
 1292 1861 1292 1861 1345 1861 c 0,98,99
 1393 1861 1393 1861 1422 1826.5 c 128,-1,100
 1451 1792 1451 1792 1451 1747 c 0,101,102
 1451 1703 1451 1703 1418.5 1670.5 c 128,-1,103
 1386 1638 1386 1638 1337 1638 c 0,104,105
 1287 1638 1287 1638 1257.5 1673.5 c 128,-1,106
 1228 1709 1228 1709 1228 1755 c 0,95,96
1228 1337 m 0,107,108
 1228 1381 1228 1381 1260.5 1412.5 c 128,-1,109
 1293 1444 1293 1444 1344 1444 c 0,110,111
 1392 1444 1392 1444 1423 1407 c 0,112,113
 1451 1374 1451 1374 1451 1329 c 0,114,115
 1451 1286 1451 1286 1418.5 1253.5 c 128,-1,116
 1386 1221 1386 1221 1336 1221 c 0,117,118
 1285 1221 1285 1221 1256.5 1255 c 128,-1,119
 1228 1289 1228 1289 1228 1337 c 0,107,108
EndSplineSet
Validated: 33
EndChar

StartChar: E
Encoding: 69 69 40
Width: 1454
Flags: W
LayerCount: 2
Fore
SplineSet
650.75 555.71 m 5,0,-1
 688.97 555.71 l 5,1,2
 821.27 537.143 821.27 537.143 821.27 450.833 c 4,3,4
 821.27 402.66 821.27 402.66 765.41 339.936 c 5,5,-1
 765.41 336.925 l 5,6,7
 841.85 283.231 841.85 283.231 841.85 216.994 c 4,8,9
 841.85 128.176 841.85 128.176 727.189 88.0312 c 5,10,11
 695.83 79 695.83 79 674.27 79 c 6,12,-1
 656.63 79 l 5,13,14
 491.99 101.078 491.99 101.078 491.99 213.983 c 4,15,16
 491.99 259.146 491.99 259.146 559.61 321.87 c 5,17,-1
 559.61 327.892 l 5,18,19
 506.689 378.072 506.689 378.072 506.689 429.757 c 4,20,21
 506.689 532.627 506.689 532.627 650.75 555.71 c 5,0,-1
  Spiro
    650.75 555.71 v
    688.97 555.71 v
    788.195 520.207 o
    821.27 450.833 o
    807.305 399.022 o
    765.41 339.935 v
    765.41 336.925 v
    822.74 280.096 o
    841.85 216.995 o
    813.185 140.344 o
    727.19 88.0316 v
    698.28 81.2577 o
    674.27 78.9997 [
    656.63 78.9997 v
    533.15 123.785 o
    491.99 213.983 o
    508.895 263.536 o
    559.61 321.87 v
    559.61 327.892 v
    519.92 378.448 o
    506.69 429.757 o
    542.705 512.68 o
    0 0 z
  EndSpiro
600.77 471.908 m 6,22,-1
 600.77 462.877 l 6,23,24
 600.77 420.223 600.77 420.223 700.73 376.064 c 5,25,-1
 727.189 358 l 5,26,-1
 736.01 358 l 5,27,28
 780.11 401.656 780.11 401.656 780.11 438.79 c 6,29,-1
 780.11 459.865 l 6,30,31
 780.11 510.547 780.11 510.547 703.67 531.623 c 5,32,-1
 665.45 534.633 l 5,33,-1
 662.51 534.633 l 5,34,35
 600.77 519.58 600.77 519.58 600.77 471.908 c 6,22,-1
  Spiro
    600.77 471.908 [
    600.77 462.876 ]
    625.76 419.847 o
    700.73 376.065 v
    727.19 358 v
    736.01 358 v
    769.085 400.026 o
    780.11 438.79 [
    780.11 459.865 ]
    761 503.145 o
    703.67 531.623 v
    665.45 534.633 v
    662.51 534.633 v
    616.205 511.425 o
    0 0 z
  EndSpiro
533.15 210.973 m 6,36,37
 533.15 139.215 533.15 139.215 615.47 109.107 c 5,38,-1
 638.99 103.085 l 5,39,-1
 677.21 103.085 l 6,40,41
 732.09 103.085 732.09 103.085 744.83 174.844 c 5,42,-1
 744.83 183.875 l 6,43,44
 744.83 234.557 744.83 234.557 630.17 285.74 c 5,45,46
 604.689 306.816 604.689 306.816 591.95 306.816 c 4,47,48
 568.92 306.816 568.92 306.816 533.15 229.037 c 5,49,-1
 533.15 210.973 l 6,36,37
  Spiro
    533.15 210.973 ]
    553.73 149.628 o
    615.47 109.107 v
    638.99 103.085 v
    677.21 103.085 ]
    721.555 121.025 o
    744.83 174.843 v
    744.83 183.875 ]
    716.165 234.682 o
    630.17 285.74 v
    607.875 301.547 o
    591.95 306.817 o
    565.735 287.372 o
    533.15 229.037 v
    0 0 z
  EndSpiro
0 369 m 1,50,51
 324 613 324 613 447.5 738 c 128,-1,52
 571 863 571 863 662 980.5 c 128,-1,53
 753 1098 753 1098 788.5 1199 c 128,-1,54
 824 1300 824 1300 842.5 1443 c 128,-1,55
 861 1586 861 1586 840 1676 c 128,-1,56
 819 1766 819 1766 779.5 1834.5 c 128,-1,57
 740 1903 740 1903 682.5 1936 c 128,-1,58
 625 1969 625 1969 506 1982 c 1,59,60
 410 1977 410 1977 340 1949 c 128,-1,61
 270 1921 270 1921 244 1891.5 c 128,-1,62
 218 1862 218 1862 204 1837.5 c 128,-1,63
 190 1813 190 1813 183.5 1797.5 c 128,-1,64
 177 1782 177 1782 181 1752 c 1,65,66
 194 1711 194 1711 225 1711 c 1,67,68
 239 1726 239 1726 261 1736 c 1,69,70
 312 1753 312 1753 363 1749.5 c 128,-1,71
 414 1746 414 1746 463 1697 c 128,-1,72
 512 1648 512 1648 510 1549 c 1,73,74
 504 1481 504 1481 452.5 1428.5 c 128,-1,75
 401 1376 401 1376 291 1361 c 1,76,77
 162 1363 162 1363 108 1437 c 128,-1,78
 54 1511 54 1511 52.5 1607.5 c 128,-1,79
 51 1704 51 1704 93.5 1791 c 128,-1,80
 136 1878 136 1878 208 1939 c 1,81,82
 316 2011 316 2011 393 2031 c 128,-1,83
 470 2051 470 2051 560 2052 c 1,84,-1
 566 2052 l 2,85,86
 654 2052 654 2052 778.5 2021.5 c 128,-1,87
 903 1991 903 1991 983.5 1892 c 128,-1,88
 1064 1793 1064 1793 1083.5 1715.5 c 128,-1,89
 1103 1638 1103 1638 1101.5 1490.5 c 128,-1,90
 1100 1343 1100 1343 983.5 1146 c 128,-1,91
 867 949 867 949 692.5 796 c 128,-1,92
 518 643 518 643 353.5 543 c 1,93,-1
 0 324 l 1,94,-1
 0 369 l 1,50,51
1228 1755 m 0,95,96
 1228 1799 1228 1799 1260 1830 c 128,-1,97
 1292 1861 1292 1861 1345 1861 c 0,98,99
 1393 1861 1393 1861 1422 1826.5 c 128,-1,100
 1451 1792 1451 1792 1451 1747 c 0,101,102
 1451 1703 1451 1703 1418.5 1670.5 c 128,-1,103
 1386 1638 1386 1638 1337 1638 c 0,104,105
 1287 1638 1287 1638 1257.5 1673.5 c 128,-1,106
 1228 1709 1228 1709 1228 1755 c 0,95,96
1228 1337 m 0,107,108
 1228 1381 1228 1381 1260.5 1412.5 c 128,-1,109
 1293 1444 1293 1444 1344 1444 c 0,110,111
 1392 1444 1392 1444 1423 1407 c 0,112,113
 1451 1374 1451 1374 1451 1329 c 0,114,115
 1451 1286 1451 1286 1418.5 1253.5 c 128,-1,116
 1386 1221 1386 1221 1336 1221 c 0,117,118
 1285 1221 1285 1221 1256.5 1255 c 128,-1,119
 1228 1289 1228 1289 1228 1337 c 0,107,108
EndSplineSet
Validated: 33
EndChar

StartChar: F
Encoding: 70 70 41
Width: 1454
Flags: W
LayerCount: 2
Fore
SplineSet
773 791 m 1,0,-1
 860 76 l 1,1,2
 982 134 982 134 1037 230 c 128,-1,3
 1092 326 1092 326 1085 433 c 1,4,5
 1083 598 1083 598 1051.5 652 c 128,-1,6
 1020 706 1020 706 988 735.5 c 128,-1,7
 956 765 956 765 885 784 c 1,8,9
 826 792 826 792 773 791 c 1,0,-1
632 1659 m 1,10,11
 765 1786 765 1786 833 1866 c 1,12,13
 966 2064 966 2064 974 2159.5 c 128,-1,14
 982 2255 982 2255 970 2349 c 1,15,16
 947 2460 947 2460 922 2471 c 1,17,18
 742 2379 742 2379 667 2209 c 0,19,20
 604 2066 604 2066 604 1929 c 0,21,22
 604 1862 604 1862 610 1798.5 c 128,-1,23
 616 1735 616 1735 632 1659 c 1,10,11
695 1355 m 1,24,25
 731 1090 731 1090 739 1013 c 1,26,27
 804 1005 804 1005 817 1003 c 0,28,29
 1003 987 1003 987 1128 841 c 1,30,31
 1243 693 1243 693 1243 487 c 0,32,33
 1243 330 1243 330 1146 206 c 0,34,35
 1057 93 1057 93 875 14 c 1,36,-1
 924 -436 l 1,37,38
 927 -578 927 -578 903 -639 c 128,-1,39
 879 -700 879 -700 850 -732.5 c 128,-1,40
 821 -765 821 -765 756.5 -803.5 c 128,-1,41
 692 -842 692 -842 608 -852 c 0,42,43
 592 -853 592 -853 576 -853 c 0,44,45
 458 -853 458 -853 360 -775 c 1,46,47
 246 -677 246 -677 237 -569 c 0,48,49
 228 -448 228 -448 288.5 -383.5 c 128,-1,50
 349 -319 349 -319 436 -311 c 1,51,52
 547 -307 547 -307 602 -374 c 128,-1,53
 657 -441 657 -441 648 -525 c 1,54,55
 648 -598 648 -598 571 -658 c 1,56,57
 476 -698 476 -698 411 -670 c 1,58,59
 378 -689 378 -689 402 -719 c 128,-1,60
 426 -749 426 -749 494 -777 c 0,61,62
 547 -799 547 -799 610 -787 c 1,63,64
 706 -766 706 -766 747.5 -731.5 c 128,-1,65
 789 -697 789 -697 809.5 -672.5 c 128,-1,66
 830 -648 830 -648 844 -596 c 128,-1,67
 858 -544 858 -544 857 -436 c 1,68,-1
 809 -6 l 1,69,70
 792 -14 792 -14 742 -18.5 c 128,-1,71
 692 -23 692 -23 643 -23 c 0,72,73
 378 -23 378 -23 189 185 c 128,-1,74
 0 393 0 393 0 686 c 1,75,76
 14 879 14 879 89 1024 c 1,77,78
 149 1172 149 1172 303 1336 c 1,79,80
 407 1464 407 1464 567 1609 c 1,81,82
 547 1728 547 1728 536.5 1838.5 c 128,-1,83
 526 1949 526 1949 528 2040 c 1,84,85
 528 2192 528 2192 545 2289 c 128,-1,86
 562 2386 562 2386 627 2508.5 c 128,-1,87
 692 2631 692 2631 808 2753 c 1,88,89
 924 2624 924 2624 984 2453 c 128,-1,90
 1044 2282 1044 2282 1044 2087 c 0,91,92
 1044 1882 1044 1882 966 1688 c 1,93,94
 896 1539 896 1539 695 1355 c 1,24,25
796 60 m 1,95,-1
 710 804 l 1,96,97
 623 784 623 784 560 752.5 c 128,-1,98
 497 721 497 721 442 650 c 1,99,100
 399 580 399 580 412.5 471 c 128,-1,101
 426 362 426 362 507 285 c 1,102,103
 565 244 565 244 655 225 c 1,104,-1
 659 198 l 1,105,106
 423 243 423 243 340 389.5 c 128,-1,107
 257 536 257 536 295 681 c 1,108,109
 318 797 318 797 421.5 891.5 c 128,-1,110
 525 986 525 986 679 1004 c 1,111,112
 673 1070 673 1070 635 1307 c 1,113,114
 459 1148 459 1148 366 1043 c 1,115,116
 252 934 252 934 203 822 c 1,117,118
 141 715 141 715 141 567 c 0,119,120
 141 333 141 333 303 186 c 0,121,122
 458 45 458 45 686 45 c 0,123,124
 728 45 728 45 796 60 c 1,95,-1
600.75 -967.29 m 5,125,-1
 638.97 -967.29 l 5,126,127
 771.27 -985.857 771.27 -985.857 771.27 -1072.17 c 4,128,129
 771.27 -1120.34 771.27 -1120.34 715.41 -1183.06 c 5,130,-1
 715.41 -1186.08 l 5,131,132
 791.85 -1239.77 791.85 -1239.77 791.85 -1306.01 c 4,133,134
 791.85 -1394.82 791.85 -1394.82 677.189 -1434.97 c 5,135,136
 645.83 -1444 645.83 -1444 624.27 -1444 c 6,137,-1
 606.63 -1444 l 5,138,139
 441.99 -1421.92 441.99 -1421.92 441.99 -1309.02 c 4,140,141
 441.99 -1263.85 441.99 -1263.85 509.61 -1201.13 c 5,142,-1
 509.61 -1195.11 l 5,143,144
 456.689 -1144.93 456.689 -1144.93 456.689 -1093.24 c 4,145,146
 456.689 -990.373 456.689 -990.373 600.75 -967.29 c 5,125,-1
  Spiro
    600.75 -967.29 v
    638.97 -967.29 v
    738.195 -1002.79 o
    771.27 -1072.17 o
    757.305 -1123.98 o
    715.41 -1183.06 v
    715.41 -1186.08 v
    772.74 -1242.9 o
    791.85 -1306.01 o
    763.185 -1382.66 o
    677.19 -1434.97 v
    648.28 -1441.74 o
    624.27 -1444 [
    606.63 -1444 v
    483.15 -1399.22 o
    441.99 -1309.02 o
    458.895 -1259.46 o
    509.61 -1201.13 v
    509.61 -1195.11 v
    469.92 -1144.55 o
    456.69 -1093.24 o
    492.705 -1010.32 o
    0 0 z
  EndSpiro
550.77 -1051.09 m 6,147,-1
 550.77 -1060.12 l 6,148,149
 550.77 -1102.78 550.77 -1102.78 650.73 -1146.94 c 5,150,-1
 677.189 -1165 l 5,151,-1
 686.01 -1165 l 5,152,153
 730.11 -1121.34 730.11 -1121.34 730.11 -1084.21 c 6,154,-1
 730.11 -1063.13 l 6,155,156
 730.11 -1012.45 730.11 -1012.45 653.67 -991.377 c 5,157,-1
 615.45 -988.367 l 5,158,-1
 612.51 -988.367 l 5,159,160
 550.77 -1003.42 550.77 -1003.42 550.77 -1051.09 c 6,147,-1
  Spiro
    550.77 -1051.09 [
    550.77 -1060.12 ]
    575.76 -1103.15 o
    650.73 -1146.94 v
    677.19 -1165 v
    686.01 -1165 v
    719.085 -1122.97 o
    730.11 -1084.21 [
    730.11 -1063.13 ]
    711 -1019.85 o
    653.67 -991.377 v
    615.45 -988.367 v
    612.51 -988.367 v
    566.205 -1011.57 o
    0 0 z
  EndSpiro
483.15 -1312.03 m 6,161,162
 483.15 -1383.79 483.15 -1383.79 565.47 -1413.89 c 5,163,-1
 588.99 -1419.92 l 5,164,-1
 627.21 -1419.92 l 6,165,166
 682.09 -1419.92 682.09 -1419.92 694.83 -1348.16 c 5,167,-1
 694.83 -1339.12 l 6,168,169
 694.83 -1288.44 694.83 -1288.44 580.17 -1237.26 c 5,170,171
 554.689 -1216.18 554.689 -1216.18 541.95 -1216.18 c 4,172,173
 518.92 -1216.18 518.92 -1216.18 483.15 -1293.96 c 5,174,-1
 483.15 -1312.03 l 6,161,162
  Spiro
    483.15 -1312.03 ]
    503.73 -1373.37 o
    565.47 -1413.89 v
    588.99 -1419.91 v
    627.21 -1419.91 ]
    671.555 -1401.98 o
    694.83 -1348.16 v
    694.83 -1339.12 ]
    666.165 -1288.32 o
    580.17 -1237.26 v
    557.875 -1221.45 o
    541.95 -1216.18 o
    515.735 -1235.63 o
    483.15 -1293.96 v
    0 0 z
  EndSpiro
EndSplineSet
Validated: 33
EndChar

StartChar: G
Encoding: 71 71 42
Width: 600
Flags: W
LayerCount: 2
Fore
SplineSet
0 1924 m 1,0,-1
 600 1924 l 1,1,-1
 600 124 l 1,2,-1
 0 124 l 1,3,-1
 0 1924 l 1,0,-1
138 1593 m 1,4,-1
 138 455 l 1,5,-1
 463 455 l 1,6,-1
 463 1593 l 1,7,-1
 138 1593 l 1,4,-1
EndSplineSet
Validated: 1
EndChar

StartChar: J
Encoding: 74 74 45
Width: 996
Flags: W
LayerCount: 2
Fore
SplineSet
24 367 m 1,0,-1
 42 367 l 2,1,2
 62 367 62 367 78 283 c 1,3,4
 100 265 100 265 120 265 c 2,5,-1
 834 265 l 2,6,7
 886 265 886 265 900 361 c 1,8,-1
 906 367 l 1,9,-1
 930 367 l 1,10,11
 960 352 960 352 960 319 c 2,12,-1
 960 -317 l 1,13,-1
 996 -815 l 1,14,15
 982 -851 982 -851 954 -851 c 0,16,17
 906 -851 906 -851 906 -593 c 1,18,19
 889 -269 889 -269 864 -269 c 1,20,-1
 834 -263 l 1,21,-1
 120 -263 l 2,22,23
 74 -263 74 -263 54 -359 c 1,24,-1
 48 -365 l 1,25,-1
 24 -365 l 1,26,27
 0 -355 0 -355 0 -323 c 2,28,-1
 0 325 l 2,29,30
 0 357 0 357 24 367 c 1,0,-1
72 49 m 1,31,-1
 72 -47 l 1,32,-1
 96 -71 l 1,33,-1
 858 -71 l 1,34,-1
 888 -41 l 1,35,-1
 888 43 l 1,36,-1
 858 73 l 1,37,-1
 96 73 l 1,38,-1
 72 49 l 1,31,-1
EndSplineSet
Validated: 1
EndChar

StartChar: K
Encoding: 16459 16459 46
Width: 960
Flags: W
LayerCount: 2
Fore
SplineSet
24 369 m 1,0,-1
 42 369 l 2,1,2
 62 369 62 369 78 285 c 1,3,4
 100 267 100 267 120 267 c 2,5,-1
 834 267 l 2,6,7
 886 267 886 267 900 363 c 1,8,-1
 906 369 l 1,9,-1
 930 369 l 1,10,11
 960 354 960 354 960 321 c 2,12,-1
 960 -285 l 1,13,14
 956 -369 956 -369 930 -369 c 2,15,-1
 912 -369 l 2,16,17
 894 -369 894 -369 876 -279 c 1,18,19
 854 -261 854 -261 834 -261 c 2,20,-1
 120 -261 l 2,21,22
 74 -261 74 -261 54 -357 c 1,23,-1
 48 -363 l 1,24,-1
 24 -363 l 1,25,26
 0 -353 0 -353 0 -321 c 2,27,-1
 0 327 l 2,28,29
 0 359 0 359 24 369 c 1,0,-1
72 51 m 1,30,-1
 72 -45 l 1,31,-1
 96 -69 l 1,32,-1
 858 -69 l 1,33,-1
 888 -39 l 1,34,-1
 888 45 l 1,35,-1
 858 75 l 1,36,-1
 96 75 l 1,37,-1
 72 51 l 1,30,-1
EndSplineSet
Validated: 1
EndChar

StartChar: L
Encoding: 76 76 47
Width: 676
Flags: W
LayerCount: 2
Fore
SplineSet
61 281 m 0,0,1
 67 284 67 284 72 284 c 0,2,3
 80 284 80 284 88 279 c 0,4,5
 92 276 92 276 217 174 c 1,6,-1
 338 74 l 1,7,-1
 459 174 l 1,8,9
 584 276 584 276 588 279 c 0,10,11
 596 284 596 284 603 284 c 0,12,13
 608 284 608 284 612 281 c 0,14,15
 616 279 616 279 645 258 c 1,16,17
 676 231 676 231 676 217 c 0,18,19
 676 205 676 205 631 166 c 0,20,21
 612 150 612 150 551 100 c 2,22,-1
 430 0 l 1,23,-1
 551 -100 l 1,24,25
 672 -198 672 -198 676 -217 c 1,26,27
 676 -231 676 -231 645 -258 c 1,28,29
 616 -278 616 -278 612 -280 c 256,30,31
 608 -282 608 -282 603 -282 c 0,32,33
 596 -282 596 -282 588 -278 c 0,34,35
 584 -276 584 -276 459 -174 c 1,36,-1
 338 -73 l 1,37,-1
 217 -174 l 1,38,39
 92 -276 92 -276 88 -278 c 0,40,41
 80 -282 80 -282 73 -282 c 0,42,43
 68 -282 68 -282 63 -280 c 0,44,45
 59 -278 59 -278 31 -258 c 1,46,47
 0 -231 0 -231 0 -217 c 0,48,49
 0 -204 0 -204 45 -165 c 0,50,51
 63 -149 63 -149 125 -100 c 1,52,-1
 246 0 l 1,53,-1
 125 100 l 2,54,55
 4 199 4 199 0 217 c 1,56,57
 0 231 0 231 31 258 c 1,58,59
 59 279 59 279 61 281 c 0,0,1
EndSplineSet
Validated: 1
EndChar

StartChar: M
Encoding: 61517 61517 48
Width: 1182
Flags: W
LayerCount: 2
Fore
SplineSet
35 281 m 1,0,-1
 51 283 l 1,1,-1
 53 283 l 2,2,3
 82 283 82 283 98 256 c 1,4,-1
 104 248 l 1,5,-1
 104 166 l 1,6,-1
 106 84 l 1,7,-1
 117 100 l 1,8,9
 184 207 184 207 381 258 c 0,10,11
 393 262 393 262 408 264 c 1,12,13
 500 284 500 284 592 284 c 0,14,15
 683 284 683 284 774 264 c 0,16,17
 973 221 973 221 1055 115 c 0,18,19
 1061 106 1061 106 1065 100 c 2,20,-1
 1077 84 l 1,21,-1
 1077 166 l 1,22,-1
 1079 248 l 1,23,-1
 1083 256 l 1,24,25
 1102 283 1102 283 1128 283 c 2,26,-1
 1135 283 l 1,27,28
 1165 279 1165 279 1180 248 c 0,29,30
 1182 242 1182 242 1182 1 c 0,31,32
 1182 -241 1182 -241 1180 -247 c 0,33,34
 1166 -281 1166 -281 1133 -281 c 0,35,36
 1127 -281 1127 -281 1120 -280 c 0,37,38
 1096 -278 1096 -278 1083 -256 c 1,39,-1
 1079 -245 l 1,40,-1
 1077 -165 l 1,41,-1
 1077 -83 l 1,42,-1
 1065 -100 l 1,43,44
 997 -206 997 -206 801 -258 c 0,45,46
 788 -262 788 -262 774 -264 c 0,47,48
 683 -283 683 -283 592 -283 c 0,49,50
 500 -283 500 -283 408 -264 c 0,51,52
 209 -221 209 -221 127 -114 c 0,53,54
 121 -106 121 -106 117 -100 c 2,55,-1
 106 -83 l 1,56,-1
 104 -165 l 1,57,-1
 104 -245 l 1,58,-1
 98 -256 l 1,59,60
 80 -282 80 -282 54 -282 c 2,61,-1
 47 -282 l 1,62,63
 12 -278 12 -278 2 -245 c 0,64,65
 0 -239 0 -239 0 4 c 1,66,-1
 2 248 l 1,67,-1
 6 256 l 2,68,69
 14 274 14 274 35 281 c 1,0,-1
573 223 m 1,70,71
 530 231 530 231 496 227 c 1,72,73
 438 217 438 217 410 168 c 0,74,75
 365 86 365 86 393 -28 c 0,76,77
 426 -159 426 -159 563 -210 c 0,78,79
 588 -219 588 -219 612 -225 c 1,80,81
 662 -233 662 -233 698 -225 c 1,82,83
 758 -206 758 -206 784 -141 c 1,84,85
 811 -65 811 -65 788 29 c 0,86,87
 756 158 756 158 623 209 c 1,88,89
 598 217 598 217 573 223 c 1,70,71
EndSplineSet
Validated: 33
EndChar

StartChar: N
Encoding: 61518 61518 49
Width: 1010
Flags: W
LayerCount: 2
Fore
SplineSet
436 281 m 0,0,1
 472 284 472 284 508 284 c 0,2,3
 601 284 601 284 688 265 c 0,4,5
 893 220 893 220 981 99 c 0,6,7
 1010 58 1010 58 1010 1 c 256,8,9
 1010 -56 1010 -56 981 -97 c 0,10,11
 903 -212 903 -212 702 -259 c 0,12,13
 694 -261 694 -261 688 -263 c 0,14,15
 597 -282 597 -282 506 -282 c 0,16,17
 414 -282 414 -282 322 -263 c 1,18,19
 117 -218 117 -218 29 -97 c 0,20,21
 0 -56 0 -56 0 1 c 256,22,23
 0 58 0 58 29 99 c 1,24,25
 109 220 109 220 322 265 c 0,26,27
 377 277 377 277 436 281 c 0,0,1
410 228 m 1,29,30
 352 218 352 218 324 169 c 0,31,32
 279 87 279 87 307 -28 c 0,33,34
 340 -159 340 -159 477 -210 c 1,35,36
 502 -218 502 -218 526 -224 c 1,37,38
 575 -232 575 -232 612 -224 c 1,39,40
 672 -206 672 -206 698 -140 c 1,41,42
 725 -64 725 -64 702 29 c 0,43,44
 670 158 670 158 537 210 c 1,45,46
 504 225 504 225 470 229 c 1,47,28
 438 235 438 235 410 228 c 1,29,30
EndSplineSet
Validated: 33
EndChar

StartChar: O
Encoding: 79 79 50
Width: 719
Flags: W
LayerCount: 2
Fore
SplineSet
479 278 m 1,0,-1
 549 280 l 1,1,-1
 551 280 l 1,2,3
 596 278 596 278 611 274 c 0,4,5
 652 262 652 262 674 239 c 0,6,7
 697 216 697 216 709 181 c 1,8,9
 714 159 714 159 714 133 c 256,10,11
 714 107 714 107 709 77 c 1,12,13
 678 -69 678 -69 602 -147 c 1,14,15
 498 -251 498 -251 283 -274 c 0,16,17
 235 -279 235 -279 195 -279 c 0,18,19
 90 -279 90 -279 45 -241 c 1,20,21
 23 -218 23 -218 10 -183 c 1,22,23
 5 -160 5 -160 5 -134 c 256,24,25
 5 -108 5 -108 10 -79 c 1,26,27
 43 69 43 69 117 142 c 0,28,29
 156 181 156 181 215 210 c 0,30,31
 322 264 322 264 479 278 c 1,0,-1
586 214 m 1,32,33
 547 223 547 223 469 184 c 1,34,35
 398 147 398 147 254 50 c 1,36,37
 107 -44 107 -44 80 -93 c 1,38,39
 61 -136 61 -136 78 -173 c 1,40,41
 109 -233 109 -233 182 -214 c 1,42,43
 186 -214 186 -214 193 -212 c 0,44,45
 270 -183 270 -183 465 -52 c 1,46,47
 613 42 613 42 639 91 c 1,48,49
 660 134 660 134 641 171 c 0,50,51
 625 202 625 202 586 214 c 1,32,33
EndSplineSet
Validated: 33
EndChar

StartChar: P
Encoding: 80 80 51
Width: 640
Flags: W
LayerCount: 2
Fore
SplineSet
410 248 m 0,0,1
 468 248 468 248 507 239 c 128,-1,2
 546 230 546 230 576 206 c 1,3,4
 640 163 640 163 640 74 c 0,5,6
 640 11 640 11 603 -46 c 128,-1,7
 566 -103 566 -103 499 -151 c 1,8,9
 438 -196 438 -196 363.5 -222 c 128,-1,10
 289 -248 289 -248 218 -248 c 0,11,12
 124 -248 124 -248 64 -201 c 1,13,14
 0 -149 0 -149 0 -70 c 0,15,16
 0 -13 0 -13 38.5 44.5 c 128,-1,17
 77 102 77 102 140 148.5 c 128,-1,18
 203 195 203 195 274 221.5 c 128,-1,19
 345 248 345 248 410 248 c 0,0,1
EndSplineSet
Validated: 1
EndChar

StartChar: T
Encoding: 84 84 55
Width: 657
Flags: W
LayerCount: 2
Fore
SplineSet
681 967 m 1,0,-1
 722 969 l 1,1,-1
 724 969 l 1,2,3
 771 967 771 967 814 946 c 0,4,5
 896 905 896 905 896 823 c 0,6,7
 896 786 896 786 886 756 c 0,8,9
 867 694 867 694 830 678 c 1,10,11
 775 649 775 649 728 692 c 0,12,13
 712 707 712 707 705 725 c 0,14,15
 693 756 693 756 705 784 c 1,16,17
 710 793 710 793 736 813 c 1,18,19
 775 836 775 836 777 862 c 0,20,21
 779 885 779 885 757 889 c 0,22,23
 748 891 748 891 734 891 c 0,24,25
 658 893 658 893 621 836 c 1,26,27
 587 780 587 780 552 629 c 1,28,29
 544 584 544 584 542 582 c 1,30,31
 542 580 542 580 601 580 c 0,32,33
 662 580 662 580 671 575 c 0,34,35
 703 561 703 561 689 524 c 1,36,37
 687 508 687 508 671 502 c 0,38,39
 662 498 662 498 589 498 c 2,40,-1
 517 498 l 1,41,-1
 464 322 l 2,42,43
 394 92 394 92 353 10 c 0,44,45
 349 4 349 4 345 -6 c 0,46,47
 210 -274 210 -274 50 -339 c 1,48,49
 42 -344 42 -344 34 -346 c 0,50,51
 2 -355 2 -355 -29 -355 c 0,52,53
 -77 -355 -77 -355 -124 -333 c 0,54,55
 -208 -292 -208 -292 -208 -210 c 0,56,57
 -208 -176 -208 -176 -197 -141 c 0,58,59
 -179 -81 -179 -81 -142 -65 c 1,60,61
 -87 -36 -87 -36 -40 -79 c 0,62,63
 -23 -94 -23 -94 -17 -112 c 0,64,65
 -5 -143 -5 -143 -17 -172 c 0,66,67
 -21 -180 -21 -180 -48 -200 c 1,68,69
 -87 -223 -87 -223 -89 -249 c 0,70,71
 -91 -272 -91 -272 -68 -276 c 0,72,73
 -60 -278 -60 -278 -46 -278 c 0,74,75
 -7 -278 -7 -278 15 -268 c 1,76,77
 64 -243 64 -243 93 -153 c 1,78,79
 122 -53 122 -53 181 184 c 2,80,-1
 259 498 l 1,81,-1
 206 498 l 2,82,83
 150 498 150 498 144 502 c 1,84,85
 126 508 126 508 124 524 c 1,86,87
 109 561 109 561 144 575 c 1,88,89
 150 580 150 580 216 580 c 2,90,-1
 281 580 l 1,91,-1
 286 596 l 1,92,93
 322 694 322 694 394 786 c 1,94,95
 445 846 445 846 484 877 c 0,96,97
 576 950 576 950 681 967 c 1,0,-1
EndSplineSet
Validated: 33
EndChar

StartChar: U
Encoding: 85 85 56
Width: 897
Flags: W
LayerCount: 2
Fore
SplineSet
197 610 m 1,0,-1
 227 612 l 1,1,-1
 229 612 l 1,2,3
 252 608 252 608 260 604 c 0,4,5
 295 588 295 588 309 541 c 1,6,-1
 313 524 l 1,7,-1
 332 541 l 1,8,9
 404 612 404 612 474 612 c 2,10,-1
 485 612 l 1,11,12
 545 606 545 606 567 532 c 1,13,-1
 569 520 l 1,14,-1
 584 537 l 1,15,16
 655 611 655 611 723 611 c 0,17,18
 732 611 732 611 741 610 c 0,19,20
 750 610 750 610 756 608 c 0,21,22
 817 592 817 592 844 522 c 0,23,24
 856 492 856 492 854 463 c 1,25,-1
 815 289 l 1,26,27
 776 137 776 137 776 123 c 256,28,29
 776 109 776 109 791 109 c 0,30,31
 815 109 815 109 877 160 c 1,32,33
 905 186 905 186 922 184 c 1,34,35
 939 179 939 179 939 166 c 0,36,37
 939 159 939 159 934 150 c 0,38,39
 920 123 920 123 825 53 c 0,40,41
 817 47 817 47 811 43 c 0,42,43
 722 -14 722 -14 663 -14 c 0,44,45
 643 -14 643 -14 627 -8 c 1,46,47
 614 -2 614 -2 606 6 c 0,48,49
 592 20 592 20 592 51 c 0,50,51
 592 74 592 74 633 246 c 0,52,53
 680 440 680 440 672 461 c 0,54,55
 666 477 666 477 643 477 c 1,56,57
 600 469 600 469 576 428 c 0,58,59
 574 426 574 426 514 229 c 1,60,61
 459 25 459 25 459 33 c 1,62,63
 453 16 453 16 434 6 c 2,64,-1
 426 2 l 1,65,-1
 375 0 l 1,66,67
 315 0 315 0 305 12 c 1,68,69
 301 20 301 20 301 27 c 0,70,71
 301 41 301 41 358 227 c 1,72,73
 414 432 414 432 416 438 c 1,74,75
 420 496 420 496 358 469 c 1,76,77
 326 453 326 453 311 422 c 0,78,79
 305 410 305 410 242 223 c 1,80,81
 178 37 178 37 174 29 c 0,82,83
 164 10 164 10 143 4 c 1,84,85
 123 -6 123 -6 49 0 c 0,86,87
 35 2 35 2 33 4 c 1,88,89
 18 8 18 8 18 27 c 0,90,91
 18 29 18 29 86 227 c 1,92,93
 156 438 156 438 150 461 c 1,94,95
 143 477 143 477 121 477 c 1,96,97
 57 471 57 471 -1 322 c 0,98,99
 -18 279 -18 279 -36 270 c 1,100,101
 -57 258 -57 258 -71 268 c 0,102,103
 -78 274 -78 274 -78 287 c 0,104,105
 -78 302 -78 302 -67 328 c 0,106,107
 -63 336 -63 336 -59 348 c 1,108,109
 23 541 23 541 156 598 c 0,110,111
 176 606 176 606 197 610 c 1,0,-1
EndSplineSet
Validated: 33
EndChar

StartChar: V
Encoding: 86 86 57
Width: 747
Flags: W
LayerCount: 2
Fore
SplineSet
152 596 m 0,0,1
 165 599 165 599 180 599 c 0,2,3
 201 599 201 599 226 592 c 0,4,5
 277 578 277 578 301 526 c 1,6,-1
 314 500 l 1,7,8
 314 487 314 487 322 498 c 1,9,10
 336 514 336 514 381 547 c 0,11,12
 430 582 430 582 480 592 c 0,13,14
 505 598 505 598 531 598 c 256,15,16
 557 598 557 598 584 592 c 0,17,18
 639 580 639 580 680 543 c 1,19,20
 725 496 725 496 740 426 c 0,21,22
 744 408 744 408 744 365 c 0,23,24
 744 293 744 293 721 225 c 1,25,26
 680 111 680 111 563 33 c 0,27,28
 523 6 523 6 484 -6 c 1,29,30
 449 -18 449 -18 404 -18 c 1,31,32
 344 -16 344 -16 285 12 c 1,33,34
 279 16 279 16 250 25 c 1,35,36
 228 25 228 25 221 14 c 1,37,38
 211 6 211 6 160 -161 c 0,39,40
 156 -172 156 -172 156 -174 c 0,41,42
 152 -208 152 -208 191 -229 c 0,43,44
 199 -233 199 -233 246 -241 c 1,45,46
 273 -243 273 -243 271 -270 c 0,47,48
 271 -280 271 -280 262 -288 c 1,49,50
 256 -296 256 -296 232 -296 c 2,51,-1
 217 -296 l 1,52,53
 144 -290 144 -290 8 -290 c 256,54,55
 -128 -290 -128 -290 -202 -296 c 1,56,-1
 -216 -296 l 2,57,58
 -240 -296 -240 -296 -247 -288 c 0,59,60
 -256 -278 -256 -278 -256 -269 c 0,61,62
 -256 -257 -256 -257 -243 -245 c 1,63,64
 -237 -241 -237 -241 -186 -237 c 0,65,66
 -106 -231 -106 -231 -85 -221 c 0,67,68
 -67 -212 -67 -212 -52 -194 c 1,69,-1
 164 442 l 1,70,71
 176 485 176 485 156 496 c 0,72,73
 140 504 140 504 115 489 c 1,74,75
 56 461 56 461 -9 311 c 0,76,77
 -18 291 -18 291 -28 281 c 0,78,79
 -57 252 -57 252 -83 268 c 1,80,81
 -87 272 -87 272 -89 276 c 0,82,83
 -98 293 -98 293 -71 346 c 0,84,85
 -67 356 -67 356 -59 371 c 0,86,87
 37 565 37 565 152 596 c 0,0,1
512 494 m 1,88,89
 488 502 488 502 467 494 c 1,90,91
 377 469 377 469 318 301 c 0,92,93
 303 260 303 260 293 215 c 0,94,95
 271 119 271 119 297 84 c 0,96,97
 328 43 328 43 391 76 c 1,98,99
 420 88 420 88 439 113 c 0,100,101
 488 176 488 176 525 326 c 1,102,103
 551 436 551 436 533 473 c 0,104,105
 527 485 527 485 512 494 c 1,88,89
EndSplineSet
Validated: 33
EndChar

StartChar: W
Encoding: 87 87 58
Width: 448
Flags: W
LayerCount: 2
Fore
SplineSet
445 627 m 0,0,1
 459 629 459 629 473 629 c 0,2,3
 497 629 497 629 521 623 c 0,4,5
 592 604 592 604 594 549 c 1,6,-1
 594 541 l 2,7,8
 594 492 594 492 547 461 c 1,9,10
 543 457 543 457 537 455 c 0,11,12
 525 449 525 449 506 449 c 0,13,14
 461 449 461 449 443 492 c 0,15,16
 441 496 441 496 439 502 c 0,17,18
 428 532 428 532 416 537 c 0,19,20
 377 555 377 555 318 506 c 0,21,22
 295 487 295 487 285 467 c 0,23,24
 283 463 283 463 226 248 c 1,25,26
 175 43 175 43 168 31 c 1,27,28
 160 12 160 12 142 4 c 0,29,30
 134 0 134 0 84 0 c 0,31,32
 29 0 29 0 19 10 c 1,33,34
 13 23 13 23 48 160 c 0,35,36
 58 201 58 201 76 268 c 0,37,38
 136 502 136 502 136 520 c 1,39,40
 138 543 138 543 123 555 c 0,41,42
 109 567 109 567 82 555 c 1,43,44
 37 532 37 532 11 467 c 0,45,46
 9 461 9 461 7 455 c 0,47,48
 -5 424 -5 424 -34 428 c 0,49,50
 -42 430 -42 430 -48 434 c 0,51,52
 -55 438 -55 438 -55 449 c 0,53,54
 -55 459 -55 459 -50 473 c 0,55,56
 -17 567 -17 567 60 604 c 1,57,58
 106 628 106 628 150 628 c 0,59,60
 192 628 192 628 232 606 c 0,61,62
 258 592 258 592 275 567 c 2,63,-1
 283 555 l 1,64,-1
 295 565 l 1,65,66
 363 614 363 614 445 627 c 0,0,1
EndSplineSet
Validated: 33
EndChar

StartChar: X
Encoding: 88 88 59
Width: 423
Flags: W
LayerCount: 2
Fore
SplineSet
313 596 m 1,0,-1
 354 596 l 2,1,2
 401 596 401 596 436 578 c 1,3,4
 502 547 502 547 506 477 c 1,5,-1
 506 467 l 1,6,7
 504 414 504 414 463 401 c 1,8,9
 420 389 420 389 391 422 c 0,10,11
 387 426 387 426 385 430 c 0,12,13
 377 442 377 442 387 461 c 1,14,15
 420 508 420 508 387 539 c 0,16,17
 383 543 383 543 379 545 c 0,18,19
 360 551 360 551 338 545 c 1,20,21
 287 535 287 535 270 481 c 1,22,23
 256 426 256 426 326 385 c 0,24,25
 434 322 434 322 459 268 c 1,26,27
 463 262 463 262 465 256 c 0,28,29
 469 244 469 244 469 215 c 0,30,31
 469 170 469 170 455 139 c 0,32,33
 426 70 426 70 348 29 c 0,34,35
 295 2 295 2 227 2 c 0,36,37
 174 2 174 2 139 20 c 0,38,39
 76 51 76 51 61 113 c 0,40,41
 57 131 57 131 57 146 c 0,42,43
 57 186 57 186 86 213 c 0,44,45
 94 221 94 221 104 225 c 1,46,47
 149 238 149 238 178 197 c 1,48,49
 186 182 186 182 188 168 c 1,50,51
 188 147 188 147 166 131 c 0,52,53
 143 115 143 115 143 100 c 0,54,55
 143 66 143 66 199 57 c 1,56,57
 219 55 219 55 244 59 c 1,58,59
 330 80 330 80 344 139 c 1,60,61
 358 203 358 203 283 258 c 1,62,-1
 240 287 l 1,63,-1
 238 289 l 1,64,65
 170 328 170 328 151 365 c 1,66,-1
 145 379 l 1,67,-1
 145 406 l 2,68,69
 145 438 145 438 149 451 c 0,70,71
 162 489 162 489 182 518 c 1,72,73
 231 584 231 584 313 596 c 1,0,-1
EndSplineSet
Validated: 33
EndChar

StartChar: Y
Encoding: 89 89 60
Width: 585
Flags: W
LayerCount: 2
Fore
SplineSet
184 543 m 1,0,1
 196 544 196 544 207 544 c 0,2,3
 230 544 230 544 252 539 c 1,4,-1
 303 522 l 1,5,6
 360 500 360 500 414 498 c 0,7,8
 475 496 475 496 508 520 c 0,9,10
 516 526 516 526 524 526 c 0,11,12
 549 526 549 526 555 502 c 1,13,14
 557 487 557 487 524 455 c 1,15,16
 494 424 494 424 369 307 c 2,17,-1
 188 137 l 1,18,-1
 199 135 l 1,19,20
 242 135 242 135 322 123 c 0,21,22
 457 104 457 104 483 121 c 1,23,24
 487 125 487 125 494 129 c 1,25,26
 530 160 530 160 516 211 c 1,27,28
 512 236 512 236 516 246 c 1,29,30
 532 270 532 270 557 256 c 1,31,32
 567 248 567 248 580 205 c 1,33,34
 590 166 590 166 590 123 c 1,35,36
 584 16 584 16 485 -34 c 1,37,38
 444 -57 444 -57 397 -59 c 1,39,-1
 393 -59 l 2,40,41
 346 -59 346 -59 268 -18 c 1,42,43
 199 20 199 20 152 23 c 1,44,-1
 127 23 l 1,45,46
 78 25 78 25 61 14 c 1,47,48
 45 0 45 0 31 0 c 1,49,50
 14 4 14 4 8 16 c 0,51,52
 4 22 4 22 4 28 c 0,53,54
 4 36 4 36 10 45 c 0,55,56
 14 51 14 51 195 221 c 1,57,-1
 381 399 l 1,58,-1
 389 408 l 1,59,-1
 369 403 l 1,60,-1
 303 399 l 1,61,-1
 301 399 l 1,62,63
 223 393 223 393 137 377 c 1,64,65
 88 369 88 369 74 377 c 1,66,67
 49 395 49 395 76 453 c 1,68,69
 109 516 109 516 184 543 c 1,0,1
EndSplineSet
Validated: 33
EndChar

StartChar: bracketleft
Encoding: 91 91 62
Width: 730
Flags: W
LayerCount: 2
Fore
SplineSet
0 80 m 1,0,-1
 0 143 l 1,1,-1
 430 143 l 1,2,-1
 430 80 l 1,3,-1
 0 80 l 1,0,-1
0 -49 m 1,4,-1
 430 -49 l 1,5,-1
 430 -113 l 1,6,-1
 0 -113 l 1,7,-1
 0 -49 l 1,4,-1
EndSplineSet
Validated: 1
EndChar

StartChar: bracketright
Encoding: 93 93 64
Width: 1491
Flags: W
LayerCount: 2
Fore
SplineSet
895 635 m 0,0,1
 895 523 895 523 847 391 c 0,2,3
 812 296 812 296 758 203 c 1,4,-1
 731 203 l 1,5,6
 783 321 783 321 801 373 c 0,7,8
 842 494 842 494 842 594 c 0,9,10
 842 659 842 659 818 724.5 c 128,-1,11
 794 790 794 790 750 842 c 1,12,13
 701 905 701 905 633 947 c 0,14,15
 558 993 558 993 492 993 c 1,16,-1
 492 63 l 2,17,18
 492 11 492 11 462.5 -38.5 c 128,-1,19
 433 -88 433 -88 383 -127 c 0,20,21
 338 -163 338 -163 280 -184 c 128,-1,22
 222 -205 222 -205 168 -205 c 0,23,24
 96 -205 96 -205 48 -165.5 c 128,-1,25
 0 -126 0 -126 0 -61 c 0,26,27
 0 -13 0 -13 29 34.5 c 128,-1,28
 58 82 58 82 106.5 120.5 c 128,-1,29
 155 159 155 159 210.5 182 c 128,-1,30
 266 205 266 205 315 205 c 256,31,32
 364 205 364 205 396.5 197.5 c 128,-1,33
 429 190 429 190 451 168 c 1,34,-1
 451 1432 l 1,35,-1
 492 1432 l 1,36,37
 513 1287 513 1287 523 1259 c 0,38,39
 544 1199 544 1199 590 1143 c 0,40,41
 620 1107 620 1107 656 1068 c 0,42,43
 689 1032 689 1032 722 997 c 0,44,45
 760 956 760 956 780 930 c 1,46,47
 833 866 833 866 864 789.5 c 128,-1,48
 895 713 895 713 895 635 c 0,0,1
EndSplineSet
Validated: 1
EndChar

StartChar: asciicircum
Encoding: 94 94 65
Width: 1720
Flags: W
LayerCount: 2
Fore
SplineSet
895 635 m 0,0,1
 895 523 895 523 847 391 c 0,2,3
 812 296 812 296 758 203 c 1,4,-1
 731 203 l 1,5,6
 783 321 783 321 801 373 c 0,7,8
 842 494 842 494 842 594 c 0,9,10
 842 659 842 659 818 724.5 c 128,-1,11
 794 790 794 790 750 842 c 1,12,13
 701 905 701 905 633 947 c 0,14,15
 558 993 558 993 492 993 c 1,16,-1
 492 63 l 2,17,18
 492 11 492 11 462.5 -38.5 c 128,-1,19
 433 -88 433 -88 383 -127 c 0,20,21
 338 -163 338 -163 280 -184 c 128,-1,22
 222 -205 222 -205 168 -205 c 0,23,24
 96 -205 96 -205 48 -165.5 c 128,-1,25
 0 -126 0 -126 0 -61 c 0,26,27
 0 -13 0 -13 29 34.5 c 128,-1,28
 58 82 58 82 106.5 120.5 c 128,-1,29
 155 159 155 159 210.5 182 c 128,-1,30
 266 205 266 205 315 205 c 256,31,32
 364 205 364 205 396.5 197.5 c 128,-1,33
 429 190 429 190 451 168 c 1,34,-1
 451 1432 l 1,35,-1
 492 1432 l 1,36,37
 513 1287 513 1287 523 1259 c 0,38,39
 544 1199 544 1199 590 1143 c 0,40,41
 620 1107 620 1107 656 1068 c 0,42,43
 689 1032 689 1032 722 997 c 0,44,45
 760 956 760 956 780 930 c 1,46,47
 833 866 833 866 864 789.5 c 128,-1,48
 895 713 895 713 895 635 c 0,0,1
979 0 m 256,49,50
 979 -40 979 -40 951 -68 c 128,-1,51
 923 -96 923 -96 883 -96 c 0,52,53
 842 -96 842 -96 814 -68 c 128,-1,54
 786 -40 786 -40 786 0 c 256,55,56
 786 40 786 40 814 68 c 128,-1,57
 842 96 842 96 883 96 c 0,58,59
 923 96 923 96 951 68 c 128,-1,60
 979 40 979 40 979 0 c 256,49,50
EndSplineSet
Validated: 1
EndChar

StartChar: underscore
Encoding: 95 95 66
Width: 781
Flags: W
LayerCount: 2
Fore
SplineSet
481 1403 m 1,0,-1
 481 63 l 2,1,2
 481 11 481 11 452.5 -37 c 128,-1,3
 424 -85 424 -85 376.5 -122 c 128,-1,4
 329 -159 329 -159 273 -180 c 128,-1,5
 217 -201 217 -201 164 -201 c 0,6,7
 134 -201 134 -201 103.5 -190 c 128,-1,8
 73 -179 73 -179 49 -162 c 1,9,10
 0 -122 0 -122 0 -59 c 0,11,12
 0 -10 0 -10 30 39 c 0,13,14
 56 82 56 82 104 123 c 1,15,16
 153 160 153 160 206.5 181.5 c 128,-1,17
 260 203 260 203 307 203 c 0,18,19
 357 203 357 203 388 195.5 c 128,-1,20
 419 188 419 188 442 166 c 1,21,-1
 442 1403 l 1,22,-1
 481 1403 l 1,0,-1
EndSplineSet
Validated: 1
EndChar

StartChar: grave
Encoding: 96 96 67
Width: 1095
Flags: W
LayerCount: 2
Fore
SplineSet
481 63 m 2,0,1
 481 11 481 11 452.5 -37 c 128,-1,2
 424 -85 424 -85 376.5 -122 c 128,-1,3
 329 -159 329 -159 273 -180 c 128,-1,4
 217 -201 217 -201 164 -201 c 0,5,6
 134 -201 134 -201 103.5 -190 c 128,-1,7
 73 -179 73 -179 49 -162 c 1,8,9
 0 -122 0 -122 0 -59 c 0,10,11
 0 -10 0 -10 30 39 c 0,12,13
 56 82 56 82 104 123 c 1,14,15
 153 160 153 160 206.5 181.5 c 128,-1,16
 260 203 260 203 307 203 c 0,17,18
 357 203 357 203 388 195.5 c 128,-1,19
 419 188 419 188 442 166 c 1,20,-1
 442 1403 l 1,21,-1
 481 1403 l 1,22,-1
 481 63 l 2,0,1
795 -4 m 256,23,24
 795 -44 795 -44 767 -72 c 128,-1,25
 739 -100 739 -100 698 -100 c 0,26,27
 658 -100 658 -100 630 -72 c 128,-1,28
 602 -44 602 -44 602 -4 c 256,29,30
 602 36 602 36 630 64 c 128,-1,31
 658 92 658 92 698 92 c 0,32,33
 739 92 739 92 767 64 c 128,-1,34
 795 36 795 36 795 -4 c 256,23,24
EndSplineSet
Validated: 1
EndChar

StartChar: a
Encoding: 97 97 68
Width: 454
Flags: W
LayerCount: 2
Fore
SplineSet
0 2566 m 1,0,1
 17 2502 17 2502 49 2412 c 128,-1,2
 81 2322 81 2322 305 1984 c 1,3,4
 413 1810 413 1810 413 1699 c 2,5,-1
 413 1657 l 2,6,7
 413 1589 413 1589 373 1503 c 1,8,9
 441 1383 441 1383 441 1289 c 0,10,11
 441 1231 441 1231 379 1075 c 1,12,13
 441 963 441 963 441 873 c 0,14,15
 441 815 441 815 379 660 c 1,16,17
 422 609 422 609 441 457 c 1,18,19
 432 363 432 363 366 279 c 1,20,21
 441 88 441 88 441 25 c 1,22,23
 430 -63 430 -63 366 -147 c 1,24,25
 451 -315 451 -315 454 -415 c 1,26,27
 398 -766 398 -766 318 -766 c 0,28,29
 284 -766 284 -766 271 -724 c 1,30,31
 359 -553 359 -553 359 -432 c 2,32,-1
 359 -385 l 2,33,34
 359 -199 359 -199 6 55 c 1,35,-1
 9 0 l 1,36,-1
 -66 1 l 1,37,-1
 -69 2564 l 1,38,-1
 0 2566 l 1,0,1
312 1616 m 1,40,-1
 318 1616 l 1,41,-1
 325 1645 l 1,42,-1
 325 1682 l 2,43,44
 325 1875 325 1875 13 2169 c 1,45,39
 -1 1937 -1 1937 312 1616 c 1,40,-1
318 1177 m 1,47,48
 345 1204 345 1204 345 1295 c 2,49,-1
 345 1308 l 2,50,51
 345 1481 345 1481 13 1746 c 1,52,46
 -1 1517 -1 1517 318 1177 c 1,47,48
312 773 m 1,54,-1
 325 773 l 1,55,-1
 345 843 l 1,56,-1
 345 885 l 2,57,58
 345 1060 345 1060 13 1319 c 1,59,53
 -1 1097 -1 1097 312 773 c 1,54,-1
305 357 m 1,61,-1
 325 357 l 1,62,-1
 345 428 l 1,63,-1
 345 464 l 2,64,65
 345 653 345 653 6 897 c 1,66,60
 -1 671 -1 671 305 357 c 1,61,-1
312 -70 m 1,68,-1
 325 -70 l 1,69,-1
 345 1 l 1,70,-1
 345 30 l 2,71,72
 345 219 345 219 13 476 c 1,73,67
 -1 246 -1 246 312 -70 c 1,68,-1
EndSplineSet
Validated: 33
EndChar

StartChar: b
Encoding: 98 98 69
Width: 427
Flags: W
LayerCount: 2
Fore
SplineSet
4 2317 m 1,0,1
 6 2284 6 2284 13 2225 c 128,-1,2
 20 2166 20 2166 47 2091.5 c 128,-1,3
 74 2017 74 2017 289 1694 c 1,4,5
 389 1521 389 1521 389 1409 c 2,6,-1
 389 1368 l 2,7,8
 389 1299 389 1299 352 1214 c 1,9,10
 414 1095 414 1095 414 1000 c 0,11,12
 414 941 414 941 358 786 c 1,13,14
 414 673 414 673 414 584 c 0,15,16
 414 525 414 525 358 370 c 1,17,18
 398 319 398 319 414 168 c 1,19,20
 406 73 406 73 346 -9 c 1,21,22
 424 -176 424 -176 427 -277 c 1,23,24
 375 -628 375 -628 302 -628 c 0,25,26
 270 -628 270 -628 258 -586 c 1,27,28
 339 -415 339 -415 339 -294 c 2,29,-1
 339 -247 l 2,30,31
 339 -61 339 -61 13 193 c 1,32,-1
 4 -1 l 1,33,-1
 -69 0 l 1,34,-1
 -67 2315 l 1,35,-1
 4 2317 l 1,0,1
7 1879 m 1,36,37
 7 1647 7 1647 295 1327 c 1,38,-1
 302 1327 l 1,39,-1
 308 1357 l 1,40,-1
 308 1392 l 2,41,42
 308 1587 308 1587 20 1879 c 1,43,-1
 7 1879 l 1,36,37
7 1457 m 1,44,-1
 7 1451 l 2,45,46
 7 1227 7 1227 302 887 c 1,47,48
 327 914 327 914 327 1006 c 2,49,-1
 327 1018 l 2,50,51
 327 1192 327 1192 20 1457 c 1,52,-1
 7 1457 l 1,44,-1
7 1030 m 1,53,54
 7 800 7 800 295 483 c 1,55,-1
 308 483 l 1,56,-1
 327 555 l 1,57,-1
 327 584 l 2,58,59
 327 772 327 772 20 1030 c 1,60,-1
 7 1030 l 1,53,54
7 602 m 1,61,62
 7 389 7 389 295 67 c 1,63,-1
 308 67 l 1,64,-1
 327 139 l 1,65,-1
 327 168 l 2,66,67
 327 368 327 368 13 607 c 1,68,-1
 7 602 l 1,61,62
EndSplineSet
Validated: 1
EndChar

StartChar: c
Encoding: 99 99 70
Width: 445
Flags: W
LayerCount: 2
Fore
SplineSet
-69 2048 m 1,0,-1
 1 2048 l 1,1,-1
 1 2023 l 1,2,3
 9 1864 9 1864 138 1653 c 1,4,5
 146 1636 146 1636 195 1561 c 1,6,7
 259 1458 259 1458 285 1411 c 0,8,9
 371 1260 371 1260 392 1133 c 1,10,11
 400 1053 400 1053 390 993 c 1,12,13
 384 944 384 944 365 901 c 2,14,-1
 357 883 l 1,15,-1
 365 864 l 1,16,17
 386 825 386 825 402 766 c 1,18,19
 416 709 416 709 416 653 c 0,20,21
 416 552 416 552 371 451 c 1,22,-1
 359 420 l 1,23,-1
 369 397 l 1,24,25
 398 334 398 334 412 254 c 1,26,27
 418 207 418 207 414 158 c 1,28,29
 406 82 406 82 357 18 c 1,30,-1
 347 4 l 1,31,-1
 361 -26 l 1,32,33
 428 -152 428 -152 428 -289 c 0,34,35
 428 -325 428 -325 423 -362 c 1,36,37
 410 -489 410 -489 351 -618 c 1,38,39
 339 -649 339 -649 322 -659 c 1,40,41
 313 -663 313 -663 304 -663 c 256,42,43
 295 -663 295 -663 285 -659 c 1,44,45
 269 -655 269 -655 259 -634 c 0,46,47
 250 -616 250 -616 263 -591 c 0,48,49
 304 -516 304 -516 322 -432 c 1,50,51
 355 -307 355 -307 337 -215 c 1,52,53
 312 -96 312 -96 189 49 c 1,54,55
 101 141 101 141 42 195 c 1,56,-1
 3 229 l 1,57,-1
 1 115 l 1,58,-1
 1 0 l 1,59,-1
 -69 0 l 1,60,-1
 -69 2048 l 1,0,-1
58 1548 m 0,61,62
 19 1593 19 1593 15 1597 c 2,63,-1
 1 1614 l 1,64,-1
 1 1589 l 2,65,66
 1 1470 1 1470 64 1343 c 1,67,68
 107 1260 107 1260 216 1108 c 1,69,70
 250 1053 250 1053 279 1016 c 1,71,72
 296 989 296 989 300 989 c 1,73,74
 306 991 306 991 310 1051 c 1,75,76
 314 1153 314 1153 250 1278 c 0,77,78
 191 1395 191 1395 58 1548 c 0,61,62
62 1094 m 1,79,80
 7 1143 7 1143 9 1143 c 1,81,-1
 1 1151 l 1,82,-1
 1 1128 l 2,83,84
 1 963 1 963 138 758 c 1,85,-1
 201 666 l 1,86,87
 238 616 238 616 275 561 c 1,88,-1
 304 516 l 1,89,90
 306 516 306 516 312 537 c 0,91,92
 334 612 334 612 328 680 c 1,93,94
 308 856 308 856 62 1094 c 1,79,80
85 612 m 1,95,96
 23 670 23 670 15 678 c 2,97,-1
 1 690 l 1,98,-1
 1 668 l 2,99,100
 1 526 1 526 95 371 c 1,101,102
 130 309 130 309 218 193 c 1,103,104
 271 119 271 119 275 111 c 1,105,106
 298 80 298 80 300 80 c 1,107,-1
 324 139 l 1,108,109
 353 252 353 252 259 401 c 0,110,111
 203 489 203 489 85 612 c 1,95,96
EndSplineSet
Validated: 33
EndChar

StartChar: d
Encoding: 100 100 71
Width: 431
Flags: W
LayerCount: 2
Fore
SplineSet
-69 1536 m 1,0,-1
 1 1536 l 1,1,-1
 1 1511 l 1,2,3
 9 1350 9 1350 142 1139 c 1,4,-1
 201 1044 l 1,5,6
 300 891 300 891 328 829 c 0,7,8
 377 723 377 723 392 633 c 1,9,10
 400 571 400 571 392 504 c 1,11,12
 382 453 382 453 367 420 c 1,13,-1
 359 397 l 1,14,-1
 369 371 l 1,15,16
 400 303 400 303 412 231 c 1,17,18
 420 158 420 158 410 94 c 1,19,20
 396 20 396 20 375 -28 c 1,21,22
 369 -36 369 -36 369 -45 c 1,23,-1
 382 -71 l 1,24,25
 429 -175 429 -175 429 -286 c 2,26,-1
 429 -296 l 1,27,28
 423 -462 423 -462 353 -614 c 0,29,30
 337 -649 337 -649 322 -657 c 0,31,32
 313 -661 313 -661 304 -661 c 256,33,34
 295 -661 295 -661 285 -657 c 1,35,36
 269 -653 269 -653 259 -632 c 0,37,38
 250 -614 250 -614 265 -585 c 0,39,40
 328 -462 328 -462 341 -323 c 1,41,42
 349 -217 349 -217 304 -124 c 1,43,44
 255 -28 255 -28 148 80 c 1,45,-1
 27 190 l 1,46,-1
 3 211 l 1,47,-1
 1 106 l 1,48,-1
 1 0 l 1,49,-1
 -69 0 l 1,50,-1
 -69 1536 l 1,0,-1
33 1065 m 0,51,52
 9 1090 9 1090 5 1098 c 1,53,54
 1 1100 1 1100 1 1094 c 2,55,-1
 1 1073 l 1,56,57
 7 944 7 944 97 793 c 1,58,59
 115 760 115 760 212 625 c 1,60,-1
 283 524 l 1,61,62
 298 498 298 498 302 498 c 1,63,64
 304 500 304 500 310 553 c 1,65,66
 314 662 314 662 240 795 c 0,67,68
 181 903 181 903 33 1065 c 0,51,52
42 618 m 1,69,-1
 5 651 l 1,70,-1
 1 655 l 1,71,-1
 1 639 l 2,72,73
 1 543 1 543 56 428 c 0,74,75
 93 350 93 350 220 176 c 1,76,77
 277 102 277 102 304 63 c 1,78,79
 310 51 310 51 314 57 c 0,80,81
 316 61 316 61 320 84 c 1,82,83
 343 174 343 174 312 268 c 1,84,85
 287 348 287 348 216 438 c 0,86,87
 158 512 158 512 42 618 c 1,69,-1
EndSplineSet
Validated: 33
EndChar

StartChar: e
Encoding: 101 101 72
Width: 435
Flags: W
LayerCount: 2
Fore
SplineSet
-69 1016 m 1,0,-1
 1 1016 l 1,1,-1
 1 992 l 1,2,3
 11 867 11 867 74 748 c 0,4,5
 121 660 121 660 210 535 c 1,6,-1
 283 424 l 1,7,8
 410 226 410 226 416 72 c 0,9,10
 420 -30 420 -30 380 -116 c 0,11,12
 371 -136 371 -136 371 -141 c 0,13,14
 371 -151 371 -151 382 -171 c 1,15,16
 416 -247 416 -247 427 -341 c 0,17,18
 430 -363 430 -363 430 -388 c 0,19,20
 430 -427 430 -427 423 -472 c 1,21,22
 410 -593 410 -593 353 -734 c 1,23,24
 339 -763 339 -763 322 -775 c 1,25,26
 313 -779 313 -779 304 -779 c 256,27,28
 295 -779 295 -779 285 -775 c 1,29,30
 269 -771 269 -771 259 -751 c 0,31,32
 250 -732 250 -732 267 -702 c 1,33,34
 328 -571 328 -571 341 -431 c 1,35,36
 349 -315 349 -315 298 -208 c 1,37,38
 255 -122 255 -122 167 -20 c 1,39,40
 68 86 68 86 15 131 c 1,41,-1
 1 144 l 1,42,-1
 1 -7 l 1,43,-1
 -69 -7 l 1,44,-1
 -69 1016 l 1,0,-1
142 437 m 0,45,46
 117 465 117 465 60 523 c 2,47,-1
 1 582 l 1,48,-1
 1 570 l 2,49,50
 1 533 1 533 11 488 c 1,51,52
 21 424 21 424 64 332 c 1,53,54
 103 258 103 258 220 92 c 1,55,-1
 293 -14 l 1,56,-1
 314 -44 l 1,57,-1
 318 -32 l 1,58,59
 328 8 328 8 328 56 c 0,60,61
 328 97 328 97 326 111 c 0,62,63
 298 258 298 258 142 437 c 0,45,46
EndSplineSet
Validated: 33
EndChar

StartChar: f
Encoding: 102 102 73
Width: 452
Flags: W
LayerCount: 2
Fore
SplineSet
-70 513 m 1,0,-1
 0 513 l 1,1,-1
 0 501 l 2,2,3
 0 417 0 417 34 312 c 0,4,5
 75 187 75 187 206 -21 c 0,6,7
 305 -179 305 -179 340 -250 c 0,8,9
 403 -379 403 -379 419 -482 c 0,10,11
 428 -535 428 -535 428 -594 c 0,12,13
 428 -748 428 -748 366 -936 c 0,14,15
 344 -1004 344 -1004 336 -1012 c 0,16,17
 321 -1027 321 -1027 303 -1027 c 0,18,19
 278 -1027 278 -1027 268 -1012 c 1,20,21
 254 -1002 254 -1002 254 -982 c 0,22,23
 254 -977 254 -977 262 -953 c 1,24,25
 321 -816 321 -816 338 -662 c 0,26,27
 344 -601 344 -601 340 -541 c 1,28,29
 317 -341 317 -341 59 -62 c 0,30,31
 45 -46 45 -46 30 -31 c 2,32,-1
 0 1 l 1,33,-1
 -70 1 l 1,34,-1
 -70 513 l 1,0,-1
EndSplineSet
Validated: 33
EndChar

StartChar: g
Encoding: 103 103 74
Width: 895
Flags: W
LayerCount: 2
Fore
SplineSet
557 715 m 1,0,-1
 619 200 l 1,1,2
 707 242 707 242 746.5 311 c 128,-1,3
 786 380 786 380 781 457 c 1,4,5
 780 576 780 576 757 614.5 c 128,-1,6
 734 653 734 653 711 674.5 c 128,-1,7
 688 696 688 696 637 710 c 1,8,9
 595 715 595 715 557 715 c 1,0,-1
455 1340 m 1,10,11
 551 1431 551 1431 600 1489 c 1,12,13
 696 1631 696 1631 701.5 1700 c 128,-1,14
 707 1769 707 1769 698 1836 c 1,15,16
 682 1916 682 1916 664 1924 c 1,17,18
 534 1858 534 1858 480 1736 c 0,19,20
 435 1633 435 1633 435 1534 c 0,21,22
 435 1486 435 1486 439.5 1440 c 128,-1,23
 444 1394 444 1394 455 1340 c 1,10,11
500 1121 m 1,24,25
 526 930 526 930 532 874 c 1,26,27
 579 869 579 869 588 867 c 1,28,29
 722 856 722 856 812 751 c 1,30,31
 895 644 895 644 895 496 c 0,32,33
 895 383 895 383 825 293 c 0,34,35
 761 212 761 212 630 155 c 1,36,-1
 665 -168 l 1,37,38
 667 -271 667 -271 650 -314.5 c 128,-1,39
 633 -358 633 -358 612 -381.5 c 128,-1,40
 591 -405 591 -405 544.5 -433 c 128,-1,41
 498 -461 498 -461 438 -468 c 0,42,43
 426 -469 426 -469 414 -469 c 0,44,45
 329 -469 329 -469 259 -412 c 1,46,47
 177 -342 177 -342 171 -264 c 0,48,49
 164 -177 164 -177 207.5 -130.5 c 128,-1,50
 251 -84 251 -84 314 -78 c 1,51,52
 394 -75 394 -75 433.5 -123.5 c 128,-1,53
 473 -172 473 -172 467 -232 c 1,54,55
 467 -285 467 -285 411 -328 c 1,56,57
 343 -357 343 -357 296 -337 c 1,58,59
 272 -351 272 -351 289.5 -372.5 c 128,-1,60
 307 -394 307 -394 356 -414 c 0,61,62
 394 -430 394 -430 439 -421 c 0,63,64
 508 -406 508 -406 538 -381 c 128,-1,65
 568 -356 568 -356 583 -338.5 c 128,-1,66
 598 -321 598 -321 608 -283.5 c 128,-1,67
 618 -246 618 -246 617 -168 c 1,68,-1
 582 141 l 1,69,70
 570 135 570 135 534 131.5 c 128,-1,71
 498 128 498 128 463 128 c 0,72,73
 272 128 272 128 136 278 c 128,-1,74
 0 428 0 428 0 639 c 1,75,76
 10 778 10 778 64 882 c 1,77,78
 107 989 107 989 218 1107 c 1,79,80
 293 1199 293 1199 408 1304 c 1,81,82
 394 1389 394 1389 386.5 1468.5 c 128,-1,83
 379 1548 379 1548 380 1614 c 1,84,85
 380 1723 380 1723 392.5 1793 c 128,-1,86
 405 1863 405 1863 451.5 1951 c 128,-1,87
 498 2039 498 2039 582 2127 c 1,88,89
 665 2034 665 2034 708.5 1911 c 128,-1,90
 752 1788 752 1788 752 1648 c 0,91,92
 752 1500 752 1500 696 1360 c 1,93,94
 645 1253 645 1253 500 1121 c 1,24,25
573 188 m 1,95,-1
 511 724 l 1,96,97
 449 710 449 710 403.5 687 c 128,-1,98
 358 664 358 664 318 613 c 1,99,100
 287 563 287 563 297 484.5 c 128,-1,101
 307 406 307 406 365 350 c 1,102,103
 407 321 407 321 472 307 c 1,104,-1
 474 288 l 1,105,106
 305 320 305 320 245 425.5 c 128,-1,107
 185 531 185 531 212 635 c 1,108,109
 229 719 229 719 303.5 787 c 128,-1,110
 378 855 378 855 489 868 c 1,111,112
 485 915 485 915 457 1086 c 1,113,114
 330 972 330 972 264 896 c 1,115,116
 181 818 181 818 146 737 c 1,117,118
 102 660 102 660 102 553 c 0,119,120
 102 385 102 385 218 279 c 0,121,122
 330 177 330 177 494 177 c 0,123,124
 524 177 524 177 573 188 c 1,95,-1
EndSplineSet
Validated: 33
EndChar

StartChar: h
Encoding: 104 104 75
Width: 1103
Flags: W
LayerCount: 2
Fore
SplineSet
0 646 m 1,0,1
 246 832 246 832 340 927 c 128,-1,2
 434 1022 434 1022 503 1111 c 128,-1,3
 572 1200 572 1200 599 1277 c 128,-1,4
 626 1354 626 1354 640 1462.5 c 128,-1,5
 654 1571 654 1571 638 1639.5 c 128,-1,6
 622 1708 622 1708 592 1760 c 128,-1,7
 562 1812 562 1812 518.5 1837 c 128,-1,8
 475 1862 475 1862 385 1872 c 1,9,10
 312 1868 312 1868 258.5 1847 c 128,-1,11
 205 1826 205 1826 180 1798 c 0,12,13
 166 1781 166 1781 155 1762.5 c 128,-1,14
 144 1744 144 1744 139.5 1732 c 128,-1,15
 135 1720 135 1720 138 1697 c 1,16,17
 147 1666 147 1666 171 1666 c 1,18,19
 182 1678 182 1678 198 1685 c 1,20,21
 237 1698 237 1698 264 1696 c 0,22,23
 315 1693 315 1693 352 1655.5 c 128,-1,24
 389 1618 389 1618 388 1543 c 1,25,26
 383 1491 383 1491 344 1451.5 c 128,-1,27
 305 1412 305 1412 221 1400 c 1,28,29
 123 1402 123 1402 82 1458 c 128,-1,30
 41 1514 41 1514 40 1582 c 0,31,32
 39 1661 39 1661 71 1727 c 128,-1,33
 103 1793 103 1793 158 1839 c 1,34,35
 240 1894 240 1894 298.5 1909.5 c 128,-1,36
 357 1925 357 1925 426 1926 c 1,37,-1
 428 1926 l 2,38,39
 496 1926 496 1926 590 1903 c 0,40,41
 686 1879 686 1879 747.5 1803.5 c 128,-1,42
 809 1728 809 1728 823.5 1669.5 c 128,-1,43
 838 1611 838 1611 837 1498.5 c 128,-1,44
 836 1386 836 1386 747.5 1236.5 c 128,-1,45
 659 1087 659 1087 526.5 970.5 c 128,-1,46
 394 854 394 854 269 778 c 128,-1,47
 144 702 144 702 0 612 c 1,48,-1
 0 646 l 1,0,1
933 1700 m 0,49,50
 933 1733 933 1733 957.5 1756.5 c 128,-1,51
 982 1780 982 1780 1022 1780 c 0,52,53
 1059 1780 1059 1780 1081 1754 c 128,-1,54
 1103 1728 1103 1728 1103 1693 c 0,55,56
 1103 1660 1103 1660 1078 1635.5 c 128,-1,57
 1053 1611 1053 1611 1016 1611 c 0,58,59
 978 1611 978 1611 955.5 1638 c 128,-1,60
 933 1665 933 1665 933 1700 c 0,49,50
933 1382 m 0,61,62
 933 1415 933 1415 958 1439 c 128,-1,63
 983 1463 983 1463 1021 1463 c 0,64,65
 1058 1463 1058 1463 1081 1435 c 1,66,67
 1103 1410 1103 1410 1103 1376 c 0,68,69
 1103 1343 1103 1343 1078 1318.5 c 128,-1,70
 1053 1294 1053 1294 1015 1294 c 256,71,72
 977 1294 977 1294 955 1319.5 c 128,-1,73
 933 1345 933 1345 933 1382 c 0,61,62
EndSplineSet
Validated: 33
EndChar

StartChar: i
Encoding: 105 105 76
Width: 1059
Flags: W
LayerCount: 2
Fore
SplineSet
570.5 290 m 128,-1,1
 525 324 525 324 511.5 342 c 128,-1,2
 498 360 498 360 486 401 c 1,3,4
 479 443 479 443 484.5 477 c 128,-1,5
 490 511 490 511 515.5 543 c 128,-1,6
 541 575 541 575 622 574 c 1,7,8
 664 563 664 563 690.5 535 c 128,-1,9
 717 507 717 507 721 451 c 1,10,11
 709 394 709 394 678 377.5 c 128,-1,12
 647 361 647 361 591 358 c 1,13,14
 599 322 599 322 650 316.5 c 128,-1,15
 701 311 701 311 747.5 328.5 c 128,-1,16
 794 346 794 346 834 414 c 1,17,18
 858 499 858 499 856 601 c 128,-1,19
 854 703 854 703 848 739 c 1,20,21
 833 814 833 814 786.5 844.5 c 128,-1,22
 740 875 740 875 681 864 c 1,23,24
 599 834 599 834 556 752 c 1,25,26
 486 924 486 924 352 1012 c 1,27,-1
 352 264 l 1,28,-1
 272 264 l 1,29,-1
 273 1810 l 1,30,-1
 351 1810 l 1,31,-1
 352 1052 l 1,32,33
 483 1119 483 1119 557 1325 c 1,34,35
 597 1223 597 1223 670 1198 c 1,36,37
 751 1176 751 1176 793 1210 c 128,-1,38
 835 1244 835 1244 844 1325 c 1,39,40
 851 1446 851 1446 849.5 1501 c 128,-1,41
 848 1556 848 1556 835 1631 c 1,42,43
 825 1676 825 1676 798 1709 c 128,-1,44
 771 1742 771 1742 717 1753.5 c 128,-1,45
 663 1765 663 1765 628.5 1749 c 128,-1,46
 594 1733 594 1733 592 1713 c 1,47,48
 648 1709 648 1709 674.5 1692 c 128,-1,49
 701 1675 701 1675 718 1618 c 1,50,51
 719 1562 719 1562 691 1532 c 128,-1,52
 663 1502 663 1502 629 1499 c 1,53,54
 532 1483 532 1483 489 1567 c 1,55,56
 454 1654 454 1654 526 1732 c 1,57,58
 553 1771 553 1771 600 1789 c 0,59,60
 668 1814 668 1814 740 1812 c 1,61,62
 1018 1783 1018 1783 1059 1499 c 1,63,64
 1059 1277 1059 1277 943 1187.5 c 128,-1,65
 827 1098 827 1098 731 1104 c 0,66,67
 658 1109 658 1109 589 1170 c 1,68,69
 556 1073 556 1073 517 1033 c 1,70,71
 553 992 553 992 586 899 c 1,72,73
 660 957 660 957 733 956 c 1,74,75
 827 970 827 970 943 884 c 128,-1,76
 1059 798 1059 798 1058 572 c 1,77,78
 1024 280 1024 280 743 257 c 1,79,0
 616 256 616 256 570.5 290 c 128,-1,1
0 256 m 1,80,-1
 0 1814 l 1,81,-1
 195 1814 l 1,82,-1
 195 256 l 1,83,-1
 0 256 l 1,80,-1
EndSplineSet
Validated: 33
EndChar

StartChar: j
Encoding: 106 106 77
Width: 621
Flags: W
LayerCount: 2
Fore
SplineSet
555 2363 m 1,0,-1
 581 2363 l 2,1,2
 621 2363 621 2363 621 2220 c 0,3,4
 621 2177 621 2177 581 2096 c 1,5,-1
 601 1941 l 1,6,-1
 601 1929 l 1,7,-1
 568 1775 l 1,8,9
 597 1671 597 1671 588 1513 c 1,10,-1
 562 1371 l 1,11,12
 588 1252 588 1252 588 1163 c 1,13,14
 580 1094 580 1094 549 1020 c 1,15,16
 588 901 588 901 588 777 c 1,17,18
 566 657 566 657 535 599 c 1,19,-1
 535 391 l 2,20,21
 535 214 535 214 206 -150 c 1,22,23
 48 -351 48 -351 48 -505 c 2,24,-1
 48 -512 l 1,25,-1
 0 -512 l 1,26,-1
 0 2048 l 1,27,-1
 68 2049 l 1,28,-1
 68 1941 l 1,29,30
 529 2029 529 2029 529 2208 c 1,31,-1
 522 2339 l 1,32,-1
 555 2363 l 1,0,-1
55 1543 m 2,33,-1
 55 1519 l 1,34,35
 516 1704 516 1704 516 1935 c 1,36,37
 510 2007 510 2007 502 2007 c 1,38,39
 227 1834 227 1834 107 1721 c 1,40,41
 55 1642 55 1642 55 1543 c 2,33,-1
55 1097 m 1,42,43
 269 1184 269 1184 450 1424 c 1,44,45
 496 1504 496 1504 496 1579 c 2,46,-1
 496 1638 l 1,47,-1
 489 1668 l 1,48,-1
 476 1668 l 1,49,50
 55 1335 55 1335 55 1169 c 2,51,-1
 55 1097 l 1,42,43
61 688 m 1,52,53
 496 930 496 930 496 1169 c 2,54,-1
 496 1228 l 1,55,-1
 489 1258 l 1,56,-1
 476 1258 l 1,57,58
 61 931 61 931 61 770 c 2,59,-1
 61 688 l 1,52,53
61 302 m 1,60,61
 496 544 496 544 496 783 c 2,62,-1
 496 842 l 1,63,-1
 489 872 l 1,64,-1
 476 872 l 1,65,66
 82 543 82 543 77 443 c 1,67,68
 61 409 61 409 61 302 c 1,60,61
55 -113 m 1,69,70
 347 109 347 109 417 272 c 1,71,72
 450 346 450 346 450 456 c 2,73,-1
 450 473 l 1,74,-1
 443 473 l 1,75,76
 55 142 55 142 55 -90 c 2,77,-1
 55 -113 l 1,69,70
EndSplineSet
Validated: 33
EndChar

StartChar: k
Encoding: 107 107 78
Width: 621
Flags: W
LayerCount: 2
Fore
SplineSet
556 2380 m 1,0,-1
 582 2380 l 2,1,2
 621 2380 621 2380 621 2238 c 0,3,4
 621 2194 621 2194 582 2112 c 1,5,-1
 602 1958 l 1,6,-1
 602 1946 l 1,7,-1
 569 1792 l 1,8,-1
 589 1578 l 1,9,-1
 589 1536 l 1,10,-1
 563 1394 l 1,11,12
 589 1275 589 1275 589 1186 c 1,13,14
 567 1066 567 1066 537 1008 c 1,15,-1
 537 800 l 2,16,17
 537 623 537 623 213 259 c 1,18,19
 57 58 57 58 57 -98 c 1,20,-1
 51 -103 l 1,21,-1
 1 -103 l 1,22,-1
 0 2204 l 1,23,-1
 66 2205 l 1,24,-1
 65 1955 l 1,25,26
 530 2045 530 2045 530 2226 c 1,27,-1
 524 2357 l 1,28,-1
 556 2380 l 1,0,-1
64 1560 m 2,29,-1
 64 1536 l 1,30,31
 517 1722 517 1722 517 1952 c 1,32,33
 512 2023 512 2023 504 2023 c 1,34,35
 233 1852 233 1852 116 1738 c 1,36,37
 64 1658 64 1658 64 1560 c 2,29,-1
64 1115 m 1,38,39
 274 1200 274 1200 453 1441 c 1,40,41
 498 1522 498 1522 498 1595 c 2,42,-1
 498 1655 l 1,43,-1
 491 1684 l 1,44,-1
 478 1684 l 1,45,46
 64 1352 64 1352 64 1186 c 2,47,-1
 64 1115 l 1,38,39
64 711 m 1,48,-1
 70 711 l 1,49,50
 498 953 498 953 498 1192 c 2,51,-1
 498 1251 l 1,52,-1
 491 1281 l 1,53,-1
 478 1281 l 1,54,55
 77 955 77 955 77 812 c 1,56,57
 66 812 66 812 64 711 c 1,48,-1
64 295 m 1,58,-1
 77 295 l 1,59,60
 351 518 351 518 420 681 c 1,61,62
 453 755 453 755 453 865 c 2,63,-1
 453 883 l 1,64,-1
 446 883 l 1,65,66
 64 548 64 548 64 325 c 2,67,-1
 64 295 l 1,58,-1
EndSplineSet
Validated: 1
EndChar

StartChar: l
Encoding: 108 108 79
Width: 627
Flags: W
LayerCount: 2
Fore
SplineSet
553 2247 m 1,0,1
 560 2250 560 2250 569 2250 c 0,2,3
 579 2250 579 2250 590 2247 c 1,4,5
 610 2234 610 2234 612 2212 c 1,6,7
 621 2149 621 2149 621 2104 c 0,8,9
 621 2071 621 2071 616 2048 c 0,10,11
 606 2001 606 2001 590 1974 c 1,12,-1
 580 1954 l 1,13,-1
 586 1935 l 1,14,15
 590 1917 590 1917 594 1888 c 1,16,17
 604 1837 604 1837 604 1790 c 0,18,19
 604 1708 604 1708 573 1642 c 1,20,-1
 565 1620 l 1,21,-1
 571 1585 l 1,22,23
 598 1438 598 1438 584 1343 c 1,24,25
 569 1274 569 1274 545 1221 c 1,26,-1
 535 1202 l 1,27,-1
 537 1169 l 2,28,29
 539 1151 539 1151 539 1049 c 0,30,31
 539 956 539 956 535 932 c 0,32,33
 512 801 512 801 418 662 c 0,34,35
 381 606 381 606 291 489 c 0,36,37
 188 354 188 354 154 291 c 1,38,39
 76 160 76 160 70 29 c 1,40,-1
 70 0 l 1,41,-1
 0 0 l 1,42,-1
 0 2048 l 1,43,-1
 70 2048 l 1,44,-1
 70 1792 l 1,45,-1
 78 1794 l 1,46,47
 313 1833 313 1833 434 1925 c 0,48,49
 510 1982 510 1982 528 2054 c 1,50,51
 541 2097 541 2097 528 2169 c 0,52,53
 520 2212 520 2212 526 2222 c 0,54,55
 537 2243 537 2243 553 2247 c 1,0,1
516 1821 m 1,56,57
 512 1849 512 1849 512 1858 c 1,58,-1
 510 1868 l 1,59,-1
 492 1851 l 1,60,61
 467 1829 467 1829 379 1765 c 1,62,63
 231 1663 231 1663 184 1618 c 0,64,65
 111 1550 111 1550 84 1468 c 0,66,67
 72 1432 72 1432 70 1376 c 1,68,-1
 70 1331 l 1,69,-1
 102 1348 l 1,70,71
 299 1446 299 1446 401 1548 c 1,72,73
 463 1606 463 1606 489 1667 c 1,74,75
 524 1739 524 1739 516 1821 c 1,56,57
498 1485 m 1,76,-1
 494 1509 l 2,77,78
 494 1511 494 1511 479 1495 c 0,79,80
 442 1456 442 1456 336 1352 c 1,81,82
 211 1235 211 1235 168 1182 c 1,83,84
 102 1096 102 1096 80 1006 c 1,85,86
 70 958 70 958 70 907 c 2,87,-1
 70 870 l 1,88,-1
 92 887 l 2,89,90
 96 889 96 889 203 965 c 1,91,92
 479 1180 479 1180 500 1376 c 1,93,94
 504 1430 504 1430 498 1485 c 1,76,-1
453 961 m 1,95,-1
 455 1026 l 1,96,-1
 455 1028 l 2,97,98
 455 1073 455 1073 453 1073 c 1,99,100
 453 1075 453 1075 442 1065 c 1,101,102
 426 1042 426 1042 332 938 c 0,103,104
 246 842 246 842 213 803 c 1,105,106
 100 664 100 664 76 530 c 0,107,108
 74 522 74 522 70 463 c 1,109,-1
 70 420 l 1,110,-1
 76 424 l 1,111,112
 147 487 147 487 205 549 c 1,113,114
 426 776 426 776 453 961 c 1,95,-1
EndSplineSet
Validated: 33
EndChar

StartChar: m
Encoding: 109 109 80
Width: 637
Flags: W
LayerCount: 2
Fore
SplineSet
543 2512 m 1,0,1
 550 2515 550 2515 559 2515 c 256,2,3
 568 2515 568 2515 579 2512 c 1,4,5
 600 2501 600 2501 612 2448 c 0,6,7
 624 2397 624 2397 624 2336 c 0,8,9
 624 2288 624 2288 620 2270 c 1,10,11
 608 2196 608 2196 561 2118 c 1,12,-1
 549 2100 l 1,13,-1
 553 2092 l 1,14,15
 579 2045 579 2045 600 1969 c 1,16,17
 611 1922 611 1922 611 1877 c 0,18,19
 611 1766 611 1766 547 1662 c 2,20,-1
 534 1641 l 1,21,-1
 543 1623 l 2,22,23
 585 1541 585 1541 585 1454 c 0,24,25
 585 1335 585 1335 506 1207 c 1,26,27
 455 1127 455 1127 340 1002 c 1,28,-1
 229 875 l 1,29,30
 88 701 88 701 76 544 c 1,31,-1
 76 521 l 1,32,-1
 6 521 l 1,33,-1
 6 2057 l 1,34,-1
 76 2057 l 1,35,-1
 76 1965 l 1,36,-1
 78 1873 l 1,37,-1
 121 1893 l 1,38,39
 428 2047 428 2047 510 2211 c 0,40,41
 567 2325 567 2325 518 2444 c 1,42,43
 508 2471 508 2471 516 2489 c 0,44,45
 524 2508 524 2508 543 2512 c 1,0,1
496 1982 m 1,46,-1
 485 2009 l 1,47,-1
 481 2015 l 1,48,-1
 453 1985 l 2,49,50
 436 1966 436 1966 346 1880 c 1,51,52
 246 1786 246 1786 205 1741 c 1,53,54
 121 1645 121 1645 90 1552 c 1,55,56
 72 1505 72 1505 70 1440 c 1,57,-1
 70 1403 l 1,58,-1
 102 1419 l 1,59,60
 287 1516 287 1516 397 1620 c 1,61,62
 463 1690 463 1690 487 1745 c 1,63,64
 516 1798 516 1798 518 1853 c 1,65,66
 522 1915 522 1915 496 1982 c 1,46,-1
475 1536 m 0,67,68
 469 1552 469 1552 455 1538 c 2,69,-1
 334 1417 l 1,70,71
 201 1280 201 1280 205 1284 c 1,72,73
 102 1161 102 1161 76 1044 c 0,74,75
 74 1032 74 1032 70 981 c 1,76,-1
 70 942 l 1,77,-1
 106 967 l 1,78,79
 432 1184 432 1184 481 1378 c 0,80,81
 502 1458 502 1458 475 1536 c 0,67,68
EndSplineSet
Validated: 33
EndChar

StartChar: n
Encoding: 110 110 81
Width: 625
Flags: W
LayerCount: 2
Fore
SplineSet
537 2560 m 1,0,1
 545 2563 545 2563 554 2563 c 0,2,3
 562 2563 562 2563 571 2560 c 1,4,5
 590 2550 590 2550 602 2511 c 0,6,7
 616 2464 616 2464 621 2400 c 1,8,-1
 621 2387 l 2,9,10
 621 2269 621 2269 555 2169 c 0,11,12
 540 2145 540 2145 553 2118 c 1,13,14
 588 2036 588 2036 594 1937 c 1,15,16
 596 1835 596 1835 549 1741 c 0,17,18
 500 1642 500 1642 365 1507 c 0,19,20
 227 1368 227 1368 176 1303 c 1,21,22
 102 1204 102 1204 80 1108 c 0,23,24
 70 1067 70 1067 70 1034 c 2,25,-1
 70 1024 l 1,26,-1
 0 1024 l 1,27,-1
 0 2048 l 1,28,-1
 70 2048 l 1,29,-1
 70 1894 l 1,30,-1
 88 1905 l 1,31,32
 301 2017 301 2017 408 2124 c 0,33,34
 586 2302 586 2302 512 2492 c 0,35,36
 502 2519 502 2519 510 2537 c 0,37,38
 518 2556 518 2556 537 2560 c 1,0,1
492 2025 m 1,39,40
 492 2030 492 2030 481 2058 c 1,41,-1
 479 2066 l 1,42,-1
 453 2038 l 1,43,-1
 344 1933 l 2,44,45
 229 1823 229 1823 190 1778 c 1,46,47
 86 1653 86 1653 72 1526 c 0,48,49
 70 1513 70 1513 70 1470 c 2,50,-1
 70 1434 l 1,51,-1
 94 1448 l 2,52,53
 270 1550 270 1550 373 1651 c 1,54,55
 477 1759 477 1759 502 1866 c 0,56,57
 506 1884 506 1884 506 1925 c 0,58,59
 506 1980 506 1980 492 2025 c 1,39,40
EndSplineSet
Validated: 33
EndChar

StartChar: o
Encoding: 111 111 82
Width: 623
Flags: W
LayerCount: 2
Fore
SplineSet
455 3015 m 1,0,1
 463 3019 463 3019 473 3019 c 0,2,3
 494 3019 494 3019 506 3002 c 1,4,5
 522 2982 522 2982 559 2892 c 0,6,7
 614 2755 614 2755 621 2609 c 1,8,-1
 621 2601 l 2,9,10
 621 2472 621 2472 559 2351 c 1,11,12
 510 2253 510 2253 352 2071 c 1,13,14
 238 1937 238 1937 197 1880 c 0,15,16
 123 1780 123 1780 88 1669 c 1,17,18
 70 1604 70 1604 70 1546 c 2,19,-1
 70 1536 l 1,20,-1
 0 1536 l 1,21,-1
 0 2048 l 1,22,-1
 35 2048 l 2,23,24
 70 2048 70 2048 70 2046 c 0,25,26
 74 2036 74 2036 221 2144 c 0,27,28
 250 2165 250 2165 270 2181 c 0,29,30
 526 2382 526 2382 535 2576 c 1,31,32
 541 2761 541 2761 432 2949 c 1,33,34
 420 2972 420 2972 428 2992 c 0,35,36
 436 3011 436 3011 455 3015 c 1,0,1
EndSplineSet
Validated: 33
EndChar

StartChar: q
Encoding: 113 113 84
Width: 0
Flags: W
LayerCount: 2
Fore
SplineSet
0 1791 m 1,0,-1
 0 82 l 1,1,-1
 -69 82 l 1,2,-1
 -69 1791 l 1,3,-1
 0 1791 l 1,0,-1
EndSplineSet
Validated: 1
EndChar

StartChar: r
Encoding: 114 114 85
Width: 69
Flags: W
LayerCount: 2
Fore
SplineSet
69 1709 m 1,0,-1
 69 0 l 1,1,-1
 0 0 l 1,2,-1
 0 1709 l 1,3,-1
 69 1709 l 1,0,-1
EndSplineSet
Validated: 1
EndChar

StartChar: s
Encoding: 115 115 86
Width: 924
Flags: W
LayerCount: 2
Fore
SplineSet
618 2364 m 1,0,1
 719 2364 719 2364 744 2208 c 1,2,3
 756 2178 756 2178 786 2178 c 0,4,5
 829 2178 829 2178 876 2298 c 1,6,-1
 900 2310 l 1,7,8
 924 2301 924 2301 924 2292 c 1,9,10
 684 836 684 836 414 -666 c 1,11,12
 385 -918 385 -918 354 -918 c 1,13,-1
 324 -924 l 1,14,15
 276 -919 276 -919 276 -894 c 1,16,-1
 384 -282 l 1,17,18
 225 -324 225 -324 162 -324 c 1,19,20
 0 -295 0 -295 0 -180 c 2,21,-1
 0 -168 l 1,22,23
 28 -36 28 -36 132 -36 c 0,24,25
 233 -36 233 -36 270 -204 c 1,26,27
 285 -222 285 -222 306 -222 c 2,28,-1
 318 -222 l 1,29,30
 438 -138 438 -138 438 0 c 1,31,-1
 474 192 l 1,32,-1
 468 192 l 1,33,34
 329 156 329 156 264 156 c 1,35,36
 96 175 96 175 96 312 c 2,37,-1
 96 318 l 1,38,39
 124 450 124 450 228 450 c 0,40,41
 330 450 330 450 366 282 c 1,42,43
 381 264 381 264 402 264 c 0,44,45
 448 264 448 264 504 366 c 0,46,47
 516 389 516 389 564 666 c 1,48,-1
 558 672 l 1,49,-1
 552 672 l 1,50,51
 440 636 440 636 384 636 c 2,52,-1
 354 636 l 1,53,54
 192 660 192 660 192 780 c 2,55,-1
 192 792 l 2,56,57
 192 904 192 904 330 924 c 1,58,59
 433 924 433 924 462 756 c 1,60,61
 484 738 484 738 504 738 c 1,62,63
 606 806 606 806 606 906 c 1,64,-1
 654 1146 l 1,65,-1
 642 1146 l 1,66,67
 497 1110 497 1110 450 1110 c 0,68,69
 312 1110 312 1110 288 1278 c 1,70,71
 288 1376 288 1376 420 1404 c 1,72,73
 529 1404 529 1404 558 1236 c 1,74,-1
 582 1218 l 1,75,-1
 588 1218 l 2,76,77
 695 1218 695 1218 738 1620 c 1,78,-1
 732 1620 l 1,79,-1
 726 1626 l 1,80,81
 620 1590 620 1590 558 1590 c 2,82,-1
 552 1590 l 1,83,84
 384 1611 384 1611 384 1746 c 1,85,86
 412 1884 412 1884 522 1884 c 0,87,88
 619 1884 619 1884 660 1710 c 1,89,-1
 678 1698 l 1,90,-1
 690 1698 l 2,91,92
 784 1698 784 1698 834 2106 c 1,93,-1
 828 2106 l 1,94,-1
 822 2112 l 1,95,96
 716 2076 716 2076 654 2076 c 2,97,-1
 648 2076 l 1,98,99
 480 2098 480 2098 480 2226 c 1,100,101
 504 2358 504 2358 612 2358 c 1,102,-1
 618 2364 l 1,0,1
EndSplineSet
Validated: 1
EndChar

StartChar: t
Encoding: 116 116 87
Width: 828
Flags: W
LayerCount: 2
Fore
SplineSet
522 2290 m 1,0,1
 623 2290 623 2290 660 2110 c 1,2,-1
 690 2104 l 1,3,4
 727 2104 727 2104 786 2230 c 1,5,-1
 792 2236 l 1,6,-1
 810 2236 l 1,7,-1
 828 2218 l 1,8,9
 408 -344 408 -344 372 -494 c 1,10,11
 349 -512 349 -512 318 -512 c 1,12,13
 293 -510 293 -510 270 -488 c 1,14,15
 378 33 378 33 378 130 c 1,16,17
 237 88 237 88 180 88 c 2,18,-1
 168 88 l 1,19,20
 0 105 0 105 0 244 c 2,21,-1
 0 250 l 2,22,23
 0 348 0 348 132 376 c 1,24,25
 235 376 235 376 270 208 c 1,26,27
 285 190 285 190 306 190 c 2,28,-1
 318 190 l 1,29,30
 432 273 432 273 432 388 c 1,31,32
 468 527 468 527 468 604 c 1,33,-1
 264 562 l 1,34,35
 96 595 96 595 96 712 c 2,36,-1
 96 724 l 2,37,38
 96 815 96 815 222 856 c 1,39,-1
 228 856 l 2,40,41
 332 856 332 856 366 688 c 1,42,43
 381 670 381 670 402 670 c 2,44,-1
 420 670 l 1,45,46
 534 764 534 764 534 940 c 1,47,48
 558 1012 558 1012 558 1084 c 1,49,-1
 552 1084 l 1,50,51
 424 1042 424 1042 354 1042 c 1,52,53
 192 1071 192 1071 192 1204 c 0,54,55
 192 1312 192 1312 336 1330 c 1,56,57
 431 1330 431 1330 462 1162 c 1,58,59
 484 1144 484 1144 504 1144 c 1,60,61
 612 1224 612 1224 612 1360 c 1,62,63
 648 1507 648 1507 648 1558 c 1,64,-1
 642 1558 l 1,65,66
 510 1522 510 1522 450 1522 c 1,67,68
 288 1551 288 1551 288 1678 c 0,69,70
 288 1781 288 1781 426 1810 c 1,71,72
 532 1810 532 1810 558 1642 c 1,73,-1
 582 1624 l 1,74,-1
 606 1624 l 2,75,76
 650 1624 650 1624 696 1792 c 1,77,-1
 738 2032 l 1,78,-1
 726 2032 l 1,79,80
 604 2002 604 2002 564 2002 c 2,81,-1
 552 2002 l 1,82,83
 384 2021 384 2021 384 2158 c 0,84,85
 384 2257 384 2257 522 2290 c 1,0,1
EndSplineSet
Validated: 1
EndChar

StartChar: u
Encoding: 117 117 88
Width: 792
Flags: W
LayerCount: 2
Fore
SplineSet
480 1872 m 1,0,1
 576 1872 576 1872 612 1704 c 1,2,3
 627 1686 627 1686 648 1686 c 0,4,5
 676 1686 676 1686 756 1818 c 1,6,-1
 768 1818 l 1,7,-1
 768 1824 l 1,8,9
 792 1815 792 1815 792 1806 c 1,10,11
 564 629 564 629 342 -432 c 1,12,13
 319 -450 319 -450 288 -450 c 1,14,15
 263 -448 263 -448 240 -426 c 1,16,17
 372 140 372 140 372 180 c 2,18,-1
 372 186 l 1,19,-1
 366 186 l 1,20,21
 227 150 227 150 162 150 c 1,22,23
 0 179 0 179 0 294 c 1,24,25
 19 438 19 438 132 438 c 0,26,27
 236 438 236 438 270 270 c 1,28,29
 285 252 285 252 306 252 c 2,30,-1
 318 252 l 1,31,32
 444 351 444 351 444 492 c 1,33,34
 452 492 452 492 462 576 c 1,35,36
 472 576 472 576 480 666 c 1,37,-1
 474 666 l 1,38,39
 376 636 376 636 282 624 c 1,40,41
 114 658 114 658 114 768 c 2,42,-1
 114 792 l 2,43,44
 114 881 114 881 246 918 c 1,45,46
 349 918 349 918 384 744 c 1,47,-1
 402 732 l 1,48,-1
 420 732 l 2,49,50
 494 732 494 732 552 948 c 1,51,52
 582 1086 582 1086 582 1140 c 1,53,54
 431 1104 431 1104 390 1104 c 1,55,56
 228 1139 228 1139 228 1248 c 2,57,-1
 228 1266 l 2,58,59
 228 1376 228 1376 372 1392 c 1,60,61
 465 1392 465 1392 498 1224 c 1,62,-1
 522 1206 l 1,63,-1
 540 1206 l 1,64,65
 648 1292 648 1292 648 1404 c 1,66,67
 666 1439 666 1439 696 1620 c 1,68,-1
 690 1620 l 1,69,70
 568 1584 568 1584 516 1584 c 2,71,-1
 510 1584 l 1,72,73
 342 1607 342 1607 342 1728 c 1,74,-1
 336 1734 l 1,75,76
 336 1846 336 1846 480 1872 c 1,0,1
EndSplineSet
Validated: 1
EndChar

StartChar: v
Encoding: 118 118 89
Width: 726
Flags: W
LayerCount: 2
Fore
SplineSet
414 1848 m 1,0,1
 502 1848 502 1848 540 1674 c 1,2,-1
 558 1662 l 1,3,-1
 570 1662 l 2,4,5
 610 1662 610 1662 684 1788 c 1,6,-1
 690 1794 l 1,7,-1
 708 1794 l 1,8,-1
 726 1776 l 1,9,10
 336 87 336 87 306 12 c 1,11,-1
 264 0 l 1,12,13
 216 8 216 8 216 30 c 1,14,-1
 372 642 l 1,15,-1
 366 642 l 1,16,17
 242 606 242 606 192 606 c 2,18,-1
 150 606 l 1,19,20
 0 640 0 640 0 756 c 1,21,22
 34 894 34 894 132 894 c 0,23,24
 236 894 236 894 276 720 c 1,25,-1
 294 708 l 1,26,-1
 324 708 l 1,27,28
 444 804 444 804 444 924 c 1,29,-1
 498 1116 l 1,30,-1
 486 1116 l 1,31,32
 340 1080 340 1080 300 1080 c 1,33,34
 132 1111 132 1111 132 1236 c 1,35,36
 161 1368 161 1368 270 1368 c 0,37,38
 377 1368 377 1368 402 1206 c 1,39,-1
 432 1182 l 1,40,-1
 450 1182 l 1,41,42
 564 1272 564 1272 564 1374 c 1,43,-1
 624 1578 l 1,44,-1
 612 1596 l 1,45,46
 496 1560 496 1560 426 1560 c 1,47,48
 264 1590 264 1590 264 1716 c 0,49,50
 264 1824 264 1824 414 1848 c 1,0,1
EndSplineSet
Validated: 1
EndChar

StartChar: w
Encoding: 119 119 90
Width: 618
Flags: W
LayerCount: 2
Fore
SplineSet
294 1368 m 1,0,1
 389 1368 389 1368 420 1200 c 1,2,3
 442 1182 442 1182 462 1182 c 0,4,5
 486 1182 486 1182 582 1314 c 1,6,-1
 594 1314 l 1,7,-1
 594 1320 l 1,8,-1
 618 1302 l 1,9,10
 300 84 300 84 270 18 c 1,11,-1
 228 0 l 1,12,13
 180 12 180 12 180 24 c 2,14,-1
 180 30 l 1,15,-1
 360 642 l 1,16,-1
 354 642 l 1,17,18
 231 606 231 606 192 606 c 2,19,-1
 162 606 l 1,20,21
 0 625 0 625 0 762 c 1,22,23
 28 888 28 888 126 888 c 1,24,-1
 132 894 l 1,25,26
 235 894 235 894 276 714 c 1,27,-1
 282 708 l 1,28,-1
 324 708 l 1,29,30
 416 759 416 759 480 1020 c 1,31,-1
 504 1110 l 1,32,-1
 504 1116 l 1,33,34
 359 1080 359 1080 312 1080 c 1,35,36
 150 1115 150 1115 150 1224 c 2,37,-1
 150 1242 l 2,38,39
 150 1352 150 1352 294 1368 c 1,0,1
EndSplineSet
Validated: 1
EndChar

StartChar: x
Encoding: 120 120 91
Width: 480
Flags: W
LayerCount: 2
Fore
SplineSet
144 1400 m 1,0,1
 240 1400 240 1400 276 1226 c 1,2,-1
 300 1214 l 1,3,-1
 306 1214 l 2,4,5
 345 1214 345 1214 450 1346 c 1,6,-1
 456 1352 l 1,7,8
 480 1343 480 1343 480 1334 c 1,9,10
 354 868 354 868 240 524 c 1,11,-1
 198 512 l 1,12,13
 144 522 144 522 144 536 c 1,14,-1
 360 1148 l 1,15,-1
 354 1148 l 1,16,17
 209 1112 209 1112 162 1112 c 1,18,19
 0 1145 0 1145 0 1268 c 0,20,21
 0 1379 0 1379 144 1400 c 1,0,1
EndSplineSet
Validated: 1
EndChar

StartChar: y
Encoding: 121 121 92
Width: 510
Flags: W
LayerCount: 2
Fore
SplineSet
168 1705 m 1,0,-1
 180 1705 l 1,1,2
 385 1494 385 1494 510 1309 c 1,3,4
 510 1259 510 1259 318 1093 c 1,5,6
 270 1032 270 1032 270 955 c 0,7,8
 270 852 270 852 444 673 c 1,9,-1
 480 625 l 1,10,-1
 480 607 l 2,11,12
 480 598 480 598 456 589 c 1,13,14
 345 667 345 667 264 667 c 2,15,-1
 234 667 l 2,16,17
 144 667 144 667 144 547 c 0,18,19
 144 435 144 435 198 355 c 1,20,-1
 198 343 l 1,21,-1
 180 343 l 1,22,23
 0 578 0 578 0 721 c 0,24,25
 0 805 0 805 72 805 c 2,26,-1
 90 805 l 2,27,28
 145 805 145 805 282 763 c 1,29,-1
 282 769 l 2,30,31
 282 787 282 787 36 1069 c 1,32,-1
 30 1105 l 1,33,34
 30 1145 30 1145 222 1315 c 1,35,36
 264 1371 264 1371 264 1417 c 2,37,-1
 264 1477 l 2,38,39
 264 1539 264 1539 144 1675 c 1,40,41
 156 1702 156 1702 168 1705 c 1,0,-1
EndSplineSet
Validated: 1
EndChar

StartChar: z
Encoding: 122 122 93
Width: 720
Flags: W
LayerCount: 2
Fore
SplineSet
0 1280 m 1,0,-1
 720 1280 l 1,1,-1
 720 1024 l 1,2,-1
 0 1024 l 1,3,-1
 0 1280 l 1,0,-1
EndSplineSet
Validated: 1
EndChar

StartChar: braceleft
Encoding: 123 123 94
Width: 720
Flags: W
LayerCount: 2
Fore
SplineSet
0 1536 m 1,0,-1
 720 1536 l 1,1,-1
 720 1280 l 1,2,-1
 0 1280 l 1,3,-1
 0 1536 l 1,0,-1
EndSplineSet
Validated: 1
EndChar

StartChar: bar
Encoding: 124 124 95
Width: 307
Flags: W
LayerCount: 2
Fore
SplineSet
6 1530 m 1,0,-1
 12 1536 l 1,1,-1
 297 1536 l 1,2,-1
 301 1530 l 1,3,-1
 307 1526 l 1,4,-1
 307 1036 l 1,5,-1
 301 1030 l 1,6,-1
 295 1024 l 1,7,-1
 154 1024 l 1,8,-1
 10 1026 l 1,9,-1
 6 1030 l 1,10,-1
 2 1034 l 1,11,-1
 0 1280 l 1,12,-1
 0 1524 l 1,13,-1
 6 1530 l 1,0,-1
EndSplineSet
Validated: 1
EndChar

StartChar: braceright
Encoding: 125 125 96
Width: 288
Flags: W
LayerCount: 2
Fore
SplineSet
36 1536 m 2,0,-1
 252 1536 l 2,1,2
 288 1536 288 1536 288 1498 c 2,3,-1
 288 557 l 2,4,5
 288 512 288 512 246 512 c 2,6,-1
 36 512 l 2,7,8
 0 512 0 512 0 550 c 2,9,-1
 0 1498 l 2,10,11
 0 1536 0 1536 36 1536 c 2,0,-1
EndSplineSet
Validated: 1
EndChar

StartChar: Aring
Encoding: 65560 -1 99
Width: 1651
Flags: W
LayerCount: 2
Fore
SplineSet
473 1022 m 0,0,1
 496 1024 496 1024 518 1024 c 0,2,3
 561 1024 561 1024 598 1016 c 0,4,5
 748 987 748 987 821 860 c 0,6,7
 842 823 842 823 852 782 c 0,8,9
 856 764 856 764 856 731 c 0,10,11
 856 688 856 688 842 659 c 0,12,13
 811 596 811 596 745 594 c 1,14,15
 670 600 670 600 592 741 c 0,16,17
 571 780 571 780 575 786 c 0,18,19
 582 797 582 797 598 797 c 1,20,21
 604 793 604 793 610 782 c 0,22,23
 635 739 635 739 680 729 c 1,24,25
 731 713 731 713 756 760 c 0,26,27
 770 786 770 786 764 817 c 0,28,29
 748 905 748 905 651 954 c 1,30,31
 594 985 594 985 530 987 c 1,32,-1
 502 987 l 1,33,-1
 489 958 l 1,34,35
 428 805 428 805 424 770 c 1,36,37
 422 723 422 723 508 625 c 1,38,39
 594 522 594 522 614 485 c 0,40,41
 639 440 639 440 627 410 c 1,42,43
 616 379 616 379 539 281 c 1,44,45
 515 248 515 248 516 245 c 1,46,47
 520 244 520 244 541 240 c 1,48,49
 641 213 641 213 717 158 c 1,50,51
 733 145 733 145 766 168 c 0,52,53
 776 174 776 174 797 190 c 2,54,-1
 836 219 l 1,55,-1
 836 225 l 1,56,57
 834 229 834 229 829 256 c 0,58,59
 807 369 807 369 860 475 c 1,60,61
 887 532 887 532 930 559 c 1,62,63
 1006 610 1006 610 1073 575 c 0,64,65
 1098 561 1098 561 1108 539 c 0,66,67
 1141 473 1141 473 1071 383 c 1,68,69
 1047 348 1047 348 967 276 c 1,70,71
 938 252 938 252 938 250 c 1,72,-1
 971 195 l 1,73,74
 1016 123 1016 123 1036 109 c 1,75,76
 1055 98 1055 98 1106 135 c 0,77,78
 1122 147 1122 147 1151 168 c 0,79,80
 1184 193 1184 193 1190 199 c 2,81,-1
 1198 207 l 1,82,-1
 1194 223 l 1,83,84
 1167 340 1167 340 1235 440 c 0,85,86
 1286 516 1286 516 1364 561 c 1,87,-1
 1384 573 l 1,88,-1
 1372 590 l 1,89,90
 1253 743 1253 743 1092 817 c 1,91,92
 1034 842 1034 842 979 854 c 0,93,94
 948 860 948 860 948 874 c 0,95,96
 948 891 948 891 961 895 c 1,97,98
 971 895 971 895 1044 877 c 1,99,100
 1303 803 1303 803 1479 631 c 1,101,102
 1602 506 1602 506 1634 369 c 1,103,104
 1644 332 1644 332 1644 291 c 0,105,106
 1644 260 1644 260 1638 227 c 0,107,108
 1608 86 1608 86 1503 27 c 1,109,110
 1457 0 1457 0 1410 0 c 2,111,-1
 1403 0 l 1,112,113
 1370 2 1370 2 1341 18 c 1,114,115
 1272 51 1272 51 1223 145 c 1,116,-1
 1210 168 l 1,117,-1
 1198 156 l 1,118,119
 1114 76 1114 76 1036 20 c 1,120,121
 1007 2 1007 2 978 2 c 0,122,123
 956 2 956 2 934 12 c 1,124,125
 895 33 895 33 858 143 c 1,126,-1
 848 176 l 1,127,-1
 842 172 l 1,128,129
 838 172 838 172 834 168 c 1,130,131
 825 152 825 152 659 27 c 1,132,133
 627 6 627 6 609 6 c 0,134,135
 600 6 600 6 594 12 c 0,136,137
 590 16 590 16 586 23 c 1,138,139
 575 35 575 35 555 94 c 1,140,141
 524 172 524 172 504 193 c 0,142,143
 502 195 502 195 487 207 c 1,144,145
 479 207 479 207 473 199 c 0,146,147
 379 82 379 82 346 59 c 1,148,149
 285 8 285 8 246 2 c 0,150,151
 233 0 233 0 225 2 c 0,152,153
 207 8 207 8 207 29 c 1,154,155
 211 49 211 49 238 86 c 0,156,157
 295 162 295 162 399 221 c 0,158,159
 426 236 426 236 446 242 c 1,160,161
 463 246 463 246 463 248 c 1,162,163
 522 317 522 317 522 352 c 1,164,165
 516 399 516 399 438 498 c 0,166,167
 358 598 358 598 346 631 c 0,168,169
 338 653 338 653 348 686 c 1,170,171
 379 809 379 809 451 956 c 0,172,173
 453 961 453 961 455 965 c 2,174,-1
 465 985 l 1,175,-1
 457 983 l 1,176,177
 365 973 365 973 291 936 c 0,178,179
 156 870 156 870 109 760 c 0,180,181
 100 741 100 741 96 721 c 0,182,183
 84 659 84 659 125 618 c 1,184,185
 166 584 166 584 203 604 c 0,186,187
 250 629 250 629 262 705 c 1,188,189
 264 731 264 731 281 731 c 0,190,191
 291 731 291 731 295 727 c 0,192,193
 303 719 303 719 297 678 c 0,194,195
 281 571 281 571 217 504 c 1,196,197
 137 428 137 428 61 492 c 1,198,199
 23 520 23 520 10 571 c 0,200,201
 4 594 4 594 4 622 c 0,202,203
 4 644 4 644 8 670 c 1,204,205
 45 834 45 834 205 936 c 1,206,207
 266 977 266 977 338 997 c 1,208,209
 406 1018 406 1018 473 1022 c 0,0,1
1446 471 m 0,210,211
 1430 504 1430 504 1417 524 c 2,212,-1
 1405 543 l 1,213,-1
 1393 535 l 1,214,215
 1321 485 1321 485 1298 354 c 1,216,217
 1290 289 1290 289 1300 223 c 1,218,219
 1321 109 1321 109 1380 80 c 0,220,221
 1393 74 1393 74 1413 74 c 0,222,223
 1432 74 1432 74 1442 78 c 0,224,225
 1473 92 1473 92 1491 139 c 1,226,227
 1503 174 1503 174 1505 223 c 0,228,229
 1509 346 1509 346 1446 471 c 0,210,211
1012 514 m 1,230,231
 987 526 987 526 961 518 c 0,232,233
 934 510 934 510 920 494 c 0,234,235
 883 455 883 455 893 375 c 1,236,237
 903 311 903 311 920 287 c 1,238,239
 922 281 922 281 983 338 c 1,240,241
 1036 393 1036 393 1047 432 c 0,242,243
 1063 492 1063 492 1012 514 c 1,230,231
EndSplineSet
Validated: 33
EndChar

StartChar: Ccedilla
Encoding: 65561 -1 100
Width: 796
Flags: W
LayerCount: 2
Fore
SplineSet
373 1020 m 0,0,1
 389 1025 389 1025 404 1025 c 0,2,3
 446 1025 446 1025 477 985 c 0,4,5
 492 967 492 967 496 944 c 0,6,7
 504 907 504 907 467 868 c 0,8,9
 463 864 463 864 459 860 c 0,10,11
 422 821 422 821 420 799 c 0,12,13
 418 760 418 760 457 748 c 1,14,15
 463 745 463 745 467 745 c 0,16,17
 504 741 504 741 518 782 c 0,18,19
 518 784 518 784 522 834 c 1,20,21
 522 893 522 893 545 911 c 0,22,23
 549 913 549 913 553 918 c 1,24,25
 618 967 618 967 680 907 c 1,26,27
 739 846 739 846 690 780 c 0,28,29
 670 752 670 752 631 750 c 1,30,-1
 606 750 l 1,31,32
 557 745 557 745 555 745 c 0,33,34
 514 731 514 731 518 694 c 1,35,36
 524 651 524 651 563 647 c 1,37,-1
 571 647 l 1,38,39
 594 649 594 649 633 686 c 1,40,41
 670 723 670 723 694 725 c 0,42,43
 758 729 758 729 786 672 c 0,44,45
 797 651 797 651 797 627 c 0,46,47
 797 559 797 559 737 535 c 1,48,49
 717 524 717 524 694 526 c 0,50,51
 670 528 670 528 631 565 c 1,52,53
 594 602 594 602 571 604 c 0,54,55
 532 606 532 606 520 567 c 0,56,57
 518 561 518 561 518 557 c 0,58,59
 514 520 514 520 555 506 c 0,60,61
 557 506 557 506 606 502 c 1,62,63
 666 502 666 502 684 479 c 0,64,65
 686 475 686 475 690 471 c 0,66,67
 739 406 739 406 680 344 c 1,68,69
 618 285 618 285 553 334 c 1,70,71
 524 352 524 352 522 393 c 1,72,-1
 522 420 l 1,73,74
 518 467 518 467 518 469 c 0,75,76
 504 510 504 510 467 506 c 1,77,78
 424 500 424 500 420 461 c 1,79,-1
 420 453 l 1,80,81
 422 430 422 430 459 391 c 1,82,83
 496 354 496 354 498 330 c 0,84,85
 502 266 502 266 444 238 c 1,86,87
 424 227 424 227 399 227 c 0,88,89
 332 227 332 227 307 287 c 1,90,91
 297 307 297 307 299 330 c 0,92,93
 301 354 301 354 338 391 c 1,94,95
 375 430 375 430 377 453 c 0,96,97
 379 492 379 492 340 504 c 0,98,99
 334 506 334 506 330 506 c 0,100,101
 293 510 293 510 279 469 c 0,102,103
 279 467 279 467 274 420 c 1,104,105
 274 358 274 358 254 342 c 0,106,107
 250 338 250 338 244 334 c 0,108,109
 178 285 178 285 117 344 c 1,110,111
 57 406 57 406 106 471 c 1,112,113
 125 500 125 500 166 502 c 1,114,-1
 193 502 l 1,115,116
 240 506 240 506 242 506 c 0,117,118
 283 520 283 520 279 557 c 1,119,120
 272 600 272 600 233 604 c 1,121,-1
 225 604 l 1,122,123
 203 602 203 602 166 565 c 1,124,125
 127 528 127 528 102 526 c 0,126,127
 39 522 39 522 10 580 c 0,128,129
 0 600 0 600 0 625 c 0,130,131
 0 692 0 692 59 717 c 1,132,133
 80 727 80 727 102 725 c 0,134,135
 127 723 127 723 164 686 c 1,136,137
 203 649 203 649 225 647 c 0,138,139
 264 645 264 645 276 684 c 1,140,141
 279 690 279 690 279 694 c 0,142,143
 283 731 283 731 242 745 c 0,144,145
 240 745 240 745 193 750 c 1,146,147
 131 750 131 750 115 770 c 0,148,149
 111 774 111 774 106 780 c 0,150,151
 57 846 57 846 117 907 c 1,152,153
 178 967 178 967 244 918 c 0,154,155
 272 897 272 897 274 858 c 1,156,-1
 274 834 l 1,157,158
 279 784 279 784 279 782 c 0,159,160
 293 741 293 741 330 745 c 1,161,162
 373 752 373 752 377 791 c 1,163,-1
 377 799 l 1,164,165
 375 821 375 821 338 858 c 1,166,167
 301 897 301 897 299 922 c 1,168,169
 297 987 297 987 356 1014 c 0,170,171
 365 1018 365 1018 373 1020 c 0,0,1
422 680 m 1,172,173
 379 700 379 700 350 662 c 0,174,175
 334 641 334 641 340 614 c 0,176,177
 350 569 350 569 395 567 c 1,178,179
 410 565 410 565 426 573 c 0,180,181
 469 592 469 592 457 639 c 1,182,183
 451 668 451 668 422 680 c 1,172,173
EndSplineSet
Validated: 33
EndChar

StartChar: Udieresis
Encoding: 61574 61574 104
Width: 719
Flags: W
LayerCount: 2
Fore
SplineSet
591 214 m 1,0,1
 552 223 552 223 474 184 c 1,2,3
 403 147 403 147 259 50 c 1,4,5
 112 -44 112 -44 85 -93 c 1,6,7
 66 -136 66 -136 83 -173 c 1,8,9
 114 -233 114 -233 187 -214 c 1,10,11
 191 -214 191 -214 198 -212 c 0,12,13
 275 -183 275 -183 470 -52 c 1,14,15
 618 42 618 42 644 91 c 1,16,17
 665 134 665 134 646 171 c 0,18,19
 630 202 630 202 591 214 c 1,0,1
74 -259 m 1,20,-1
 74 -1847 l 1,21,-1
 5 -1847 l 1,22,-1
 5 -134 l 2,23,24
 5 -108 5 -108 10 -79 c 1,25,26
 43 69 43 69 117 142 c 0,27,28
 156 181 156 181 215 210 c 0,29,30
 322 264 322 264 479 278 c 1,31,-1
 549 280 l 1,32,-1
 551 280 l 1,33,34
 596 278 596 278 611 274 c 0,35,36
 652 262 652 262 674 239 c 0,37,38
 697 216 697 216 709 181 c 1,39,40
 714 159 714 159 714 133 c 256,41,42
 714 107 714 107 709 77 c 1,43,44
 678 -69 678 -69 602 -147 c 1,45,46
 498 -251 498 -251 283 -274 c 0,47,48
 142 -290 142 -290 74 -259 c 1,20,-1
EndSplineSet
Validated: 33
EndChar

StartChar: aacute
Encoding: 61575 61575 105
Width: 719
Flags: W
LayerCount: 2
Fore
SplineSet
591 214 m 1,0,1
 552 223 552 223 474 184 c 1,2,3
 403 147 403 147 259 50 c 1,4,5
 112 -43 112 -43 85 -92 c 1,6,7
 66 -135 66 -135 83 -172 c 1,8,9
 114 -232 114 -232 187 -213 c 1,10,11
 191 -213 191 -213 198 -211 c 0,12,13
 275 -182 275 -182 470 -51 c 1,14,15
 618 42 618 42 644 91 c 1,16,17
 665 134 665 134 646 171 c 0,18,19
 630 202 630 202 591 214 c 1,0,1
708 183 m 1,20,21
 709 182 709 182 709 181 c 0,22,23
 714 159 714 159 714 133 c 256,24,25
 714 107 714 107 709 77 c 1,26,27
 678 -68 678 -68 602 -146 c 1,28,29
 498 -250 498 -250 283 -273 c 0,30,31
 235 -278 235 -278 195 -278 c 0,32,33
 90 -278 90 -278 45 -240 c 1,34,35
 23 -217 23 -217 10 -182 c 1,36,37
 5 -159 5 -159 5 -133 c 256,38,39
 5 -107 5 -107 10 -78 c 1,40,41
 43 69 43 69 117 142 c 0,42,43
 156 181 156 181 215 210 c 0,44,45
 322 264 322 264 479 278 c 1,46,-1
 549 280 l 1,47,-1
 551 280 l 1,48,49
 596 278 596 278 611 274 c 0,50,51
 627 269 627 269 640 263 c 1,52,-1
 640 1892 l 1,53,-1
 709 1892 l 1,54,-1
 709 183 l 1,55,-1
 708 183 l 1,20,21
EndSplineSet
Validated: 33
EndChar

StartChar: agrave
Encoding: 61576 61576 106
Width: 640
Flags: W
LayerCount: 2
Fore
SplineSet
0 -70 m 2,0,1
 0 -13 0 -13 38.5 44.5 c 128,-1,2
 77 102 77 102 140 148.5 c 128,-1,3
 203 195 203 195 274 221.5 c 128,-1,4
 345 248 345 248 410 248 c 0,5,6
 468 248 468 248 507 239 c 128,-1,7
 546 230 546 230 576 206 c 1,8,9
 640 163 640 163 640 74 c 0,10,11
 640 11 640 11 603 -46 c 128,-1,12
 566 -103 566 -103 499 -151 c 1,13,14
 438 -196 438 -196 363.5 -222 c 128,-1,15
 289 -248 289 -248 218 -248 c 0,16,17
 128 -248 128 -248 69 -204 c 1,18,-1
 69 -1779 l 1,19,-1
 0 -1779 l 1,20,-1
 0 -70 l 2,0,1
EndSplineSet
Validated: 1
EndChar

StartChar: acircumflex
Encoding: 61577 61577 107
Width: 640
Flags: W
LayerCount: 2
Fore
SplineSet
640 70 m 1,0,1
 639 9 639 9 603 -46 c 0,2,3
 566 -103 566 -103 499 -151 c 1,4,5
 438 -196 438 -196 363.5 -222 c 128,-1,6
 289 -248 289 -248 218 -248 c 0,7,8
 124 -248 124 -248 64 -201 c 1,9,10
 0 -149 0 -149 0 -70 c 0,11,12
 0 -13 0 -13 38.5 44.5 c 128,-1,13
 77 102 77 102 140 148.5 c 128,-1,14
 203 195 203 195 274 221.5 c 128,-1,15
 345 248 345 248 410 248 c 0,16,17
 468 248 468 248 507 239 c 0,18,19
 543 231 543 231 571 210 c 1,20,-1
 571 1779 l 1,21,-1
 640 1779 l 1,22,-1
 640 70 l 1,0,1
EndSplineSet
Validated: 1
EndChar

StartChar: adieresis
Encoding: 61578 61578 108
Width: 640
Flags: W
LayerCount: 2
Fore
SplineSet
0 -70 m 2,0,1
 0 -13 0 -13 38.5 44.5 c 128,-1,2
 77 102 77 102 140 148.5 c 128,-1,3
 203 195 203 195 274 221.5 c 128,-1,4
 345 248 345 248 410 248 c 0,5,6
 468 248 468 248 507 239 c 128,-1,7
 546 230 546 230 576 206 c 1,8,9
 640 163 640 163 640 74 c 0,10,11
 640 11 640 11 603 -46 c 128,-1,12
 566 -103 566 -103 499 -151 c 1,13,14
 438 -196 438 -196 363.5 -222 c 128,-1,15
 289 -248 289 -248 218 -248 c 0,16,17
 128 -248 128 -248 69 -204 c 1,18,-1
 69 -1271 l 1,19,20
 71 -1271 71 -1271 71 -1272 c 0,21,22
 75 -1282 75 -1282 222 -1174 c 0,23,24
 251 -1153 251 -1153 271 -1137 c 0,25,26
 527 -936 527 -936 536 -742 c 1,27,28
 542 -557 542 -557 433 -369 c 1,29,30
 421 -346 421 -346 429 -326 c 0,31,32
 437 -307 437 -307 456 -303 c 1,33,34
 464 -299 464 -299 474 -299 c 0,35,36
 495 -299 495 -299 507 -316 c 1,37,38
 523 -336 523 -336 560 -426 c 0,39,40
 615 -563 615 -563 622 -709 c 1,41,42
 624 -842 624 -842 560 -967 c 1,43,44
 511 -1065 511 -1065 353 -1247 c 1,45,46
 239 -1381 239 -1381 198 -1438 c 0,47,48
 124 -1538 124 -1538 89 -1649 c 1,49,50
 71 -1714 71 -1714 71 -1772 c 2,51,-1
 71 -1782 l 1,52,-1
 1 -1782 l 1,53,-1
 1 -1779 l 1,54,-1
 0 -1779 l 1,55,-1
 0 -70 l 2,0,1
EndSplineSet
Validated: 33
EndChar

StartChar: atilde
Encoding: 61579 61579 109
Width: 1092
Flags: W
LayerCount: 2
Fore
SplineSet
640 70 m 1,0,1
 639 9 639 9 603 -46 c 0,2,3
 566 -103 566 -103 499 -151 c 1,4,5
 438 -196 438 -196 363.5 -222 c 128,-1,6
 289 -248 289 -248 218 -248 c 0,7,8
 124 -248 124 -248 64 -201 c 1,9,10
 0 -149 0 -149 0 -70 c 0,11,12
 0 -13 0 -13 38.5 44.5 c 128,-1,13
 77 102 77 102 140 148.5 c 128,-1,14
 203 195 203 195 274 221.5 c 128,-1,15
 345 248 345 248 410 248 c 0,16,17
 468 248 468 248 507 239 c 0,18,19
 543 231 543 231 571 210 c 1,20,-1
 571 1264 l 1,21,-1
 570 1264 l 1,22,-1
 570 1776 l 1,23,-1
 571 1776 l 1,24,-1
 571 1779 l 1,25,-1
 640 1779 l 1,26,-1
 640 1764 l 2,27,28
 640 1680 640 1680 674 1575 c 0,29,30
 715 1450 715 1450 846 1242 c 0,31,32
 945 1084 945 1084 980 1013 c 0,33,34
 1043 884 1043 884 1059 781 c 0,35,36
 1068 727 1068 727 1068 668 c 0,37,38
 1068 515 1068 515 1006 327 c 0,39,40
 984 259 984 259 976 251 c 0,41,42
 961 236 961 236 943 236 c 0,43,44
 918 236 918 236 908 251 c 1,45,46
 894 261 894 261 894 281 c 0,47,48
 894 286 894 286 902 310 c 1,49,50
 961 447 961 447 978 601 c 0,51,52
 984 662 984 662 980 722 c 1,53,54
 957 922 957 922 699 1201 c 0,55,56
 685 1217 685 1217 670 1232 c 2,57,-1
 640 1264 l 1,58,-1
 640 70 l 1,0,1
EndSplineSet
Validated: 33
EndChar

StartChar: aring
Encoding: 61580 61580 110
Width: 640
Flags: W
LayerCount: 2
Fore
SplineSet
495 -778 m 1,0,1
 495 -773 495 -773 484 -745 c 1,2,-1
 482 -737 l 1,3,-1
 456 -765 l 1,4,-1
 347 -870 l 2,5,6
 232 -980 232 -980 193 -1025 c 1,7,8
 89 -1150 89 -1150 75 -1277 c 0,9,10
 73 -1290 73 -1290 73 -1333 c 2,11,-1
 73 -1369 l 1,12,-1
 97 -1355 l 2,13,14
 273 -1253 273 -1253 376 -1152 c 1,15,16
 480 -1044 480 -1044 505 -937 c 0,17,18
 509 -919 509 -919 509 -878 c 0,19,20
 509 -823 509 -823 495 -778 c 1,0,1
0 -69 m 1,21,22
 0 -12 0 -12 39 45 c 0,23,24
 77 102 77 102 140 148.5 c 128,-1,25
 203 195 203 195 274 221.5 c 128,-1,26
 345 248 345 248 410 248 c 0,27,28
 468 248 468 248 507 239 c 128,-1,29
 546 230 546 230 576 206 c 1,30,31
 640 163 640 163 640 74 c 0,32,33
 640 11 640 11 603 -46 c 128,-1,34
 566 -103 566 -103 499 -151 c 1,35,36
 438 -196 438 -196 363.5 -222 c 128,-1,37
 289 -248 289 -248 218 -248 c 0,38,39
 131 -248 131 -248 73 -207 c 1,40,-1
 73 -909 l 1,41,-1
 91 -898 l 1,42,43
 304 -786 304 -786 411 -679 c 0,44,45
 589 -501 589 -501 515 -311 c 0,46,47
 505 -284 505 -284 513 -266 c 0,48,49
 521 -247 521 -247 540 -243 c 1,50,51
 556 -237 556 -237 574 -243 c 1,52,53
 593 -253 593 -253 605 -292 c 0,54,55
 619 -339 619 -339 624 -403 c 1,56,57
 628 -528 628 -528 558 -634 c 0,58,59
 546 -653 546 -653 543 -657 c 1,60,61
 546 -664 546 -664 574 -726 c 1,62,63
 591 -767 591 -767 597 -866 c 1,64,65
 599 -968 599 -968 552 -1062 c 0,66,67
 503 -1161 503 -1161 368 -1296 c 0,68,69
 230 -1435 230 -1435 179 -1500 c 1,70,71
 105 -1599 105 -1599 83 -1695 c 0,72,73
 73 -1736 73 -1736 73 -1769 c 2,74,-1
 73 -1779 l 1,75,-1
 3 -1779 l 1,76,-1
 -2 -66 l 1,77,-1
 0 -69 l 1,21,22
EndSplineSet
Validated: 33
EndChar

StartChar: ccedilla
Encoding: 61581 61581 111
Width: 1075
Flags: W
LayerCount: 2
Fore
SplineSet
782 1198 m 0,0,1
 757 1226 757 1226 700 1284 c 2,2,-1
 641 1343 l 1,3,-1
 641 1331 l 2,4,5
 641 1294 641 1294 651 1249 c 1,6,7
 661 1185 661 1185 704 1093 c 1,8,9
 743 1019 743 1019 860 853 c 1,10,-1
 933 747 l 1,11,-1
 954 717 l 1,12,-1
 958 729 l 1,13,14
 968 769 968 769 968 817 c 0,15,16
 968 858 968 858 966 872 c 0,17,18
 938 1019 938 1019 782 1198 c 0,0,1
603 -46 m 0,20,21
 566 -103 566 -103 499 -151 c 1,22,23
 438 -196 438 -196 363.5 -222 c 128,-1,24
 289 -248 289 -248 218 -248 c 0,25,26
 124 -248 124 -248 64 -201 c 1,27,28
 0 -149 0 -149 0 -70 c 0,29,30
 0 -13 0 -13 38.5 44.5 c 128,-1,31
 77 102 77 102 140 148.5 c 128,-1,32
 203 195 203 195 274 221.5 c 128,-1,33
 345 248 345 248 410 248 c 0,34,35
 468 248 468 248 507 239 c 0,36,37
 543 231 543 231 571 210 c 1,38,-1
 571 1777 l 1,39,-1
 641 1777 l 1,40,-1
 641 1753 l 1,41,42
 651 1628 651 1628 714 1509 c 0,43,44
 761 1421 761 1421 850 1296 c 1,45,-1
 923 1185 l 1,46,47
 1050 987 1050 987 1056 833 c 0,48,49
 1060 731 1060 731 1020 645 c 0,50,51
 1011 625 1011 625 1011 620 c 0,52,53
 1011 610 1011 610 1022 590 c 1,54,55
 1056 514 1056 514 1067 420 c 0,56,57
 1070 398 1070 398 1070 372 c 0,58,59
 1070 334 1070 334 1063 289 c 1,60,61
 1050 168 1050 168 993 27 c 1,62,63
 979 -2 979 -2 962 -14 c 1,64,65
 944 -23 944 -23 925 -14 c 1,66,67
 909 -10 909 -10 899 10 c 0,68,69
 890 29 890 29 907 59 c 1,70,71
 968 190 968 190 981 330 c 1,72,73
 989 446 989 446 938 553 c 1,74,75
 895 639 895 639 807 741 c 1,76,77
 708 847 708 847 655 892 c 0,78,79
 641 905 641 905 641 754 c 2,80,-1
 640 70 l 2,81,19
 639 9 639 9 603 -46 c 0,20,21
EndSplineSet
Validated: 33
EndChar

StartChar: eacute
Encoding: 61582 61582 112
Width: 640
Flags: W
LayerCount: 2
Fore
SplineSet
527 -739 m 1,0,-1
 516 -712 l 1,1,-1
 512 -706 l 1,2,-1
 484 -736 l 2,3,4
 467 -755 467 -755 377 -841 c 1,5,6
 277 -935 277 -935 236 -980 c 1,7,8
 152 -1076 152 -1076 121 -1169 c 1,9,10
 103 -1216 103 -1216 101 -1281 c 1,11,-1
 101 -1318 l 1,12,-1
 133 -1302 l 1,13,14
 318 -1205 318 -1205 428 -1101 c 1,15,16
 494 -1031 494 -1031 518 -976 c 1,17,18
 547 -923 547 -923 549 -868 c 1,19,20
 553 -806 553 -806 527 -739 c 1,0,-1
506 -1185 m 0,21,22
 500 -1169 500 -1169 498 -1171 c 2,23,-1
 426 -1243 l 1,24,-1
 365 -1304 l 1,25,26
 232 -1441 232 -1441 236 -1437 c 1,27,28
 133 -1560 133 -1560 107 -1677 c 0,29,30
 105 -1689 105 -1689 101 -1740 c 1,31,-1
 101 -1779 l 1,32,-1
 137 -1754 l 1,33,34
 463 -1537 463 -1537 512 -1343 c 0,35,36
 533 -1263 533 -1263 506 -1185 c 0,21,22
0 -70 m 2,37,38
 0 -13 0 -13 38.5 44.5 c 128,-1,39
 77 102 77 102 140 148.5 c 128,-1,40
 203 195 203 195 274 221.5 c 128,-1,41
 345 248 345 248 410 248 c 0,42,43
 468 248 468 248 507 239 c 128,-1,44
 546 230 546 230 576 206 c 1,45,46
 640 163 640 163 640 74 c 0,47,48
 640 11 640 11 603 -46 c 128,-1,49
 566 -103 566 -103 499 -151 c 1,50,51
 438 -196 438 -196 363.5 -222 c 128,-1,52
 289 -248 289 -248 218 -248 c 0,53,54
 129 -248 129 -248 70 -205 c 1,55,-1
 70 -797 l 1,56,-1
 72 -889 l 1,57,-1
 115 -869 l 1,58,59
 422 -715 422 -715 504 -551 c 0,60,61
 561 -437 561 -437 512 -318 c 1,62,63
 502 -291 502 -291 510 -273 c 0,64,65
 518 -254 518 -254 537 -250 c 1,66,67
 551 -244 551 -244 573 -250 c 1,68,69
 594 -261 594 -261 606 -314 c 0,70,71
 618 -365 618 -365 618 -426 c 0,72,73
 618 -474 618 -474 614 -492 c 1,74,75
 602 -566 602 -566 555 -644 c 1,76,-1
 543 -662 l 1,77,-1
 547 -670 l 1,78,79
 573 -717 573 -717 594 -793 c 1,80,81
 631 -953 631 -953 541 -1100 c 2,82,-1
 528 -1121 l 1,83,-1
 537 -1139 l 1,84,85
 637 -1334 637 -1334 500 -1555 c 1,86,87
 449 -1635 449 -1635 334 -1760 c 1,88,-1
 223 -1887 l 1,89,90
 82 -2061 82 -2061 70 -2218 c 1,91,-1
 70 -2241 l 1,92,-1
 0 -2241 l 1,93,-1
 0 -70 l 2,37,38
EndSplineSet
Validated: 33
EndChar

StartChar: egrave
Encoding: 61583 61583 113
Width: 1073
Flags: W
LayerCount: 2
Fore
SplineSet
675 1720 m 0,0,1
 651 1745 651 1745 647 1753 c 1,2,3
 643 1755 643 1755 643 1749 c 2,4,-1
 643 1728 l 1,5,6
 649 1599 649 1599 739 1448 c 1,7,8
 757 1415 757 1415 854 1280 c 1,9,-1
 925 1179 l 1,10,11
 940 1153 940 1153 944 1153 c 1,12,13
 946 1155 946 1155 952 1208 c 1,14,15
 956 1317 956 1317 882 1450 c 0,16,17
 823 1558 823 1558 675 1720 c 0,0,1
684 1273 m 1,18,-1
 647 1306 l 1,19,-1
 643 1310 l 1,20,-1
 643 1294 l 2,21,22
 643 1198 643 1198 698 1083 c 0,23,24
 735 1005 735 1005 862 831 c 1,25,26
 919 757 919 757 946 718 c 1,27,28
 952 706 952 706 956 712 c 0,29,30
 958 716 958 716 962 739 c 1,31,32
 985 829 985 829 954 923 c 1,33,34
 929 1003 929 1003 858 1093 c 0,35,36
 800 1167 800 1167 684 1273 c 1,18,-1
640 76 m 1,37,-1
 640 74 l 2,38,39
 640 11 640 11 603 -46 c 128,-1,40
 566 -103 566 -103 499 -151 c 1,41,42
 438 -196 438 -196 363.5 -222 c 128,-1,43
 289 -248 289 -248 218 -248 c 0,44,45
 124 -248 124 -248 64 -201 c 1,46,47
 0 -149 0 -149 0 -70 c 0,48,49
 0 -13 0 -13 38.5 44.5 c 128,-1,50
 77 102 77 102 140 148.5 c 128,-1,51
 203 195 203 195 274 221.5 c 128,-1,52
 345 248 345 248 410 248 c 0,53,54
 468 248 468 248 507 239 c 0,55,56
 544 230 544 230 573 208 c 1,57,-1
 573 2191 l 1,58,-1
 643 2191 l 1,59,-1
 643 2166 l 1,60,61
 651 2005 651 2005 784 1794 c 1,62,-1
 843 1699 l 1,63,64
 942 1546 942 1546 970 1484 c 0,65,66
 1019 1378 1019 1378 1034 1288 c 1,67,68
 1042 1226 1042 1226 1034 1159 c 1,69,70
 1024 1108 1024 1108 1009 1075 c 1,71,-1
 1001 1052 l 1,72,-1
 1011 1026 l 1,73,74
 1042 958 1042 958 1054 886 c 1,75,76
 1062 813 1062 813 1052 749 c 1,77,78
 1038 675 1038 675 1017 627 c 1,79,80
 1011 619 1011 619 1011 610 c 1,81,-1
 1024 584 l 1,82,83
 1071 479 1071 479 1071 368 c 2,84,-1
 1071 359 l 1,85,86
 1065 193 1065 193 995 41 c 0,87,88
 979 6 979 6 964 -2 c 1,89,90
 946 -10 946 -10 927 -2 c 1,91,92
 911 2 911 2 901 23 c 0,93,94
 892 41 892 41 907 70 c 0,95,96
 970 193 970 193 983 332 c 1,97,98
 991 438 991 438 946 531 c 1,99,100
 897 627 897 627 790 735 c 1,101,-1
 669 845 l 1,102,-1
 645 866 l 1,103,-1
 643 761 l 1,104,-1
 641 74 l 1,105,-1
 640 76 l 1,37,-1
EndSplineSet
Validated: 33
EndChar

StartChar: ecircumflex
Encoding: 61584 61584 114
Width: 640
Flags: W
LayerCount: 2
Fore
SplineSet
516 -687 m 1,0,1
 512 -659 512 -659 512 -650 c 1,2,-1
 510 -640 l 1,3,-1
 492 -657 l 1,4,5
 467 -679 467 -679 379 -743 c 1,6,7
 231 -845 231 -845 184 -890 c 0,8,9
 111 -958 111 -958 84 -1040 c 0,10,11
 72 -1076 72 -1076 70 -1132 c 1,12,-1
 70 -1177 l 1,13,-1
 102 -1160 l 1,14,15
 299 -1062 299 -1062 401 -960 c 1,16,17
 463 -902 463 -902 489 -841 c 1,18,19
 524 -769 524 -769 516 -687 c 1,0,1
498 -1023 m 1,20,-1
 494 -999 l 2,21,22
 494 -997 494 -997 479 -1013 c 0,23,24
 442 -1052 442 -1052 336 -1156 c 1,25,26
 211 -1273 211 -1273 168 -1326 c 1,27,28
 102 -1412 102 -1412 80 -1502 c 1,29,30
 70 -1550 70 -1550 70 -1601 c 2,31,-1
 70 -1638 l 1,32,-1
 92 -1621 l 2,33,34
 96 -1619 96 -1619 203 -1543 c 1,35,36
 479 -1328 479 -1328 500 -1132 c 1,37,38
 504 -1078 504 -1078 498 -1023 c 1,20,-1
453 -1547 m 1,39,-1
 455 -1482 l 1,40,-1
 455 -1480 l 2,41,42
 455 -1435 455 -1435 453 -1435 c 1,43,44
 453 -1433 453 -1433 442 -1443 c 1,45,46
 426 -1466 426 -1466 332 -1570 c 0,47,48
 246 -1666 246 -1666 213 -1705 c 1,49,50
 100 -1844 100 -1844 76 -1978 c 0,51,52
 74 -1986 74 -1986 70 -2045 c 1,53,-1
 70 -2088 l 1,54,-1
 76 -2084 l 1,55,56
 147 -2021 147 -2021 205 -1959 c 1,57,58
 426 -1732 426 -1732 453 -1547 c 1,39,-1
1 -89 m 1,59,60
 0 -79 0 -79 0 -70 c 0,61,62
 0 -13 0 -13 38.5 44.5 c 128,-1,63
 77 102 77 102 140 148.5 c 128,-1,64
 203 195 203 195 274 221.5 c 128,-1,65
 345 248 345 248 410 248 c 0,66,67
 468 248 468 248 507 239 c 128,-1,68
 546 230 546 230 576 206 c 1,69,70
 640 163 640 163 640 74 c 0,71,72
 640 11 640 11 603 -46 c 128,-1,73
 566 -103 566 -103 499 -151 c 1,74,75
 438 -196 438 -196 363.5 -222 c 128,-1,76
 289 -248 289 -248 218 -248 c 0,77,78
 129 -248 129 -248 71 -206 c 1,79,-1
 70 -716 l 1,80,-1
 78 -714 l 1,81,82
 313 -675 313 -675 434 -583 c 0,83,84
 510 -526 510 -526 528 -454 c 1,85,86
 541 -411 541 -411 528 -339 c 0,87,88
 520 -296 520 -296 526 -286 c 0,89,90
 537 -265 537 -265 553 -261 c 1,91,92
 567 -255 567 -255 590 -261 c 1,93,94
 610 -274 610 -274 612 -296 c 1,95,96
 627 -405 627 -405 616 -460 c 0,97,98
 606 -507 606 -507 590 -534 c 1,99,-1
 580 -554 l 1,100,-1
 586 -573 l 1,101,102
 590 -591 590 -591 594 -620 c 1,103,104
 621 -763 621 -763 573 -866 c 1,105,-1
 565 -888 l 1,106,-1
 571 -923 l 1,107,108
 598 -1070 598 -1070 584 -1165 c 1,109,110
 569 -1234 569 -1234 545 -1287 c 1,111,-1
 535 -1306 l 1,112,-1
 537 -1339 l 2,113,114
 539 -1357 539 -1357 539 -1459 c 0,115,116
 539 -1552 539 -1552 535 -1576 c 0,117,118
 512 -1707 512 -1707 418 -1846 c 0,119,120
 381 -1902 381 -1902 291 -2019 c 0,121,122
 188 -2154 188 -2154 154 -2217 c 1,123,124
 76 -2348 76 -2348 70 -2479 c 1,125,-1
 70 -2508 l 1,126,-1
 0 -2508 l 1,127,-1
 1 -89 l 1,59,60
EndSplineSet
Validated: 33
EndChar

StartChar: edieresis
Encoding: 61585 61585 115
Width: 1084
Flags: W
LayerCount: 2
Fore
SplineSet
697 2206 m 0,0,1
 658 2251 658 2251 654 2255 c 2,2,-1
 640 2272 l 1,3,-1
 640 2247 l 2,4,5
 640 2128 640 2128 703 2001 c 1,6,7
 746 1918 746 1918 855 1766 c 1,8,9
 889 1711 889 1711 918 1674 c 1,10,11
 935 1647 935 1647 939 1647 c 1,12,13
 945 1649 945 1649 949 1709 c 1,14,15
 953 1811 953 1811 889 1936 c 0,16,17
 830 2053 830 2053 697 2206 c 0,0,1
701 1752 m 1,18,19
 646 1801 646 1801 648 1801 c 1,20,-1
 640 1809 l 1,21,-1
 640 1786 l 2,22,23
 640 1621 640 1621 777 1416 c 1,24,-1
 840 1324 l 1,25,26
 877 1274 877 1274 914 1219 c 1,27,-1
 943 1174 l 1,28,29
 945 1174 945 1174 951 1195 c 0,30,31
 973 1270 973 1270 967 1338 c 1,32,33
 947 1514 947 1514 701 1752 c 1,18,19
724 1270 m 1,34,35
 662 1328 662 1328 654 1336 c 2,36,-1
 640 1348 l 1,37,-1
 640 1326 l 2,38,39
 640 1184 640 1184 734 1029 c 1,40,41
 769 967 769 967 857 851 c 1,42,43
 910 777 910 777 914 769 c 1,44,45
 937 738 937 738 939 738 c 1,46,-1
 963 797 l 1,47,48
 992 910 992 910 898 1059 c 0,49,50
 842 1147 842 1147 724 1270 c 1,34,35
640 73 m 2,51,52
 640 11 640 11 603 -46 c 256,53,54
 566 -103 566 -103 499 -151 c 1,55,56
 438 -196 438 -196 363.5 -222 c 128,-1,57
 289 -248 289 -248 218 -248 c 0,58,59
 124 -248 124 -248 64 -201 c 1,60,61
 0 -149 0 -149 0 -70 c 0,62,63
 0 -13 0 -13 38.5 44.5 c 128,-1,64
 77 102 77 102 140 148.5 c 128,-1,65
 203 195 203 195 274 221.5 c 128,-1,66
 345 248 345 248 410 248 c 0,67,68
 468 248 468 248 507 239 c 0,69,70
 542 231 542 231 570 211 c 1,71,-1
 570 2706 l 1,72,-1
 640 2706 l 1,73,-1
 640 2681 l 1,74,75
 648 2522 648 2522 777 2311 c 1,76,77
 785 2294 785 2294 834 2219 c 1,78,79
 898 2116 898 2116 924 2069 c 0,80,81
 1010 1918 1010 1918 1031 1791 c 1,82,83
 1039 1711 1039 1711 1029 1651 c 1,84,85
 1023 1602 1023 1602 1004 1559 c 2,86,-1
 996 1541 l 1,87,-1
 1004 1522 l 1,88,89
 1025 1483 1025 1483 1041 1424 c 1,90,91
 1055 1367 1055 1367 1055 1311 c 0,92,93
 1055 1210 1055 1210 1010 1109 c 1,94,-1
 998 1078 l 1,95,-1
 1008 1055 l 1,96,97
 1037 992 1037 992 1051 912 c 1,98,99
 1057 865 1057 865 1053 816 c 1,100,101
 1045 740 1045 740 996 676 c 1,102,-1
 986 662 l 1,103,-1
 1000 632 l 1,104,105
 1067 505 1067 505 1067 368 c 0,106,107
 1067 333 1067 333 1062 296 c 1,108,109
 1049 169 1049 169 990 40 c 1,110,111
 978 9 978 9 961 -1 c 1,112,113
 943 -9 943 -9 924 -1 c 1,114,115
 908 3 908 3 898 24 c 0,116,117
 889 42 889 42 902 67 c 0,118,119
 943 142 943 142 961 226 c 1,120,121
 994 351 994 351 976 443 c 1,122,123
 951 562 951 562 828 707 c 1,124,125
 740 799 740 799 681 853 c 1,126,-1
 642 887 l 1,127,-1
 640 773 l 1,128,-1
 640 73 l 2,51,52
EndSplineSet
Validated: 33
EndChar

StartChar: iacute
Encoding: 61586 61586 116
Width: 640
Flags: W
LayerCount: 2
Fore
SplineSet
64 -1072 m 2,0,-1
 64 -1096 l 1,1,2
 517 -910 517 -910 517 -680 c 1,3,4
 512 -609 512 -609 504 -609 c 1,5,6
 233 -780 233 -780 116 -894 c 1,7,8
 64 -974 64 -974 64 -1072 c 2,0,-1
64 -1517 m 1,9,10
 274 -1432 274 -1432 453 -1191 c 1,11,12
 498 -1110 498 -1110 498 -1037 c 2,13,-1
 498 -977 l 1,14,-1
 491 -948 l 1,15,-1
 478 -948 l 1,16,17
 64 -1280 64 -1280 64 -1446 c 2,18,-1
 64 -1517 l 1,9,10
64 -1921 m 1,19,-1
 70 -1921 l 1,20,21
 498 -1679 498 -1679 498 -1440 c 2,22,-1
 498 -1381 l 1,23,-1
 491 -1351 l 1,24,-1
 478 -1351 l 1,25,26
 77 -1677 77 -1677 77 -1820 c 1,27,28
 66 -1820 66 -1820 64 -1921 c 1,19,-1
64 -2337 m 1,29,-1
 77 -2337 l 1,30,31
 351 -2114 351 -2114 420 -1951 c 1,32,33
 453 -1877 453 -1877 453 -1767 c 2,34,-1
 453 -1749 l 1,35,-1
 446 -1749 l 1,36,37
 64 -2084 64 -2084 64 -2307 c 2,38,-1
 64 -2337 l 1,29,-1
38.5 44.5 m 128,-1,40
 77 102 77 102 140 148.5 c 128,-1,41
 203 195 203 195 274 221.5 c 128,-1,42
 345 248 345 248 410 248 c 0,43,44
 468 248 468 248 507 239 c 128,-1,45
 546 230 546 230 576 206 c 1,46,47
 640 163 640 163 640 74 c 0,48,49
 640 11 640 11 603 -46 c 128,-1,50
 566 -103 566 -103 499 -151 c 1,51,52
 438 -196 438 -196 363.5 -222 c 128,-1,53
 289 -248 289 -248 218 -248 c 0,54,55
 126 -248 126 -248 66 -202 c 1,56,-1
 65 -677 l 1,57,58
 530 -587 530 -587 530 -406 c 1,59,-1
 524 -275 l 1,60,-1
 556 -252 l 1,61,-1
 582 -252 l 2,62,63
 621 -252 621 -252 621 -394 c 0,64,65
 621 -438 621 -438 582 -520 c 1,66,-1
 602 -674 l 1,67,-1
 602 -686 l 1,68,-1
 569 -840 l 1,69,-1
 589 -1054 l 1,70,-1
 589 -1096 l 1,71,-1
 563 -1238 l 1,72,73
 589 -1357 589 -1357 589 -1446 c 1,74,75
 567 -1566 567 -1566 537 -1624 c 1,76,-1
 537 -1832 l 2,77,78
 537 -2009 537 -2009 213 -2373 c 1,79,80
 57 -2574 57 -2574 57 -2730 c 1,81,-1
 51 -2735 l 1,82,-1
 1 -2735 l 1,83,-1
 0 -70 l 2,84,39
 0 -13 0 -13 38.5 44.5 c 128,-1,40
EndSplineSet
Validated: 1
EndChar

StartChar: igrave
Encoding: 61587 61587 117
Width: 1067
Flags: W
LayerCount: 2
Fore
SplineSet
647 2503 m 1,0,1
 647 2271 647 2271 935 1951 c 1,2,-1
 942 1951 l 1,3,-1
 948 1981 l 1,4,-1
 948 2016 l 2,5,6
 948 2211 948 2211 660 2503 c 1,7,-1
 647 2503 l 1,0,1
647 2081 m 1,8,-1
 647 2075 l 2,9,10
 647 1851 647 1851 942 1511 c 1,11,12
 967 1538 967 1538 967 1630 c 2,13,-1
 967 1642 l 2,14,15
 967 1816 967 1816 660 2081 c 1,16,-1
 647 2081 l 1,8,-1
647 1654 m 1,17,18
 647 1424 647 1424 935 1107 c 1,19,-1
 948 1107 l 1,20,-1
 967 1179 l 1,21,-1
 967 1208 l 2,22,23
 967 1396 967 1396 660 1654 c 1,24,-1
 647 1654 l 1,17,18
647 1226 m 1,25,26
 647 1013 647 1013 935 691 c 1,27,-1
 948 691 l 1,28,-1
 967 763 l 1,29,-1
 967 792 l 2,30,31
 967 992 967 992 653 1231 c 1,32,-1
 647 1226 l 1,25,26
640 74 m 2,33,34
 640 11 640 11 603 -46 c 128,-1,35
 566 -103 566 -103 499 -151 c 1,36,37
 438 -196 438 -196 363.5 -222 c 128,-1,38
 289 -248 289 -248 218 -248 c 0,39,40
 124 -248 124 -248 64 -201 c 1,41,42
 0 -149 0 -149 0 -70 c 0,43,44
 0 -13 0 -13 38.5 44.5 c 128,-1,45
 77 102 77 102 140 148.5 c 128,-1,46
 203 195 203 195 274 221.5 c 128,-1,47
 345 248 345 248 410 248 c 0,48,49
 468 248 468 248 507 239 c 0,50,51
 537 232 537 232 561 217 c 1,52,-1
 563 2939 l 1,53,-1
 634 2941 l 1,54,55
 636 2908 636 2908 643 2849 c 128,-1,56
 650 2790 650 2790 677 2715.5 c 128,-1,57
 704 2641 704 2641 919 2318 c 1,58,59
 1019 2145 1019 2145 1019 2033 c 2,60,-1
 1019 1992 l 2,61,62
 1019 1923 1019 1923 982 1838 c 1,63,64
 1044 1719 1044 1719 1044 1624 c 0,65,66
 1044 1565 1044 1565 988 1410 c 1,67,68
 1044 1297 1044 1297 1044 1208 c 0,69,70
 1044 1149 1044 1149 988 994 c 1,71,72
 1028 943 1028 943 1044 792 c 1,73,74
 1036 697 1036 697 976 615 c 1,75,76
 1054 448 1054 448 1057 347 c 1,77,78
 1005 -4 1005 -4 932 -4 c 0,79,80
 900 -4 900 -4 888 38 c 1,81,82
 969 209 969 209 969 330 c 2,83,-1
 969 377 l 2,84,85
 969 563 969 563 643 817 c 1,86,-1
 640 78 l 1,87,-1
 640 74 l 2,33,34
EndSplineSet
Validated: 1
EndChar

StartChar: icircumflex
Encoding: 61588 61588 118
Width: 640
Flags: W
LayerCount: 2
Fore
SplineSet
55 -1077 m 2,0,-1
 55 -1101 l 1,1,2
 516 -916 516 -916 516 -685 c 1,3,4
 510 -613 510 -613 502 -613 c 1,5,6
 227 -786 227 -786 107 -899 c 1,7,8
 55 -978 55 -978 55 -1077 c 2,0,-1
55 -1523 m 1,9,10
 269 -1436 269 -1436 450 -1196 c 1,11,12
 496 -1116 496 -1116 496 -1041 c 2,13,-1
 496 -982 l 1,14,-1
 489 -952 l 1,15,-1
 476 -952 l 1,16,17
 55 -1285 55 -1285 55 -1451 c 2,18,-1
 55 -1523 l 1,9,10
61 -1932 m 1,19,20
 496 -1690 496 -1690 496 -1451 c 2,21,-1
 496 -1392 l 1,22,-1
 489 -1362 l 1,23,-1
 476 -1362 l 1,24,25
 61 -1689 61 -1689 61 -1850 c 2,26,-1
 61 -1932 l 1,19,20
61 -2318 m 1,27,28
 496 -2076 496 -2076 496 -1837 c 2,29,-1
 496 -1778 l 1,30,-1
 489 -1748 l 1,31,-1
 476 -1748 l 1,32,33
 82 -2077 82 -2077 77 -2177 c 1,34,35
 61 -2211 61 -2211 61 -2318 c 1,27,28
55 -2733 m 1,36,37
 347 -2511 347 -2511 417 -2348 c 1,38,39
 450 -2274 450 -2274 450 -2164 c 2,40,-1
 450 -2147 l 1,41,-1
 443 -2147 l 1,42,43
 55 -2478 55 -2478 55 -2710 c 2,44,-1
 55 -2733 l 1,36,37
0 -66 m 1,45,46
 1 -11 1 -11 39 45 c 0,47,48
 77 102 77 102 140 148.5 c 128,-1,49
 203 195 203 195 274 221.5 c 128,-1,50
 345 248 345 248 410 248 c 0,51,52
 468 248 468 248 507 239 c 128,-1,53
 546 230 546 230 576 206 c 1,54,55
 640 163 640 163 640 74 c 0,56,57
 640 11 640 11 603 -46 c 128,-1,58
 566 -103 566 -103 499 -151 c 1,59,60
 438 -196 438 -196 363.5 -222 c 128,-1,61
 289 -248 289 -248 218 -248 c 0,62,63
 127 -248 127 -248 68 -204 c 1,64,-1
 68 -679 l 1,65,66
 529 -591 529 -591 529 -412 c 1,67,-1
 522 -281 l 1,68,-1
 555 -257 l 1,69,-1
 581 -257 l 2,70,71
 621 -257 621 -257 621 -400 c 0,72,73
 621 -443 621 -443 581 -524 c 1,74,-1
 601 -679 l 1,75,-1
 601 -691 l 1,76,-1
 568 -845 l 1,77,78
 597 -949 597 -949 588 -1107 c 1,79,-1
 562 -1249 l 1,80,81
 588 -1368 588 -1368 588 -1457 c 1,82,83
 580 -1526 580 -1526 549 -1600 c 1,84,85
 588 -1719 588 -1719 588 -1843 c 1,86,87
 566 -1963 566 -1963 535 -2021 c 1,88,-1
 535 -2229 l 2,89,90
 535 -2406 535 -2406 206 -2770 c 1,91,92
 48 -2971 48 -2971 48 -3125 c 2,93,-1
 48 -3132 l 1,94,-1
 0 -3132 l 1,95,-1
 0 -66 l 1,45,46
EndSplineSet
Validated: 33
EndChar

StartChar: idieresis
Encoding: 61589 61589 119
Width: 1093
Flags: W
LayerCount: 2
Fore
SplineSet
951 2380 m 1,1,-1
 957 2380 l 1,2,-1
 964 2409 l 1,3,-1
 964 2446 l 2,4,5
 964 2639 964 2639 652 2933 c 1,6,0
 638 2701 638 2701 951 2380 c 1,1,-1
957 1941 m 1,8,9
 984 1968 984 1968 984 2059 c 2,10,-1
 984 2072 l 2,11,12
 984 2245 984 2245 652 2510 c 1,13,7
 638 2281 638 2281 957 1941 c 1,8,9
951 1537 m 1,15,-1
 964 1537 l 1,16,-1
 984 1607 l 1,17,-1
 984 1649 l 2,18,19
 984 1824 984 1824 652 2083 c 1,20,14
 638 1861 638 1861 951 1537 c 1,15,-1
944 1121 m 1,22,-1
 964 1121 l 1,23,-1
 984 1192 l 1,24,-1
 984 1228 l 2,25,26
 984 1417 984 1417 645 1661 c 1,27,21
 638 1435 638 1435 944 1121 c 1,22,-1
951 694 m 1,29,-1
 964 694 l 1,30,-1
 984 765 l 1,31,-1
 984 794 l 2,32,33
 984 983 984 983 652 1240 c 1,34,28
 638 1010 638 1010 951 694 c 1,29,-1
640 84 m 1,35,-1
 640 74 l 2,36,37
 640 11 640 11 603 -46 c 128,-1,38
 566 -103 566 -103 499 -151 c 1,39,40
 438 -196 438 -196 363.5 -222 c 128,-1,41
 289 -248 289 -248 218 -248 c 0,42,43
 124 -248 124 -248 64 -201 c 1,44,45
 0 -149 0 -149 0 -70 c 0,46,47
 0 -13 0 -13 38.5 44.5 c 128,-1,48
 77 102 77 102 140 148.5 c 128,-1,49
 203 195 203 195 274 221.5 c 128,-1,50
 345 248 345 248 410 248 c 0,51,52
 468 248 468 248 507 239 c 0,53,54
 544 230 544 230 573 208 c 1,55,-1
 570 3328 l 1,56,-1
 639 3330 l 1,57,58
 656 3266 656 3266 688 3176 c 128,-1,59
 720 3086 720 3086 944 2748 c 1,60,61
 1052 2574 1052 2574 1052 2463 c 2,62,-1
 1052 2421 l 2,63,64
 1052 2353 1052 2353 1012 2267 c 1,65,66
 1080 2147 1080 2147 1080 2053 c 0,67,68
 1080 1995 1080 1995 1018 1839 c 1,69,70
 1080 1727 1080 1727 1080 1637 c 0,71,72
 1080 1579 1080 1579 1018 1424 c 1,73,74
 1061 1373 1061 1373 1080 1221 c 1,75,76
 1071 1127 1071 1127 1005 1043 c 1,77,78
 1080 852 1080 852 1080 789 c 1,79,80
 1069 701 1069 701 1005 617 c 1,81,82
 1090 449 1090 449 1093 349 c 1,83,84
 1037 -2 1037 -2 957 -2 c 0,85,86
 923 -2 923 -2 910 40 c 1,87,88
 998 211 998 211 998 332 c 2,89,-1
 998 379 l 2,90,91
 998 565 998 565 645 819 c 1,92,-1
 642 80 l 1,93,-1
 640 84 l 1,35,-1
EndSplineSet
Validated: 33
EndChar

StartChar: ntilde
Encoding: 61590 61590 120
Width: 367
Flags: W
LayerCount: 2
Fore
SplineSet
0 612 m 1,0,-1
 165 692 l 1,1,-1
 182 692 l 1,2,-1
 182 120 l 2,3,4
 182 63 182 63 186.5 49 c 128,-1,5
 191 35 191 35 206 27.5 c 128,-1,6
 221 20 221 20 267 19 c 1,7,-1
 267 0 l 1,8,-1
 12 0 l 1,9,-1
 12 19 l 1,10,11
 60 20 60 20 74 27 c 128,-1,12
 88 34 88 34 93.5 46.5 c 128,-1,13
 99 59 99 59 99 120 c 2,14,-1
 99 486 l 2,15,16
 99 560 99 560 94 581 c 0,17,18
 91 597 91 597 81.5 604.5 c 128,-1,19
 72 612 72 612 59 612 c 0,20,21
 41 612 41 612 8 596 c 1,22,-1
 0 612 l 1,0,-1
EndSplineSet
Validated: 1
EndChar

StartChar: oacute
Encoding: 61591 61591 121
Width: 540
Flags: W
LayerCount: 2
Fore
SplineSet
440 135 m 1,0,-1
 385 0 l 1,1,-1
 0 0 l 1,2,-1
 0 12 l 1,3,-1
 176 199 l 2,4,5
 305 336 305 336 305 455 c 0,6,7
 305 596 305 596 162 596 c 0,8,9
 74 596 74 596 20 467 c 1,10,-1
 0 473 l 1,11,12
 39 670 39 670 211 670 c 0,13,14
 287 670 287 670 338 618.5 c 128,-1,15
 389 567 389 567 389 492 c 0,16,17
 389 383 389 383 262 250 c 2,18,-1
 96 76 l 1,19,-1
 334 76 l 2,20,21
 387 76 387 76 428 141 c 1,22,-1
 440 135 l 1,0,-1
EndSplineSet
Validated: 1
EndChar

StartChar: ograve
Encoding: 61592 61592 122
Width: 485
Flags: W
LayerCount: 2
Fore
SplineSet
109 342 m 1,0,-1
 109 354 l 1,1,2
 272 408 272 408 272 522 c 0,3,4
 272 567 272 567 241.5 596 c 128,-1,5
 211 625 211 625 164 625 c 0,6,7
 74 625 74 625 16 520 c 1,8,-1
 2 524 l 1,9,10
 51 684 51 684 197 684 c 0,11,12
 262 684 262 684 306 649 c 128,-1,13
 350 614 350 614 350 551 c 0,14,15
 350 471 350 471 258 412 c 1,16,17
 385 358 385 358 385 229 c 0,18,19
 385 119 385 119 304 59.5 c 128,-1,20
 223 0 223 0 111 0 c 0,21,22
 0 0 0 0 0 57 c 0,23,24
 0 92 0 92 39 92 c 0,25,26
 57 92 57 92 104.5 64.5 c 128,-1,27
 152 37 152 37 180 37 c 0,28,29
 244 37 244 37 278.5 80 c 128,-1,30
 313 123 313 123 313 188 c 0,31,32
 313 348 313 348 109 342 c 1,0,-1
EndSplineSet
Validated: 33
EndChar

StartChar: ocircumflex
Encoding: 61593 61593 123
Width: 557
Flags: W
LayerCount: 2
Fore
SplineSet
457 229 m 1,0,-1
 457 166 l 1,1,-1
 354 166 l 1,2,-1
 354 0 l 1,3,-1
 279 0 l 1,4,-1
 279 166 l 1,5,-1
 0 166 l 1,6,-1
 0 229 l 1,7,-1
 311 670 l 1,8,-1
 354 670 l 1,9,-1
 354 229 l 1,10,-1
 457 229 l 1,0,-1
276 229 m 1,11,-1
 276 565 l 1,12,-1
 274 565 l 1,13,-1
 39 229 l 1,14,-1
 276 229 l 1,11,-1
EndSplineSet
Validated: 1
EndChar

StartChar: odieresis
Encoding: 61594 61594 124
Width: 501
Flags: W
LayerCount: 2
Fore
SplineSet
147 592 m 1,0,-1
 104 508 l 1,1,2
 244 483 244 483 309 430 c 1,3,4
 389 367 389 367 389 238 c 0,5,6
 389 131 389 131 311 65.5 c 128,-1,7
 233 0 233 0 125 0 c 0,8,9
 0 0 0 0 0 59 c 0,10,11
 0 98 0 98 39 98 c 0,12,13
 68 98 68 98 114 67.5 c 128,-1,14
 160 37 160 37 182 37 c 0,15,16
 250 37 250 37 287 94 c 0,17,18
 319 143 319 143 319 213 c 0,19,20
 319 317 319 317 225 373 c 1,21,22
 150 420 150 420 37 422 c 1,23,24
 27 424 27 424 33 436 c 2,25,-1
 139 670 l 1,26,-1
 346 670 l 2,27,28
 375 670 375 670 393 696 c 1,29,-1
 401 690 l 1,30,-1
 365 602 l 2,31,32
 360 592 360 592 342 592 c 2,33,-1
 147 592 l 1,0,-1
EndSplineSet
Validated: 1
EndChar

StartChar: otilde
Encoding: 61595 61595 125
Width: 530
Flags: W
LayerCount: 2
Fore
SplineSet
408 692 m 1,0,-1
 410 676 l 1,1,2
 297 659 297 659 215 581.5 c 128,-1,3
 133 504 133 504 117 393 c 1,4,5
 190 438 190 438 248 438 c 0,6,7
 334 438 334 438 385 377 c 1,8,9
 430 319 430 319 430 231 c 0,10,11
 430 131 430 131 372.5 65.5 c 128,-1,12
 315 0 315 0 217 0 c 0,13,14
 102 0 102 0 47 100 c 1,15,16
 0 180 0 180 0 303 c 0,17,18
 0 467 0 467 123 580 c 1,19,20
 242 686 242 686 408 692 c 1,0,-1
205 393 m 0,21,22
 143 393 143 393 111 360 c 1,23,24
 92 342 92 342 92 268 c 0,25,26
 92 180 92 180 119 117 c 1,27,28
 154 29 154 29 231 29 c 0,29,30
 340 29 340 29 340 193 c 0,31,32
 340 393 340 393 205 393 c 0,21,22
EndSplineSet
Validated: 1
EndChar

StartChar: uacute
Encoding: 61596 61596 126
Width: 524
Flags: W
LayerCount: 2
Fore
SplineSet
417 664 m 1,0,-1
 417 649 l 1,1,-1
 208 0 l 1,2,-1
 143 0 l 1,3,-1
 339 592 l 1,4,-1
 124 592 l 2,5,6
 83 592 83 592 54 569 c 0,7,8
 36 555 36 555 9 510 c 1,9,-1
 -7 518 l 1,10,-1
 36 621 l 1,11,-1
 50 664 l 1,12,-1
 417 664 l 1,0,-1
EndSplineSet
Validated: 1
EndChar

StartChar: ugrave
Encoding: 61597 61597 127
Width: 491
Flags: W
LayerCount: 2
Fore
SplineSet
135 354 m 1,0,1
 54 420 54 420 31 460 c 128,-1,2
 8 500 8 500 8 543 c 0,3,4
 8 609 8 609 59 656.5 c 128,-1,5
 110 704 110 704 194 704 c 0,6,7
 276 704 276 704 326 659.5 c 128,-1,8
 376 615 376 615 376 558 c 0,9,10
 376 520 376 520 349 480.5 c 128,-1,11
 322 441 322 441 237 388 c 1,12,13
 325 320 325 320 353 281 c 0,14,15
 391 230 391 230 391 173 c 0,16,17
 391 102 391 102 336.5 51 c 128,-1,18
 282 0 282 0 194 0 c 0,19,20
 97 0 97 0 43 61 c 0,21,22
 0 109 0 109 0 167 c 0,23,24
 0 212 0 212 30.5 256 c 128,-1,25
 61 300 61 300 135 354 c 1,0,1
213 407 m 1,26,27
 273 461 273 461 289 492.5 c 128,-1,28
 305 524 305 524 305 563 c 0,29,30
 305 616 305 616 275.5 645.5 c 128,-1,31
 246 675 246 675 195 675 c 256,32,33
 144 675 144 675 112 645.5 c 128,-1,34
 80 616 80 616 80 577 c 0,35,36
 80 551 80 551 93.5 525 c 128,-1,37
 107 499 107 499 131 475 c 1,38,-1
 213 407 l 1,26,27
158 335 m 1,39,40
 117 300 117 300 97 258.5 c 128,-1,41
 77 217 77 217 77 169 c 0,42,43
 77 105 77 105 112 66 c 128,-1,44
 147 27 147 27 202 27 c 0,45,46
 256 27 256 27 288.5 57.5 c 128,-1,47
 321 88 321 88 321 132 c 0,48,49
 321 168 321 168 302 196 c 0,50,51
 266 249 266 249 158 335 c 1,39,40
EndSplineSet
Validated: 1
EndChar

StartChar: ucircumflex
Encoding: 61598 61598 128
Width: 528
Flags: W
LayerCount: 2
Fore
SplineSet
14 0 m 1,0,-1
 14 19 l 1,1,2
 79 20 79 20 135 49 c 128,-1,3
 191 78 191 78 243 151 c 128,-1,4
 295 224 295 224 316 312 c 1,5,6
 237 261 237 261 174 261 c 0,7,8
 102 261 102 261 51 316.5 c 128,-1,9
 0 372 0 372 0 463 c 0,10,11
 0 552 0 552 51 622 c 0,12,13
 113 706 113 706 212 706 c 0,14,15
 295 706 295 706 355 637 c 0,16,17
 428 552 428 552 428 426 c 0,18,19
 428 313 428 313 372.5 215.5 c 128,-1,20
 317 118 317 118 218 53 c 0,21,22
 137 0 137 0 42 0 c 2,23,-1
 14 0 l 1,0,-1
324 349 m 1,24,25
 333 414 333 414 333 453 c 0,26,27
 333 501 333 501 316.5 557.5 c 128,-1,28
 300 614 300 614 269.5 644 c 128,-1,29
 239 674 239 674 201 674 c 0,30,31
 156 674 156 674 122.5 634 c 128,-1,32
 89 594 89 594 89 515 c 0,33,34
 89 409 89 409 134 350 c 0,35,36
 166 307 166 307 214 307 c 0,37,38
 237 307 237 307 268.5 318 c 128,-1,39
 300 329 300 329 324 349 c 1,24,25
EndSplineSet
Validated: 1
EndChar

StartChar: udieresis
Encoding: 61599 61599 129
Width: 627
Flags: W
LayerCount: 2
Fore
SplineSet
252 713 m 1,0,1
 488 713 488 713 527 375 c 1,2,-1
 527 348 l 2,3,4
 527 107 527 107 329 9 c 1,5,-1
 261 0 l 1,6,7
 87 0 87 0 14 251 c 1,8,9
 0 312 0 312 0 362 c 0,10,11
 0 602 0 602 194 699 c 1,12,-1
 252 713 l 1,0,1
167 371 m 2,13,14
 167 59 167 59 221 59 c 1,15,16
 224 45 224 45 257 45 c 2,17,-1
 279 45 l 2,18,19
 360 45 360 45 360 294 c 2,20,-1
 360 437 l 2,21,22
 360 669 360 669 270 669 c 2,23,-1
 261 669 l 2,24,25
 167 669 167 669 167 419 c 2,26,-1
 167 371 l 2,13,14
EndSplineSet
Validated: 1
EndChar

StartChar: dagger
Encoding: 61600 61600 130
Width: 430
Flags: W
LayerCount: 2
Fore
SplineSet
229 893 m 1,0,-1
 244 893 l 1,1,2
 259 886 259 886 259 866 c 2,3,-1
 259 731 l 1,4,-1
 263 713 l 1,5,-1
 266 713 l 1,6,-1
 311 724 l 1,7,8
 330 716 330 716 330 686 c 2,9,-1
 330 641 l 2,10,11
 330 601 330 601 263 585 c 1,12,-1
 259 581 l 1,13,-1
 259 416 l 1,14,15
 260 398 260 398 266 398 c 1,16,-1
 304 409 l 1,17,-1
 311 409 l 1,18,19
 330 401 330 401 330 371 c 2,20,-1
 330 330 l 2,21,22
 330 288 330 288 263 270 c 1,23,-1
 259 266 l 1,24,-1
 259 86 l 2,25,26
 259 58 259 58 244 53 c 1,27,-1
 229 53 l 1,28,29
 214 60 214 60 214 75 c 0,30,31
 211 244 211 244 206 244 c 1,32,33
 116 213 116 213 116 203 c 2,34,-1
 116 34 l 2,35,36
 116 6 116 6 101 0 c 1,37,-1
 86 0 l 1,38,39
 68 6 68 6 68 49 c 2,40,-1
 68 184 l 1,41,-1
 23 169 l 1,42,43
 0 177 0 177 0 199 c 2,44,-1
 0 259 l 2,45,46
 0 288 0 288 68 311 c 1,47,-1
 68 495 l 1,48,-1
 23 484 l 1,49,50
 0 491 0 491 0 514 c 2,51,-1
 0 574 l 2,52,53
 0 604 0 604 64 623 c 1,54,-1
 68 626 l 1,55,-1
 68 791 l 2,56,57
 68 834 68 834 86 840 c 1,58,-1
 101 840 l 1,59,60
 116 835 116 835 116 806 c 2,61,-1
 116 649 l 1,62,-1
 120 649 l 1,63,64
 196 673 196 673 210 690 c 1,65,-1
 210 709 l 1,66,-1
 214 874 l 1,67,68
 221 891 221 891 229 893 c 1,0,-1
116 518 m 1,69,-1
 116 334 l 1,70,71
 141 336 141 336 210 375 c 1,72,-1
 210 559 l 1,73,74
 125 531 125 531 116 518 c 1,69,-1
EndSplineSet
Validated: 1
EndChar

StartChar: degree
Encoding: 61601 61601 131
Width: 407
Flags: W
LayerCount: 2
Fore
SplineSet
38 840 m 1,0,1
 76 837 76 837 76 819 c 2,2,-1
 67 374 l 1,3,-1
 71 374 l 1,4,5
 133 412 133 412 185 416 c 1,6,7
 281 416 281 416 307 277 c 1,8,9
 307 183 307 183 109 55 c 1,10,11
 68 0 68 0 50 0 c 0,12,13
 24 0 24 0 17 42 c 1,14,-1
 0 819 l 1,15,16
 7 840 7 840 38 840 c 1,0,1
76 193 m 1,17,-1
 76 151 l 1,18,-1
 80 88 l 1,19,-1
 84 88 l 1,20,21
 202 174 202 174 202 265 c 2,22,-1
 202 286 l 2,23,24
 202 333 202 333 160 357 c 1,25,-1
 139 357 l 1,26,27
 80 345 80 345 80 277 c 1,28,-1
 76 193 l 1,17,-1
EndSplineSet
Validated: 1
EndChar

StartChar: cent
Encoding: 61602 61602 132
Width: 344
Flags: W
LayerCount: 2
Fore
SplineSet
34 1025 m 0,0,1
 67 1025 67 1025 67 995 c 2,2,-1
 67 941 l 1,3,-1
 63 773 l 1,4,-1
 67 773 l 1,5,-1
 214 794 l 1,6,7
 232 794 232 794 235 743 c 1,8,-1
 244 21 l 2,9,10
 244 8 244 8 210 0 c 1,11,12
 172 0 172 0 172 29 c 2,13,-1
 176 252 l 1,14,-1
 172 252 l 1,15,-1
 25 231 l 1,16,-1
 8 248 l 1,17,-1
 0 1004 l 1,18,19
 5 1025 5 1025 34 1025 c 0,0,1
63 634 m 2,20,-1
 59 365 l 1,21,-1
 63 365 l 2,22,23
 92 365 92 365 176 386 c 1,24,-1
 181 512 l 1,25,-1
 181 659 l 1,26,27
 63 647 63 647 63 634 c 2,20,-1
EndSplineSet
Validated: 1
EndChar

StartChar: sterling
Encoding: 61603 61603 133
Width: 336
Flags: W
LayerCount: 2
Fore
SplineSet
12 828 m 1,0,1
 20 832 20 832 27 832 c 0,2,3
 41 832 41 832 66 791 c 1,4,5
 201 586 201 586 227 380 c 0,6,7
 232 341 232 341 232 299 c 0,8,9
 232 256 232 256 227 210 c 0,10,11
 201 1 201 1 66 -204 c 1,12,13
 41 -245 41 -245 27 -245 c 0,14,15
 4 -245 4 -245 0 -218 c 0,16,17
 0 -212 0 -212 10 -197 c 0,18,19
 106 -48 106 -48 125 179 c 1,20,21
 133 257 133 257 127 390 c 1,22,23
 125 402 125 402 125 410 c 0,24,25
 106 636 106 636 10 785 c 0,26,27
 0 799 0 799 0 806 c 0,28,29
 0 820 0 820 12 828 c 1,0,1
EndSplineSet
Validated: 33
EndChar

StartChar: registered
Encoding: 61608 61608 134
Width: 340
Flags: W
LayerCount: 2
Fore
SplineSet
197 828 m 0,0,1
 205 833 205 833 212 833 c 0,2,3
 222 833 222 833 231 820 c 0,4,5
 234 815 234 815 234 809 c 0,6,7
 234 798 234 798 225 785 c 0,8,9
 129 636 129 636 111 410 c 1,10,11
 102 328 102 328 109 199 c 1,12,13
 111 187 111 187 111 179 c 0,14,15
 129 -48 129 -48 225 -197 c 1,16,17
 236 -212 236 -212 236 -218 c 0,18,19
 236 -240 236 -240 211 -245 c 1,20,21
 195 -245 195 -245 170 -204 c 1,22,23
 35 1 35 1 8 210 c 0,24,25
 4 247 4 247 4 289 c 0,26,27
 4 332 4 332 8 380 c 1,28,29
 35 586 35 586 170 791 c 1,30,31
 190 824 190 824 197 828 c 0,0,1
EndSplineSet
Validated: 33
EndChar

StartChar: copyright
Encoding: 61609 61609 135
Width: 618
Flags: W
LayerCount: 2
Fore
SplineSet
457 577 m 1,0,-1
 496 538 l 1,1,-1
 29 207 l 1,2,-1
 0 249 l 1,3,-1
 457 577 l 1,0,-1
EndSplineSet
Validated: 1
EndChar

StartChar: trademark
Encoding: 61610 61610 136
Width: 676
Flags: W
LayerCount: 2
Fore
SplineSet
272 368 m 1,0,-1
 346 592 l 1,1,-1
 131 592 l 2,2,3
 90 592 90 592 61 569 c 0,4,5
 43 555 43 555 16 510 c 1,6,-1
 0 518 l 1,7,-1
 43 621 l 1,8,-1
 57 664 l 1,9,-1
 424 664 l 1,10,-1
 424 649 l 1,11,-1
 345 405 l 1,12,-1
 530 498 l 1,13,-1
 562 439 l 1,14,-1
 318 319 l 1,15,-1
 215 0 l 1,16,-1
 150 0 l 1,17,-1
 243 282 l 1,18,-1
 50 187 l 1,19,-1
 18 240 l 1,20,-1
 272 368 l 1,0,-1
EndSplineSet
Validated: 1
EndChar

StartChar: acute
Encoding: 61611 61611 137
Width: 610
Flags: W
LayerCount: 2
Fore
SplineSet
253 601 m 1,0,1
 293 601 293 601 297 579 c 1,2,3
 307 549 307 549 307 477 c 2,4,-1
 307 397 l 1,5,-1
 387 397 l 2,6,7
 477 397 477 397 489 387 c 0,8,9
 500 377 500 377 504 371 c 1,10,11
 510 358 510 358 510 346 c 0,12,13
 510 332 510 332 504 319 c 1,14,15
 500 313 500 313 489 303 c 1,16,17
 459 293 459 293 387 293 c 2,18,-1
 307 293 l 1,19,-1
 307 211 l 2,20,21
 307 121 307 121 297 108 c 1,22,23
 287 98 287 98 281 94 c 1,24,25
 272 90 272 90 256 90 c 0,26,27
 238 90 238 90 229 94 c 1,28,29
 223 98 223 98 213 108 c 1,30,31
 203 121 203 121 203 186 c 2,32,-1
 203 293 l 1,33,-1
 121 293 l 2,34,35
 31 293 31 293 18 303 c 1,36,37
 8 313 8 313 4 319 c 1,38,39
 0 328 0 328 0 346 c 0,40,41
 0 362 0 362 4 371 c 1,42,43
 8 377 8 377 18 387 c 1,44,45
 31 397 31 397 96 397 c 2,46,-1
 203 397 l 1,47,-1
 203 481 l 1,48,49
 205 553 205 553 211 581 c 1,50,51
 221 599 221 599 253 601 c 1,0,1
EndSplineSet
Validated: 1
EndChar

StartChar: dieresis
Encoding: 61612 61612 138
Width: 610
Flags: W
LayerCount: 2
Fore
SplineSet
387 397 m 2,0,1
 477 397 477 397 489 387 c 0,2,3
 500 377 500 377 504 371 c 1,4,5
 510 358 510 358 510 346 c 0,6,7
 510 332 510 332 504 319 c 1,8,9
 500 313 500 313 489 303 c 1,10,11
 459 293 459 293 387 293 c 2,12,-1
 121 293 l 2,13,14
 31 293 31 293 18 303 c 1,15,16
 8 313 8 313 4 319 c 1,17,18
 0 328 0 328 0 346 c 0,19,20
 0 362 0 362 4 371 c 1,21,22
 8 377 8 377 18 387 c 1,23,24
 31 397 31 397 96 397 c 2,25,-1
 387 397 l 2,0,1
EndSplineSet
Validated: 1
EndChar

StartChar: H
Encoding: 72 72 222
Width: 1454
Flags: W
LayerCount: 2
Fore
SplineSet
773 791 m 1,0,-1
 860 76 l 1,1,2
 982 134 982 134 1037 230 c 128,-1,3
 1092 326 1092 326 1085 433 c 1,4,5
 1083 598 1083 598 1051.5 652 c 128,-1,6
 1020 706 1020 706 988 735.5 c 128,-1,7
 956 765 956 765 885 784 c 1,8,9
 826 792 826 792 773 791 c 1,0,-1
632 1659 m 1,10,11
 765 1786 765 1786 833 1866 c 1,12,13
 966 2064 966 2064 974 2159.5 c 128,-1,14
 982 2255 982 2255 970 2349 c 1,15,16
 947 2460 947 2460 922 2471 c 1,17,18
 742 2379 742 2379 667 2209 c 0,19,20
 604 2066 604 2066 604 1929 c 0,21,22
 604 1862 604 1862 610 1798.5 c 128,-1,23
 616 1735 616 1735 632 1659 c 1,10,11
695 1355 m 1,24,25
 731 1090 731 1090 739 1013 c 1,26,27
 804 1005 804 1005 817 1003 c 0,28,29
 1003 987 1003 987 1128 841 c 1,30,31
 1243 693 1243 693 1243 487 c 0,32,33
 1243 330 1243 330 1146 206 c 0,34,35
 1057 93 1057 93 875 14 c 1,36,-1
 924 -436 l 1,37,38
 927 -578 927 -578 903 -639 c 128,-1,39
 879 -700 879 -700 850 -732.5 c 128,-1,40
 821 -765 821 -765 756.5 -803.5 c 128,-1,41
 692 -842 692 -842 608 -852 c 0,42,43
 592 -853 592 -853 576 -853 c 0,44,45
 458 -853 458 -853 360 -775 c 1,46,47
 246 -677 246 -677 237 -569 c 0,48,49
 228 -448 228 -448 288.5 -383.5 c 128,-1,50
 349 -319 349 -319 436 -311 c 1,51,52
 547 -307 547 -307 602 -374 c 128,-1,53
 657 -441 657 -441 648 -525 c 1,54,55
 648 -598 648 -598 571 -658 c 1,56,57
 476 -698 476 -698 411 -670 c 1,58,59
 378 -689 378 -689 402 -719 c 128,-1,60
 426 -749 426 -749 494 -777 c 0,61,62
 547 -799 547 -799 610 -787 c 1,63,64
 706 -766 706 -766 747.5 -731.5 c 128,-1,65
 789 -697 789 -697 809.5 -672.5 c 128,-1,66
 830 -648 830 -648 844 -596 c 128,-1,67
 858 -544 858 -544 857 -436 c 1,68,-1
 809 -6 l 1,69,70
 792 -14 792 -14 742 -18.5 c 128,-1,71
 692 -23 692 -23 643 -23 c 0,72,73
 378 -23 378 -23 189 185 c 128,-1,74
 0 393 0 393 0 686 c 1,75,76
 14 879 14 879 89 1024 c 1,77,78
 149 1172 149 1172 303 1336 c 1,79,80
 407 1464 407 1464 567 1609 c 1,81,82
 547 1728 547 1728 536.5 1838.5 c 128,-1,83
 526 1949 526 1949 528 2040 c 1,84,85
 528 2192 528 2192 545 2289 c 128,-1,86
 562 2386 562 2386 627 2508.5 c 128,-1,87
 692 2631 692 2631 808 2753 c 1,88,89
 924 2624 924 2624 984 2453 c 128,-1,90
 1044 2282 1044 2282 1044 2087 c 0,91,92
 1044 1882 1044 1882 966 1688 c 1,93,94
 896 1539 896 1539 695 1355 c 1,24,25
796 60 m 1,95,-1
 710 804 l 1,96,97
 623 784 623 784 560 752.5 c 128,-1,98
 497 721 497 721 442 650 c 1,99,100
 399 580 399 580 412.5 471 c 128,-1,101
 426 362 426 362 507 285 c 1,102,103
 565 244 565 244 655 225 c 1,104,-1
 659 198 l 1,105,106
 423 243 423 243 340 389.5 c 128,-1,107
 257 536 257 536 295 681 c 1,108,109
 318 797 318 797 421.5 891.5 c 128,-1,110
 525 986 525 986 679 1004 c 1,111,112
 673 1070 673 1070 635 1307 c 1,113,114
 459 1148 459 1148 366 1043 c 1,115,116
 252 934 252 934 203 822 c 1,117,118
 141 715 141 715 141 567 c 0,119,120
 141 333 141 333 303 186 c 0,121,122
 458 45 458 45 686 45 c 0,123,124
 728 45 728 45 796 60 c 1,95,-1
780.75 3392.71 m 5,125,-1
 818.97 3392.71 l 5,126,127
 951.27 3374.14 951.27 3374.14 951.27 3287.83 c 4,128,129
 951.27 3239.66 951.27 3239.66 895.41 3176.94 c 5,130,-1
 895.41 3173.92 l 5,131,132
 971.85 3120.23 971.85 3120.23 971.85 3053.99 c 4,133,134
 971.85 2965.18 971.85 2965.18 857.189 2925.03 c 5,135,136
 825.83 2916 825.83 2916 804.27 2916 c 6,137,-1
 786.63 2916 l 5,138,139
 621.99 2938.08 621.99 2938.08 621.99 3050.98 c 4,140,141
 621.99 3096.15 621.99 3096.15 689.61 3158.87 c 5,142,-1
 689.61 3164.89 l 5,143,144
 636.689 3215.07 636.689 3215.07 636.689 3266.76 c 4,145,146
 636.689 3369.63 636.689 3369.63 780.75 3392.71 c 5,125,-1
  Spiro
    780.75 3392.71 v
    818.97 3392.71 v
    918.195 3357.21 o
    951.27 3287.83 o
    937.305 3236.02 o
    895.41 3176.94 v
    895.41 3173.92 v
    952.74 3117.1 o
    971.85 3053.99 o
    943.185 2977.34 o
    857.19 2925.03 v
    828.28 2918.26 o
    804.27 2916 [
    786.63 2916 v
    663.15 2960.78 o
    621.99 3050.98 o
    638.895 3100.54 o
    689.61 3158.87 v
    689.61 3164.89 v
    649.92 3215.45 o
    636.69 3266.76 o
    672.705 3349.68 o
    0 0 z
  EndSpiro
730.77 3308.91 m 6,147,-1
 730.77 3299.88 l 6,148,149
 730.77 3257.22 730.77 3257.22 830.73 3213.06 c 5,150,-1
 857.189 3195 l 5,151,-1
 866.01 3195 l 5,152,153
 910.11 3238.66 910.11 3238.66 910.11 3275.79 c 6,154,-1
 910.11 3296.87 l 6,155,156
 910.11 3347.55 910.11 3347.55 833.67 3368.62 c 5,157,-1
 795.45 3371.63 l 5,158,-1
 792.51 3371.63 l 5,159,160
 730.77 3356.58 730.77 3356.58 730.77 3308.91 c 6,147,-1
  Spiro
    730.77 3308.91 [
    730.77 3299.88 ]
    755.76 3256.85 o
    830.73 3213.06 v
    857.19 3195 v
    866.01 3195 v
    899.085 3237.03 o
    910.11 3275.79 [
    910.11 3296.87 ]
    891 3340.15 o
    833.67 3368.62 v
    795.45 3371.63 v
    792.51 3371.63 v
    746.205 3348.43 o
    0 0 z
  EndSpiro
663.15 3047.97 m 6,161,162
 663.15 2976.21 663.15 2976.21 745.47 2946.11 c 5,163,-1
 768.99 2940.08 l 5,164,-1
 807.21 2940.08 l 6,165,166
 862.09 2940.08 862.09 2940.08 874.83 3011.84 c 5,167,-1
 874.83 3020.88 l 6,168,169
 874.83 3071.56 874.83 3071.56 760.17 3122.74 c 5,170,171
 734.689 3143.82 734.689 3143.82 721.95 3143.82 c 4,172,173
 698.92 3143.82 698.92 3143.82 663.15 3066.04 c 5,174,-1
 663.15 3047.97 l 6,161,162
  Spiro
    663.15 3047.97 ]
    683.73 2986.63 o
    745.47 2946.11 v
    768.99 2940.09 v
    807.21 2940.09 ]
    851.555 2958.02 o
    874.83 3011.84 v
    874.83 3020.88 ]
    846.165 3071.68 o
    760.17 3122.74 v
    737.875 3138.55 o
    721.95 3143.82 o
    695.735 3124.37 o
    663.15 3066.04 v
    0 0 z
  EndSpiro
EndSplineSet
Validated: 33
EndChar

StartChar: I
Encoding: 73 73 223
Width: 612
Flags: W
LayerCount: 2
Fore
SplineSet
846.062 3390.18 m 5,0,-1
 974.492 3378.12 l 5,1,-1
 1108.9 3390.18 l 5,2,3
 1120.84 3385.66 1120.84 3385.66 1120.84 3381.14 c 6,4,-1
 1120.84 3378.12 l 5,5,6
 1035.22 3285.23 1035.22 3285.23 863.98 3285.23 c 5,7,-1
 858.007 3276.19 l 5,8,-1
 858.007 3186.31 l 5,9,-1
 863.98 3186.31 l 5,10,11
 909.778 3218.95 909.778 3218.95 953.584 3218.95 c 6,12,-1
 974.492 3218.95 l 6,13,14
 1095.95 3218.95 1095.95 3218.95 1129.8 3104.96 c 5,15,-1
 1132.79 3069.31 l 5,16,-1
 1132.79 3066.29 l 6,17,18
 1132.79 2961.85 1132.79 2961.85 998.387 2916.15 c 5,19,-1
 962.545 2913.14 l 5,20,-1
 944.624 2913.14 l 5,21,22
 801.26 2930.21 801.26 2930.21 801.26 3021.1 c 4,23,24
 801.26 3071.31 801.26 3071.31 863.98 3084.37 c 5,25,26
 906.295 3084.37 906.295 3084.37 926.703 3027.13 c 5,27,-1
 926.703 3024.11 l 6,28,29
 926.703 3015.58 926.703 3015.58 887.876 2975.91 c 5,30,-1
 887.876 2961.35 l 6,31,32
 887.876 2939.25 887.876 2939.25 956.571 2934.23 c 5,33,34
 1022.28 2934.23 1022.28 2934.23 1022.28 3063.28 c 260,35,36
 1022.28 3192.33 1022.28 3192.33 956.571 3192.33 c 4,37,38
 882.4 3192.33 882.4 3192.33 846.062 3144.13 c 5,39,-1
 843.074 3144.13 l 5,40,41
 828.141 3148.14 828.141 3148.14 828.141 3165.22 c 6,42,-1
 828.141 3363.06 l 6,43,44
 828.141 3390.18 828.141 3390.18 846.062 3390.18 c 5,0,-1
570.3 3275.5 m 5,45,-1
 503.232 3134.58 l 5,46,-1
 500.55 3134.58 l 6,47,48
 484.453 3134.58 484.453 3134.58 484.453 3146.04 c 5,49,50
 551.968 3321.8 551.968 3321.8 591.763 3393.01 c 5,51,-1
 634.687 3378.07 l 5,52,-1
 642.734 3378.07 l 5,53,-1
 677.61 3390.02 l 5,54,-1
 685.658 3381.06 l 5,55,-1
 685.658 3063.88 l 6,56,57
 685.658 2965.78 685.658 2965.78 725.899 2949.35 c 5,58,59
 758.093 2941.88 758.093 2941.88 758.093 2934.91 c 6,60,-1
 758.093 2928.94 l 6,61,62
 758.093 2919.97 758.093 2919.97 747.36 2919.97 c 5,63,-1
 637.369 2931.92 l 5,64,-1
 519.329 2919.97 l 5,65,-1
 513.963 2928.94 l 5,66,-1
 513.963 2934.91 l 6,67,68
 513.963 2943.38 513.963 2943.38 546.156 2946.37 c 5,69,70
 586.397 2974.75 586.397 2974.75 586.397 3037.49 c 6,71,-1
 586.397 3255.08 l 6,72,73
 586.397 3270.52 586.397 3270.52 575.666 3275.5 c 5,74,-1
 570.3 3275.5 l 5,45,-1
EndSplineSet
Validated: 1
EndChar

StartChar: K
Encoding: 75 75 224
Width: 1454
Flags: W
LayerCount: 2
Fore
SplineSet
696.062 2630.18 m 5,0,-1
 824.492 2618.12 l 5,1,-1
 958.896 2630.18 l 5,2,3
 970.844 2625.66 970.844 2625.66 970.844 2621.14 c 6,4,-1
 970.844 2618.12 l 5,5,6
 885.223 2525.23 885.223 2525.23 713.98 2525.23 c 5,7,-1
 708.007 2516.19 l 5,8,-1
 708.007 2426.31 l 5,9,-1
 713.98 2426.31 l 5,10,11
 759.778 2458.95 759.778 2458.95 803.584 2458.95 c 6,12,-1
 824.492 2458.95 l 6,13,14
 945.954 2458.95 945.954 2458.95 979.804 2344.96 c 5,15,-1
 982.791 2309.31 l 5,16,-1
 982.791 2306.29 l 6,17,18
 982.791 2201.85 982.791 2201.85 848.387 2156.15 c 5,19,-1
 812.545 2153.14 l 5,20,-1
 794.624 2153.14 l 5,21,22
 651.26 2170.21 651.26 2170.21 651.26 2261.1 c 4,23,24
 651.26 2311.31 651.26 2311.31 713.98 2324.37 c 5,25,26
 756.295 2324.37 756.295 2324.37 776.703 2267.13 c 5,27,-1
 776.703 2264.11 l 6,28,29
 776.703 2255.58 776.703 2255.58 737.876 2215.91 c 5,30,-1
 737.876 2201.35 l 6,31,32
 737.876 2179.25 737.876 2179.25 806.571 2174.23 c 5,33,34
 872.279 2174.23 872.279 2174.23 872.279 2303.28 c 260,35,36
 872.279 2432.33 872.279 2432.33 806.571 2432.33 c 4,37,38
 732.4 2432.33 732.4 2432.33 696.062 2384.13 c 5,39,-1
 693.074 2384.13 l 5,40,41
 678.141 2388.14 678.141 2388.14 678.141 2405.22 c 6,42,-1
 678.141 2603.06 l 6,43,44
 678.141 2630.18 678.141 2630.18 696.062 2630.18 c 5,0,-1
420.3 2515.5 m 5,45,-1
 353.232 2374.58 l 5,46,-1
 350.55 2374.58 l 6,47,48
 334.453 2374.58 334.453 2374.58 334.453 2386.04 c 5,49,50
 401.968 2561.8 401.968 2561.8 441.763 2633.01 c 5,51,-1
 484.687 2618.07 l 5,52,-1
 492.734 2618.07 l 5,53,-1
 527.61 2630.02 l 5,54,-1
 535.658 2621.06 l 5,55,-1
 535.658 2303.88 l 6,56,57
 535.658 2205.78 535.658 2205.78 575.899 2189.35 c 5,58,59
 608.093 2181.88 608.093 2181.88 608.093 2174.91 c 6,60,-1
 608.093 2168.94 l 6,61,62
 608.093 2159.97 608.093 2159.97 597.36 2159.97 c 5,63,-1
 487.369 2171.92 l 5,64,-1
 369.329 2159.97 l 5,65,-1
 363.963 2168.94 l 5,66,-1
 363.963 2174.91 l 6,67,68
 363.963 2183.38 363.963 2183.38 396.156 2186.37 c 5,69,70
 436.397 2214.75 436.397 2214.75 436.397 2277.49 c 6,71,-1
 436.397 2495.08 l 6,72,73
 436.397 2510.52 436.397 2510.52 425.666 2515.5 c 5,74,-1
 420.3 2515.5 l 5,45,-1
0 369 m 1,75,76
 324 613 324 613 447.5 738 c 128,-1,77
 571 863 571 863 662 980.5 c 128,-1,78
 753 1098 753 1098 788.5 1199 c 128,-1,79
 824 1300 824 1300 842.5 1443 c 128,-1,80
 861 1586 861 1586 840 1676 c 128,-1,81
 819 1766 819 1766 779.5 1834.5 c 128,-1,82
 740 1903 740 1903 682.5 1936 c 128,-1,83
 625 1969 625 1969 506 1982 c 1,84,85
 410 1977 410 1977 340 1949 c 128,-1,86
 270 1921 270 1921 237 1884 c 0,87,88
 218 1862 218 1862 204 1837.5 c 128,-1,89
 190 1813 190 1813 183.5 1797.5 c 128,-1,90
 177 1782 177 1782 181 1752 c 1,91,92
 194 1711 194 1711 225 1711 c 1,93,94
 239 1726 239 1726 261 1736 c 1,95,96
 312 1753 312 1753 348 1750 c 0,97,98
 414 1746 414 1746 463 1697 c 128,-1,99
 512 1648 512 1648 510 1549 c 1,100,101
 504 1481 504 1481 452.5 1428.5 c 128,-1,102
 401 1376 401 1376 291 1361 c 1,103,104
 162 1363 162 1363 108 1437 c 128,-1,105
 54 1511 54 1511 53 1600 c 0,106,107
 51 1704 51 1704 93.5 1791 c 128,-1,108
 136 1878 136 1878 208 1939 c 1,109,110
 316 2011 316 2011 393 2031 c 128,-1,111
 470 2051 470 2051 560 2052 c 1,112,-1
 566 2052 l 2,113,114
 654 2052 654 2052 777 2022 c 0,115,116
 903 1991 903 1991 983.5 1892 c 128,-1,117
 1064 1793 1064 1793 1083.5 1715.5 c 128,-1,118
 1103 1638 1103 1638 1101.5 1490.5 c 128,-1,119
 1100 1343 1100 1343 983.5 1146 c 128,-1,120
 867 949 867 949 692.5 796 c 128,-1,121
 518 643 518 643 353.5 543 c 128,-1,122
 189 443 189 443 0 324 c 1,123,-1
 0 369 l 1,75,76
1228 1755 m 0,124,125
 1228 1799 1228 1799 1260 1830 c 128,-1,126
 1292 1861 1292 1861 1345 1861 c 0,127,128
 1393 1861 1393 1861 1422 1826.5 c 128,-1,129
 1451 1792 1451 1792 1451 1747 c 0,130,131
 1451 1703 1451 1703 1418.5 1670.5 c 128,-1,132
 1386 1638 1386 1638 1337 1638 c 0,133,134
 1287 1638 1287 1638 1257.5 1673.5 c 128,-1,135
 1228 1709 1228 1709 1228 1755 c 0,124,125
1228 1337 m 0,136,137
 1228 1381 1228 1381 1260.5 1412.5 c 128,-1,138
 1293 1444 1293 1444 1344 1444 c 0,139,140
 1392 1444 1392 1444 1423 1407 c 0,141,142
 1451 1374 1451 1374 1451 1329 c 0,143,144
 1451 1286 1451 1286 1418.5 1253.5 c 128,-1,145
 1386 1221 1386 1221 1336 1221 c 0,146,147
 1285 1221 1285 1221 1256.5 1255 c 128,-1,148
 1228 1289 1228 1289 1228 1337 c 0,136,137
EndSplineSet
Validated: 33
EndChar

StartChar: M
Encoding: 77 77 225
Width: 1454
Flags: W
LayerCount: 2
Fore
SplineSet
686.062 480.178 m 1,0,-1
 814.492 468.125 l 1,1,-1
 948.896 480.178 l 1,2,3
 960.844 475.658 960.844 475.658 960.844 471.139 c 2,4,-1
 960.844 468.125 l 1,5,6
 875.223 375.229 875.223 375.229 703.98 375.229 c 1,7,-1
 698.007 366.19 l 1,8,-1
 698.007 276.307 l 1,9,-1
 703.98 276.307 l 1,10,11
 749.778 308.945 749.778 308.945 793.584 308.945 c 2,12,-1
 814.492 308.945 l 2,13,14
 935.954 308.945 935.954 308.945 969.804 194.96 c 1,15,-1
 972.791 159.307 l 1,16,-1
 972.791 156.294 l 2,17,18
 972.791 51.8477 972.791 51.8477 838.387 6.15332 c 1,19,-1
 802.545 3.14062 l 1,20,-1
 784.624 3.14062 l 1,21,22
 641.26 20.2129 641.26 20.2129 641.26 111.101 c 0,23,24
 641.26 161.314 641.26 161.314 703.98 174.371 c 1,25,26
 746.295 174.371 746.295 174.371 766.703 117.127 c 1,27,-1
 766.703 114.113 l 2,28,29
 766.703 105.577 766.703 105.577 727.876 65.9092 c 1,30,-1
 727.876 51.3457 l 2,31,32
 727.876 29.251 727.876 29.251 796.571 24.2305 c 1,33,34
 862.279 24.2305 862.279 24.2305 862.279 153.28 c 256,35,36
 862.279 282.332 862.279 282.332 796.571 282.332 c 0,37,38
 722.4 282.332 722.4 282.332 686.062 234.126 c 1,39,-1
 683.074 234.126 l 1,40,41
 668.141 238.143 668.141 238.143 668.141 255.217 c 2,42,-1
 668.141 453.062 l 2,43,44
 668.141 480.178 668.141 480.178 686.062 480.178 c 1,0,-1
410.3 365.498 m 1,45,-1
 343.232 224.583 l 1,46,-1
 340.55 224.583 l 2,47,48
 324.453 224.583 324.453 224.583 324.453 236.035 c 1,49,50
 391.968 411.805 391.968 411.805 431.763 483.01 c 1,51,-1
 474.687 468.072 l 1,52,-1
 482.734 468.072 l 1,53,-1
 517.61 480.022 l 1,54,-1
 525.658 471.06 l 1,55,-1
 525.658 153.877 l 2,56,57
 525.658 55.7832 525.658 55.7832 565.899 39.3516 c 1,58,59
 598.093 31.8838 598.093 31.8838 598.093 24.9131 c 2,60,-1
 598.093 18.9375 l 2,61,62
 598.093 9.97363 598.093 9.97363 587.36 9.97363 c 1,63,-1
 477.369 21.9248 l 1,64,-1
 359.329 9.97363 l 1,65,-1
 353.963 18.9375 l 1,66,-1
 353.963 24.9131 l 2,67,68
 353.963 33.3779 353.963 33.3779 386.156 36.3652 c 1,69,70
 426.397 64.7471 426.397 64.7471 426.397 127.486 c 2,71,-1
 426.397 345.083 l 2,72,73
 426.397 360.518 426.397 360.518 415.666 365.498 c 1,74,-1
 410.3 365.498 l 1,45,-1
0 369 m 1,75,76
 324 613 324 613 447.5 738 c 128,-1,77
 571 863 571 863 662 980.5 c 128,-1,78
 753 1098 753 1098 788.5 1199 c 128,-1,79
 824 1300 824 1300 842.5 1443 c 128,-1,80
 861 1586 861 1586 840 1676 c 128,-1,81
 819 1766 819 1766 779.5 1834.5 c 128,-1,82
 740 1903 740 1903 682.5 1936 c 128,-1,83
 625 1969 625 1969 506 1982 c 1,84,85
 410 1977 410 1977 340 1949 c 128,-1,86
 270 1921 270 1921 237 1884 c 0,87,88
 218 1862 218 1862 204 1837.5 c 128,-1,89
 190 1813 190 1813 183.5 1797.5 c 128,-1,90
 177 1782 177 1782 181 1752 c 1,91,92
 194 1711 194 1711 225 1711 c 1,93,94
 239 1726 239 1726 261 1736 c 1,95,96
 312 1753 312 1753 348 1750 c 0,97,98
 414 1746 414 1746 463 1697 c 128,-1,99
 512 1648 512 1648 510 1549 c 1,100,101
 504 1481 504 1481 452.5 1428.5 c 128,-1,102
 401 1376 401 1376 291 1361 c 1,103,104
 162 1363 162 1363 108 1437 c 128,-1,105
 54 1511 54 1511 53 1600 c 0,106,107
 51 1704 51 1704 93.5 1791 c 128,-1,108
 136 1878 136 1878 208 1939 c 1,109,110
 316 2011 316 2011 393 2031 c 128,-1,111
 470 2051 470 2051 560 2052 c 1,112,-1
 566 2052 l 2,113,114
 654 2052 654 2052 777 2022 c 0,115,116
 903 1991 903 1991 983.5 1892 c 128,-1,117
 1064 1793 1064 1793 1083.5 1715.5 c 128,-1,118
 1103 1638 1103 1638 1101.5 1490.5 c 128,-1,119
 1100 1343 1100 1343 983.5 1146 c 128,-1,120
 867 949 867 949 692.5 796 c 128,-1,121
 518 643 518 643 353.5 543 c 128,-1,122
 189 443 189 443 0 324 c 1,123,-1
 0 369 l 1,75,76
1228 1755 m 0,124,125
 1228 1799 1228 1799 1260 1830 c 128,-1,126
 1292 1861 1292 1861 1345 1861 c 0,127,128
 1393 1861 1393 1861 1422 1826.5 c 128,-1,129
 1451 1792 1451 1792 1451 1747 c 0,130,131
 1451 1703 1451 1703 1418.5 1670.5 c 128,-1,132
 1386 1638 1386 1638 1337 1638 c 0,133,134
 1287 1638 1287 1638 1257.5 1673.5 c 128,-1,135
 1228 1709 1228 1709 1228 1755 c 0,124,125
1228 1337 m 0,136,137
 1228 1381 1228 1381 1260.5 1412.5 c 128,-1,138
 1293 1444 1293 1444 1344 1444 c 0,139,140
 1392 1444 1392 1444 1423 1407 c 0,141,142
 1451 1374 1451 1374 1451 1329 c 0,143,144
 1451 1286 1451 1286 1418.5 1253.5 c 128,-1,145
 1386 1221 1386 1221 1336 1221 c 0,146,147
 1285 1221 1285 1221 1256.5 1255 c 128,-1,148
 1228 1289 1228 1289 1228 1337 c 0,136,137
EndSplineSet
Validated: 33
EndChar

StartChar: N
Encoding: 78 78 226
Width: 1243
Flags: W
LayerCount: 2
Fore
SplineSet
666.062 -959.822 m 5,0,-1
 794.492 -971.875 l 5,1,-1
 928.896 -959.822 l 5,2,3
 940.844 -964.342 940.844 -964.342 940.844 -968.861 c 6,4,-1
 940.844 -971.875 l 5,5,6
 855.223 -1064.77 855.223 -1064.77 683.98 -1064.77 c 5,7,-1
 678.007 -1073.81 l 5,8,-1
 678.007 -1163.69 l 5,9,-1
 683.98 -1163.69 l 5,10,11
 729.778 -1131.05 729.778 -1131.05 773.584 -1131.05 c 6,12,-1
 794.492 -1131.05 l 6,13,14
 915.954 -1131.05 915.954 -1131.05 949.804 -1245.04 c 5,15,-1
 952.791 -1280.69 l 5,16,-1
 952.791 -1283.71 l 6,17,18
 952.791 -1388.15 952.791 -1388.15 818.387 -1433.85 c 5,19,-1
 782.545 -1436.86 l 5,20,-1
 764.624 -1436.86 l 5,21,22
 621.26 -1419.79 621.26 -1419.79 621.26 -1328.9 c 4,23,24
 621.26 -1278.69 621.26 -1278.69 683.98 -1265.63 c 5,25,26
 726.295 -1265.63 726.295 -1265.63 746.703 -1322.87 c 5,27,-1
 746.703 -1325.89 l 6,28,29
 746.703 -1334.42 746.703 -1334.42 707.876 -1374.09 c 5,30,-1
 707.876 -1388.65 l 6,31,32
 707.876 -1410.75 707.876 -1410.75 776.571 -1415.77 c 5,33,34
 842.279 -1415.77 842.279 -1415.77 842.279 -1286.72 c 260,35,36
 842.279 -1157.67 842.279 -1157.67 776.571 -1157.67 c 4,37,38
 702.4 -1157.67 702.4 -1157.67 666.062 -1205.87 c 5,39,-1
 663.074 -1205.87 l 5,40,41
 648.141 -1201.86 648.141 -1201.86 648.141 -1184.78 c 6,42,-1
 648.141 -986.938 l 6,43,44
 648.141 -959.822 648.141 -959.822 666.062 -959.822 c 5,0,-1
390.3 -1074.5 m 5,45,-1
 323.232 -1215.42 l 5,46,-1
 320.55 -1215.42 l 6,47,48
 304.453 -1215.42 304.453 -1215.42 304.453 -1203.96 c 5,49,50
 371.968 -1028.2 371.968 -1028.2 411.763 -956.99 c 5,51,-1
 454.687 -971.928 l 5,52,-1
 462.734 -971.928 l 5,53,-1
 497.61 -959.978 l 5,54,-1
 505.658 -968.94 l 5,55,-1
 505.658 -1286.12 l 6,56,57
 505.658 -1384.22 505.658 -1384.22 545.899 -1400.65 c 5,58,59
 578.093 -1408.12 578.093 -1408.12 578.093 -1415.09 c 6,60,-1
 578.093 -1421.06 l 6,61,62
 578.093 -1430.03 578.093 -1430.03 567.36 -1430.03 c 5,63,-1
 457.369 -1418.08 l 5,64,-1
 339.329 -1430.03 l 5,65,-1
 333.963 -1421.06 l 5,66,-1
 333.963 -1415.09 l 6,67,68
 333.963 -1406.62 333.963 -1406.62 366.156 -1403.63 c 5,69,70
 406.397 -1375.25 406.397 -1375.25 406.397 -1312.51 c 6,71,-1
 406.397 -1094.92 l 6,72,73
 406.397 -1079.48 406.397 -1079.48 395.666 -1074.5 c 5,74,-1
 390.3 -1074.5 l 5,45,-1
773 791 m 1,75,-1
 860 76 l 1,76,77
 982 134 982 134 1037 230 c 128,-1,78
 1092 326 1092 326 1085 433 c 1,79,80
 1083 598 1083 598 1051.5 652 c 128,-1,81
 1020 706 1020 706 988 735.5 c 128,-1,82
 956 765 956 765 885 784 c 1,83,84
 826 792 826 792 773 791 c 1,75,-1
632 1659 m 1,85,86
 765 1786 765 1786 833 1866 c 1,87,88
 966 2064 966 2064 974 2159.5 c 128,-1,89
 982 2255 982 2255 970 2349 c 1,90,91
 947 2460 947 2460 922 2471 c 1,92,93
 742 2379 742 2379 667 2209 c 0,94,95
 604 2066 604 2066 604 1929 c 0,96,97
 604 1862 604 1862 610 1798.5 c 128,-1,98
 616 1735 616 1735 632 1659 c 1,85,86
695 1355 m 1,99,100
 731 1090 731 1090 739 1013 c 1,101,102
 804 1005 804 1005 817 1003 c 0,103,104
 1003 987 1003 987 1128 841 c 1,105,106
 1243 693 1243 693 1243 487 c 0,107,108
 1243 330 1243 330 1146 206 c 0,109,110
 1057 93 1057 93 875 14 c 1,111,-1
 924 -436 l 1,112,113
 927 -578 927 -578 903 -639 c 128,-1,114
 879 -700 879 -700 850 -732.5 c 128,-1,115
 821 -765 821 -765 756.5 -803.5 c 128,-1,116
 692 -842 692 -842 608 -852 c 0,117,118
 592 -853 592 -853 576 -853 c 0,119,120
 458 -853 458 -853 360 -775 c 1,121,122
 246 -677 246 -677 237 -569 c 0,123,124
 228 -448 228 -448 288.5 -383.5 c 128,-1,125
 349 -319 349 -319 436 -311 c 1,126,127
 547 -307 547 -307 602 -374 c 128,-1,128
 657 -441 657 -441 648 -525 c 1,129,130
 648 -598 648 -598 571 -658 c 1,131,132
 476 -698 476 -698 411 -670 c 1,133,134
 378 -689 378 -689 402 -719 c 128,-1,135
 426 -749 426 -749 494 -777 c 0,136,137
 547 -799 547 -799 610 -787 c 1,138,139
 706 -766 706 -766 747.5 -731.5 c 128,-1,140
 789 -697 789 -697 809.5 -672.5 c 128,-1,141
 830 -648 830 -648 844 -596 c 128,-1,142
 858 -544 858 -544 857 -436 c 1,143,-1
 809 -6 l 1,144,145
 792 -14 792 -14 742 -18.5 c 128,-1,146
 692 -23 692 -23 643 -23 c 0,147,148
 378 -23 378 -23 189 185 c 128,-1,149
 0 393 0 393 0 686 c 1,150,151
 14 879 14 879 89 1024 c 1,152,153
 149 1172 149 1172 303 1336 c 1,154,155
 407 1464 407 1464 567 1609 c 1,156,157
 547 1728 547 1728 536.5 1838.5 c 128,-1,158
 526 1949 526 1949 528 2040 c 1,159,160
 528 2192 528 2192 545 2289 c 128,-1,161
 562 2386 562 2386 627 2508.5 c 128,-1,162
 692 2631 692 2631 808 2753 c 1,163,164
 924 2624 924 2624 984 2453 c 128,-1,165
 1044 2282 1044 2282 1044 2087 c 0,166,167
 1044 1882 1044 1882 966 1688 c 1,168,169
 896 1539 896 1539 695 1355 c 1,99,100
796 60 m 1,170,-1
 710 804 l 1,171,172
 623 784 623 784 560 752.5 c 128,-1,173
 497 721 497 721 442 650 c 1,174,175
 399 580 399 580 412.5 471 c 128,-1,176
 426 362 426 362 507 285 c 1,177,178
 565 244 565 244 655 225 c 1,179,-1
 659 198 l 1,180,181
 423 243 423 243 340 389.5 c 128,-1,182
 257 536 257 536 295 681 c 1,183,184
 318 797 318 797 421.5 891.5 c 128,-1,185
 525 986 525 986 679 1004 c 1,186,187
 673 1070 673 1070 635 1307 c 1,188,189
 459 1148 459 1148 366 1043 c 1,190,191
 252 934 252 934 203 822 c 1,192,193
 141 715 141 715 141 567 c 0,194,195
 141 333 141 333 303 186 c 0,196,197
 458 45 458 45 686 45 c 0,198,199
 728 45 728 45 796 60 c 1,170,-1
EndSplineSet
Validated: 33
EndChar

StartChar: Q
Encoding: 81 81 227
Width: 1243
Flags: W
LayerCount: 2
Fore
SplineSet
856.062 3390.18 m 5,0,-1
 984.492 3378.12 l 5,1,-1
 1118.9 3390.18 l 5,2,3
 1130.84 3385.66 1130.84 3385.66 1130.84 3381.14 c 6,4,-1
 1130.84 3378.12 l 5,5,6
 1045.22 3285.23 1045.22 3285.23 873.98 3285.23 c 5,7,-1
 868.007 3276.19 l 5,8,-1
 868.007 3186.31 l 5,9,-1
 873.98 3186.31 l 5,10,11
 919.778 3218.95 919.778 3218.95 963.584 3218.95 c 6,12,-1
 984.492 3218.95 l 6,13,14
 1105.95 3218.95 1105.95 3218.95 1139.8 3104.96 c 5,15,-1
 1142.79 3069.31 l 5,16,-1
 1142.79 3066.29 l 6,17,18
 1142.79 2961.85 1142.79 2961.85 1008.39 2916.15 c 5,19,-1
 972.545 2913.14 l 5,20,-1
 954.624 2913.14 l 5,21,22
 811.26 2930.21 811.26 2930.21 811.26 3021.1 c 4,23,24
 811.26 3071.31 811.26 3071.31 873.98 3084.37 c 5,25,26
 916.295 3084.37 916.295 3084.37 936.703 3027.13 c 5,27,-1
 936.703 3024.11 l 6,28,29
 936.703 3015.58 936.703 3015.58 897.876 2975.91 c 5,30,-1
 897.876 2961.35 l 6,31,32
 897.876 2939.25 897.876 2939.25 966.571 2934.23 c 5,33,34
 1032.28 2934.23 1032.28 2934.23 1032.28 3063.28 c 260,35,36
 1032.28 3192.33 1032.28 3192.33 966.571 3192.33 c 4,37,38
 892.4 3192.33 892.4 3192.33 856.062 3144.13 c 5,39,-1
 853.074 3144.13 l 5,40,41
 838.141 3148.14 838.141 3148.14 838.141 3165.22 c 6,42,-1
 838.141 3363.06 l 6,43,44
 838.141 3390.18 838.141 3390.18 856.062 3390.18 c 5,0,-1
580.3 3275.5 m 5,45,-1
 513.232 3134.58 l 5,46,-1
 510.55 3134.58 l 6,47,48
 494.453 3134.58 494.453 3134.58 494.453 3146.04 c 5,49,50
 561.968 3321.8 561.968 3321.8 601.763 3393.01 c 5,51,-1
 644.687 3378.07 l 5,52,-1
 652.734 3378.07 l 5,53,-1
 687.61 3390.02 l 5,54,-1
 695.658 3381.06 l 5,55,-1
 695.658 3063.88 l 6,56,57
 695.658 2965.78 695.658 2965.78 735.899 2949.35 c 5,58,59
 768.093 2941.88 768.093 2941.88 768.093 2934.91 c 6,60,-1
 768.093 2928.94 l 6,61,62
 768.093 2919.97 768.093 2919.97 757.36 2919.97 c 5,63,-1
 647.369 2931.92 l 5,64,-1
 529.329 2919.97 l 5,65,-1
 523.963 2928.94 l 5,66,-1
 523.963 2934.91 l 6,67,68
 523.963 2943.38 523.963 2943.38 556.156 2946.37 c 5,69,70
 596.397 2974.75 596.397 2974.75 596.397 3037.49 c 6,71,-1
 596.397 3255.08 l 6,72,73
 596.397 3270.52 596.397 3270.52 585.666 3275.5 c 5,74,-1
 580.3 3275.5 l 5,45,-1
773 791 m 1,75,-1
 860 76 l 1,76,77
 982 134 982 134 1037 230 c 128,-1,78
 1092 326 1092 326 1085 433 c 1,79,80
 1083 598 1083 598 1051.5 652 c 128,-1,81
 1020 706 1020 706 988 735.5 c 128,-1,82
 956 765 956 765 885 784 c 1,83,84
 826 792 826 792 773 791 c 1,75,-1
632 1659 m 1,85,86
 765 1786 765 1786 833 1866 c 1,87,88
 966 2064 966 2064 974 2159.5 c 128,-1,89
 982 2255 982 2255 970 2349 c 1,90,91
 947 2460 947 2460 922 2471 c 1,92,93
 742 2379 742 2379 667 2209 c 0,94,95
 604 2066 604 2066 604 1929 c 0,96,97
 604 1862 604 1862 610 1798.5 c 128,-1,98
 616 1735 616 1735 632 1659 c 1,85,86
695 1355 m 1,99,100
 731 1090 731 1090 739 1013 c 1,101,102
 804 1005 804 1005 817 1003 c 0,103,104
 1003 987 1003 987 1128 841 c 1,105,106
 1243 693 1243 693 1243 487 c 0,107,108
 1243 330 1243 330 1146 206 c 0,109,110
 1057 93 1057 93 875 14 c 1,111,-1
 924 -436 l 1,112,113
 927 -578 927 -578 903 -639 c 128,-1,114
 879 -700 879 -700 850 -732.5 c 128,-1,115
 821 -765 821 -765 756.5 -803.5 c 128,-1,116
 692 -842 692 -842 608 -852 c 0,117,118
 592 -853 592 -853 576 -853 c 0,119,120
 458 -853 458 -853 360 -775 c 1,121,122
 246 -677 246 -677 237 -569 c 0,123,124
 228 -448 228 -448 288.5 -383.5 c 128,-1,125
 349 -319 349 -319 436 -311 c 1,126,127
 547 -307 547 -307 602 -374 c 128,-1,128
 657 -441 657 -441 648 -525 c 1,129,130
 648 -598 648 -598 571 -658 c 1,131,132
 476 -698 476 -698 411 -670 c 1,133,134
 378 -689 378 -689 402 -719 c 128,-1,135
 426 -749 426 -749 494 -777 c 0,136,137
 547 -799 547 -799 610 -787 c 1,138,139
 706 -766 706 -766 747.5 -731.5 c 128,-1,140
 789 -697 789 -697 809.5 -672.5 c 128,-1,141
 830 -648 830 -648 844 -596 c 128,-1,142
 858 -544 858 -544 857 -436 c 1,143,-1
 809 -6 l 1,144,145
 792 -14 792 -14 742 -18.5 c 128,-1,146
 692 -23 692 -23 643 -23 c 0,147,148
 378 -23 378 -23 189 185 c 128,-1,149
 0 393 0 393 0 686 c 1,150,151
 14 879 14 879 89 1024 c 1,152,153
 149 1172 149 1172 303 1336 c 1,154,155
 407 1464 407 1464 567 1609 c 1,156,157
 547 1728 547 1728 536.5 1838.5 c 128,-1,158
 526 1949 526 1949 528 2040 c 1,159,160
 528 2192 528 2192 545 2289 c 128,-1,161
 562 2386 562 2386 627 2508.5 c 128,-1,162
 692 2631 692 2631 808 2753 c 1,163,164
 924 2624 924 2624 984 2453 c 128,-1,165
 1044 2282 1044 2282 1044 2087 c 0,166,167
 1044 1882 1044 1882 966 1688 c 1,168,169
 896 1539 896 1539 695 1355 c 1,99,100
796 60 m 1,170,-1
 710 804 l 1,171,172
 623 784 623 784 560 752.5 c 128,-1,173
 497 721 497 721 442 650 c 1,174,175
 399 580 399 580 412.5 471 c 128,-1,176
 426 362 426 362 507 285 c 1,177,178
 565 244 565 244 655 225 c 1,179,-1
 659 198 l 1,180,181
 423 243 423 243 340 389.5 c 128,-1,182
 257 536 257 536 295 681 c 1,183,184
 318 797 318 797 421.5 891.5 c 128,-1,185
 525 986 525 986 679 1004 c 1,186,187
 673 1070 673 1070 635 1307 c 1,188,189
 459 1148 459 1148 366 1043 c 1,190,191
 252 934 252 934 203 822 c 1,192,193
 141 715 141 715 141 567 c 0,194,195
 141 333 141 333 303 186 c 0,196,197
 458 45 458 45 686 45 c 0,198,199
 728 45 728 45 796 60 c 1,170,-1
EndSplineSet
Validated: 33
EndChar

StartChar: uni0001
Encoding: 1 1 228
Width: 702
VWidth: 1000
Flags: W
LayerCount: 2
Fore
SplineSet
328 1172 m 1,0,-1
 338 1184 l 1,1,-1
 360 1184 l 2,2,3
 379 1184 379 1184 391 1174 c 1,4,-1
 391 1018 l 1,5,-1
 407 1018 l 2,6,7
 547 1018 547 1018 629 888 c 0,8,9
 666 829 666 829 682 758 c 0,10,11
 708 644 708 644 633 588 c 1,12,13
 585 555 585 555 531 584 c 1,14,15
 464 625 464 625 464 711 c 0,16,17
 464 740 464 740 477 783 c 0,18,19
 489 823 489 823 521 841 c 128,-1,20
 553 859 553 859 583 859 c 2,21,-1
 598 859 l 1,22,23
 598 862 598 862 579 884 c 0,24,25
 510 963 510 963 414 969 c 1,26,-1
 391 969 l 1,27,-1
 391 70 l 1,28,-1
 407 70 l 2,29,30
 497 70 497 70 571 153 c 1,31,32
 629 225 629 225 655 337 c 1,33,34
 663 368 663 368 669 369 c 1,35,36
 687 381 687 381 693 368 c 0,37,38
 700 354 700 354 700 347 c 1,39,-1
 693 318 l 1,40,-1
 693 316 l 1,41,42
 647 131 647 131 531 56 c 0,43,44
 480 23 480 23 416 20 c 1,45,-1
 391 20 l 1,46,-1
 391 -133 l 1,47,-1
 381 -145 l 1,48,-1
 359 -145 l 2,49,50
 338 -145 338 -145 330 -135 c 1,51,-1
 328 -54 l 1,52,-1
 328 28 l 1,53,54
 267 36 267 36 212 70 c 1,55,56
 42 166 42 166 13 436 c 1,57,58
 7 508 7 508 13 595 c 1,59,-1
 13 603 l 1,60,61
 45 896 45 896 242 984 c 0,62,63
 271 997 271 997 328 1011 c 1,64,-1
 328 1172 l 1,0,-1
328 519 m 0,65,66
 328 954 328 954 327 954 c 128,-1,67
 326 954 326 954 313 946 c 0,68,69
 239 901 239 901 231 734 c 0,70,71
 227 653 227 653 228 491 c 0,72,73
 229 318 229 318 231 305 c 0,74,75
 256 140 256 140 295 106 c 1,76,-1
 313 92 l 2,77,78
 322 85 322 85 325 85 c 128,-1,79
 328 85 328 85 328 519 c 0,65,66
EndSplineSet
EndChar

StartChar: uni0002
Encoding: 2 2 229
Width: 702
Flags: W
LayerCount: 2
Fore
SplineSet
278 974 m 1,0,1
 371 998 371 998 432 991 c 0,2,3
 562 976 562 976 631 844 c 0,4,5
 655 797 655 797 669 737 c 0,6,7
 683 675 683 675 664 637 c 0,8,9
 610 531 610 531 521 577 c 1,10,11
 457 617 457 617 457 699 c 0,12,13
 457 792 457 792 518 826 c 1,14,15
 543 840 543 840 572 840 c 2,16,-1
 586 840 l 1,17,18
 586 843 586 843 568 864 c 0,19,20
 487 959 487 959 381 945 c 0,21,22
 276 931 276 931 248 829 c 0,23,24
 241 804 241 804 236 764 c 0,25,26
 232 733 232 733 231 515 c 0,27,28
 230 315 230 315 237 258 c 0,29,30
 254 120 254 120 341 93 c 1,31,32
 467 60 467 60 560 165 c 1,33,34
 614 231 614 231 641 341 c 0,35,36
 648 370 648 370 655 372 c 1,37,38
 671 383 671 383 678 370 c 0,39,40
 692 344 692 344 666 281 c 1,41,42
 603 85 603 85 449 44 c 0,43,44
 369 23 369 23 261 64 c 1,45,46
 252 67 252 67 246 69 c 0,47,48
 53 148 53 148 21 436 c 1,49,50
 15 505 15 505 21 588 c 1,51,-1
 21 595 l 1,52,53
 54 900 54 900 278 974 c 1,0,1
0 518 m 0,54,55
EndSplineSet
EndChar

StartChar: R
Encoding: 82 82 230
Width: 6476
VWidth: 0
Flags: HW
LayerCount: 2
Fore
SplineSet
0 0 m 5,0,1
 1100 1140 1100 1140 3200 1140 c 128,-1,3
 5300 1140 5300 1140 6400 0 c 1,4,5
 5300 880 5300 880 3200 880 c 128,-1,6
 1100 880 1100 880 0 0 c 5,0,1
EndSplineSet
EndChar

